<svg width="102" height="50" viewBox="0 0 102 50" fill="none" xmlns="http://www.w3.org/2000/svg">
<rect width="102" height="50" rx="3" fill="#D6D9DD"/>
<rect x="40" y="8" width="24" height="18" fill="#979797"/>
<rect x="40" y="28" width="24" height="5" fill="#979797"/>
<rect x="40" y="35" width="24" height="1.4" fill="#979797"/>
<rect x="40" y="37.8" width="21.0811" height="1.4" fill="#979797"/>
<rect x="40" y="40.6" width="19.4595" height="1.4" fill="#979797"/>
<rect x="66" y="8" width="24" height="18" fill="#979797"/>
<rect x="66" y="28" width="24" height="5" fill="#979797"/>
<rect x="66" y="35" width="24" height="1.4" fill="#979797"/>
<rect x="66" y="37.8" width="21.0811" height="1.4" fill="#979797"/>
<rect x="66" y="40.6" width="19.4595" height="1.4" fill="#979797"/>
<rect x="14" y="8" width="24" height="18" fill="#979797"/>
<rect x="14" y="28" width="24" height="5" fill="#979797"/>
<rect x="14" y="35" width="24" height="1.4" fill="#979797"/>
<rect x="14" y="37.8" width="21.0811" height="1.4" fill="#979797"/>
<rect x="14" y="40.6" width="19.4595" height="1.4" fill="#979797"/>
</svg>
