<svg width="1440" height="82" viewBox="0 0 1440 82" fill="none" xmlns="http://www.w3.org/2000/svg">
<rect width="1440" height="82" fill="white"/>
<g clip-path="url(#clip0_2552_1056)">
<path d="M54.3839 42.4103C54.4538 42.7784 54.7096 43.1373 55.0842 43.1323C55.4621 43.1273 55.6588 42.873 55.7408 42.2249C56.2886 37.8493 59.9275 34.8449 64.0946 35.2079C64.7598 35.2684 65.0533 35.4498 65.0533 36.2161C65.0728 38.5551 65.0337 40.8538 63.9968 43.0113C61.9817 47.2457 57.7363 49.6049 53.4909 48.8588C49.1282 48.1127 45.6262 44.3018 45.1175 39.6843C45.0002 38.5551 45.0784 37.4057 45.0002 36.2564C44.961 35.4902 45.2936 35.2885 45.9588 35.228C49.9694 34.8651 53.5888 37.7284 54.2735 41.8418C54.311 42.0352 54.3486 42.224 54.3839 42.4103ZM61.7469 39.6641C61.7861 38.8172 61.16 38.0913 60.3579 38.0308C59.5362 37.9703 58.8319 38.5954 58.7536 39.4423C58.6754 40.3497 59.321 41.0957 60.1818 41.1159C61.0035 41.1562 61.6882 40.511 61.7469 39.6641ZM49.852 41.1361C50.6737 41.1361 51.3389 40.4505 51.3585 39.6036C51.378 38.7164 50.6542 38.0107 49.7933 38.051C48.9717 38.0913 48.3456 38.7769 48.3652 39.6439C48.3652 40.4908 49.0108 41.1562 49.852 41.1361Z" fill="#175CFF"/>
<path d="M55.0557 39.6035C52.9232 35.3691 49.6756 33.514 45.1367 33.9576C45.1367 32.6066 45.1367 31.296 45.1367 29.824C51.7298 32.1429 58.3033 32.1429 64.9355 29.7635C64.9355 31.1952 64.9355 32.5058 64.9355 33.9375C62.8421 33.6955 60.8857 33.9778 59.0663 35.0061C57.2468 36.0345 55.9752 37.5871 55.0557 39.6035Z" fill="#0B3DB4"/>
</g>
<path d="M71.8732 34.6726H73.3912V32.6046L76.2512 31.7906V34.6726H78.9352V37.0926H76.2512V41.3166C76.2512 42.0793 76.3245 42.6293 76.4712 42.9666C76.6325 43.2893 76.9259 43.4506 77.3512 43.4506C77.6445 43.4506 77.8939 43.4213 78.0992 43.3626C78.3192 43.3039 78.5612 43.2159 78.8252 43.0986L79.3312 45.2986C78.9352 45.4893 78.4732 45.6506 77.9452 45.7826C77.4172 45.9146 76.8819 45.9806 76.3392 45.9806C75.3272 45.9806 74.5792 45.7239 74.0952 45.2106C73.6259 44.6826 73.3912 43.8246 73.3912 42.6366V37.0926H71.8732V34.6726ZM83.4371 34.6726V40.9206C83.4371 41.8153 83.5398 42.4606 83.7451 42.8566C83.9651 43.2526 84.3831 43.4506 84.9991 43.4506C85.5418 43.4506 85.9891 43.2893 86.3411 42.9666C86.7078 42.6439 86.9791 42.2479 87.1551 41.7786V34.6726H90.0151V42.3286C90.0151 42.9299 90.0444 43.5239 90.1031 44.1106C90.1618 44.6826 90.2498 45.2033 90.3671 45.6726H88.2111L87.7051 44.0446H87.6171C87.2798 44.6019 86.8104 45.0639 86.2091 45.4306C85.6078 45.7973 84.8964 45.9806 84.0751 45.9806C83.5178 45.9806 83.0191 45.9073 82.5791 45.7606C82.1391 45.6139 81.7724 45.3719 81.4791 45.0346C81.1858 44.6973 80.9584 44.2426 80.7971 43.6706C80.6504 43.0986 80.5771 42.3799 80.5771 41.5146V34.6726H83.4371ZM91.381 34.6726H92.899V32.6046L95.759 31.7906V34.6726H98.443V37.0926H95.759V41.3166C95.759 42.0793 95.8323 42.6293 95.979 42.9666C96.1403 43.2893 96.4337 43.4506 96.859 43.4506C97.1523 43.4506 97.4017 43.4213 97.607 43.3626C97.827 43.3039 98.069 43.2159 98.333 43.0986L98.839 45.2986C98.443 45.4893 97.981 45.6506 97.453 45.7826C96.925 45.9146 96.3897 45.9806 95.847 45.9806C94.835 45.9806 94.087 45.7239 93.603 45.2106C93.1337 44.6826 92.899 43.8246 92.899 42.6366V37.0926H91.381V34.6726ZM99.5595 40.1726C99.5595 38.3099 100.014 36.8799 100.923 35.8826C101.833 34.8706 103.109 34.3646 104.751 34.3646C105.631 34.3646 106.394 34.5039 107.039 34.7826C107.685 35.0613 108.22 35.4573 108.645 35.9706C109.071 36.4693 109.386 37.0779 109.591 37.7966C109.811 38.5153 109.921 39.3073 109.921 40.1726C109.921 42.0353 109.467 43.4726 108.557 44.4846C107.663 45.4819 106.394 45.9806 104.751 45.9806C103.871 45.9806 103.109 45.8413 102.463 45.5626C101.818 45.2839 101.275 44.8953 100.835 44.3966C100.41 43.8833 100.087 43.2673 99.8675 42.5486C99.6622 41.8299 99.5595 41.0379 99.5595 40.1726ZM102.507 40.1726C102.507 40.6566 102.551 41.1039 102.639 41.5146C102.727 41.9253 102.859 42.2846 103.035 42.5926C103.211 42.9006 103.439 43.1426 103.717 43.3186C104.011 43.4799 104.355 43.5606 104.751 43.5606C105.499 43.5606 106.057 43.2893 106.423 42.7466C106.79 42.2039 106.973 41.3459 106.973 40.1726C106.973 39.1606 106.805 38.3466 106.467 37.7306C106.13 37.0999 105.558 36.7846 104.751 36.7846C104.047 36.7846 103.497 37.0486 103.101 37.5766C102.705 38.1046 102.507 38.9699 102.507 40.1726ZM117.976 37.3566C117.521 37.1953 117.111 37.1146 116.744 37.1146C116.231 37.1146 115.798 37.2539 115.446 37.5326C115.109 37.7966 114.881 38.1413 114.764 38.5666V45.6726H111.904V34.6726H114.126L114.456 36.1246H114.544C114.793 35.5819 115.131 35.1639 115.556 34.8706C115.981 34.5773 116.48 34.4306 117.052 34.4306C117.433 34.4306 117.866 34.5113 118.35 34.6726L117.976 37.3566Z" fill="#0A083B"/>
<path d="M129.643 42.008C129.643 41.568 129.511 41.2233 129.247 40.974C128.983 40.7247 128.653 40.5193 128.257 40.358C127.876 40.182 127.45 40.0207 126.981 39.874C126.526 39.7127 126.101 39.5147 125.705 39.28C125.324 39.0307 125.001 38.7153 124.737 38.334C124.473 37.9527 124.341 37.4393 124.341 36.794C124.341 35.738 124.642 34.968 125.243 34.484C125.844 33.9853 126.68 33.736 127.751 33.736C128.543 33.736 129.203 33.8093 129.731 33.956C130.274 34.088 130.743 34.2493 131.139 34.44L130.721 35.892C130.384 35.7307 129.973 35.5913 129.489 35.474C129.02 35.342 128.514 35.276 127.971 35.276C127.326 35.276 126.849 35.386 126.541 35.606C126.248 35.826 126.101 36.2073 126.101 36.75C126.101 37.1313 126.233 37.432 126.497 37.652C126.761 37.8573 127.084 38.048 127.465 38.224C127.861 38.3853 128.286 38.5467 128.741 38.708C129.21 38.8693 129.636 39.082 130.017 39.346C130.413 39.61 130.743 39.9473 131.007 40.358C131.271 40.754 131.403 41.282 131.403 41.942C131.403 42.4113 131.322 42.8513 131.161 43.262C131.014 43.6727 130.78 44.0247 130.457 44.318C130.134 44.6113 129.731 44.8387 129.247 45C128.778 45.176 128.22 45.264 127.575 45.264C126.739 45.264 126.028 45.1833 125.441 45.022C124.854 44.8607 124.363 44.67 123.967 44.45L124.495 42.954C124.832 43.1447 125.272 43.3207 125.815 43.482C126.358 43.6433 126.908 43.724 127.465 43.724C128.096 43.724 128.616 43.5993 129.027 43.35C129.438 43.1007 129.643 42.6533 129.643 42.008ZM132.611 34H134.327V31.822L136.087 31.316V34H139.079V35.54H136.087V41.634C136.087 42.3967 136.182 42.9393 136.373 43.262C136.563 43.57 136.886 43.724 137.341 43.724C137.722 43.724 138.045 43.6873 138.309 43.614C138.573 43.526 138.866 43.416 139.189 43.284L139.585 44.626C139.189 44.8167 138.756 44.9707 138.287 45.088C137.817 45.2053 137.311 45.264 136.769 45.264C135.874 45.264 135.243 45.0147 134.877 44.516C134.51 44.0027 134.327 43.152 134.327 41.964V35.54H132.611V34ZM141.342 34.814C141.899 34.4767 142.544 34.2273 143.278 34.066C144.026 33.9047 144.803 33.824 145.61 33.824C146.372 33.824 146.981 33.9267 147.436 34.132C147.905 34.3373 148.257 34.6087 148.492 34.946C148.741 35.2687 148.902 35.628 148.976 36.024C149.064 36.42 149.108 36.816 149.108 37.212C149.108 38.092 149.086 38.95 149.042 39.786C148.998 40.622 148.976 41.414 148.976 42.162C148.976 42.7047 148.998 43.218 149.042 43.702C149.086 44.186 149.166 44.6333 149.284 45.044H147.986L147.524 43.504H147.414C147.282 43.7093 147.113 43.9147 146.908 44.12C146.717 44.3107 146.482 44.4867 146.204 44.648C145.925 44.7947 145.602 44.9193 145.236 45.022C144.869 45.1247 144.451 45.176 143.982 45.176C143.512 45.176 143.072 45.1027 142.662 44.956C142.266 44.8093 141.921 44.604 141.628 44.34C141.334 44.0613 141.1 43.7313 140.924 43.35C140.762 42.9687 140.682 42.536 140.682 42.052C140.682 41.4067 140.814 40.8713 141.078 40.446C141.342 40.006 141.708 39.6613 142.178 39.412C142.662 39.148 143.234 38.9647 143.894 38.862C144.568 38.7447 145.309 38.686 146.116 38.686C146.321 38.686 146.519 38.686 146.71 38.686C146.915 38.686 147.12 38.7007 147.326 38.73C147.37 38.29 147.392 37.894 147.392 37.542C147.392 36.7353 147.23 36.1707 146.908 35.848C146.585 35.5253 145.998 35.364 145.148 35.364C144.898 35.364 144.627 35.386 144.334 35.43C144.055 35.4593 143.762 35.5107 143.454 35.584C143.16 35.6427 142.874 35.7233 142.596 35.826C142.332 35.914 142.097 36.0167 141.892 36.134L141.342 34.814ZM144.466 43.636C144.876 43.636 145.243 43.5847 145.566 43.482C145.888 43.3647 146.167 43.2253 146.402 43.064C146.636 42.888 146.827 42.6973 146.974 42.492C147.135 42.2867 147.252 42.0887 147.326 41.898V40.072C147.12 40.0573 146.908 40.05 146.688 40.05C146.482 40.0353 146.277 40.028 146.072 40.028C145.617 40.028 145.17 40.0573 144.73 40.116C144.304 40.16 143.923 40.2553 143.586 40.402C143.263 40.534 142.999 40.7247 142.794 40.974C142.603 41.2087 142.508 41.5093 142.508 41.876C142.508 42.3893 142.691 42.8147 143.058 43.152C143.424 43.4747 143.894 43.636 144.466 43.636ZM157.624 35.694C157.184 35.5473 156.766 35.474 156.37 35.474C155.739 35.474 155.24 35.65 154.874 36.002C154.507 36.3393 154.28 36.772 154.192 37.3V45H152.432V34H153.664L153.994 35.342H154.082C154.36 34.8433 154.69 34.462 155.072 34.198C155.468 33.9193 155.966 33.78 156.568 33.78C156.993 33.78 157.47 33.8533 157.998 34L157.624 35.694ZM159.122 34H160.838V31.822L162.598 31.316V34H165.59V35.54H162.598V41.634C162.598 42.3967 162.694 42.9393 162.884 43.262C163.075 43.57 163.398 43.724 163.852 43.724C164.234 43.724 164.556 43.6873 164.82 43.614C165.084 43.526 165.378 43.416 165.7 43.284L166.096 44.626C165.7 44.8167 165.268 44.9707 164.798 45.088C164.329 45.2053 163.823 45.264 163.28 45.264C162.386 45.264 161.755 45.0147 161.388 44.516C161.022 44.0027 160.838 43.152 160.838 41.964V35.54H159.122V34ZM175.823 44.12C175.383 44.472 174.826 44.7507 174.151 44.956C173.491 45.1613 172.787 45.264 172.039 45.264C171.203 45.264 170.477 45.132 169.861 44.868C169.245 44.5893 168.739 44.2007 168.343 43.702C167.947 43.1887 167.654 42.58 167.463 41.876C167.272 41.172 167.177 40.38 167.177 39.5C167.177 37.6227 167.595 36.1927 168.431 35.21C169.267 34.2273 170.462 33.736 172.017 33.736C172.516 33.736 173.014 33.7947 173.513 33.912C174.012 34.0147 174.459 34.22 174.855 34.528C175.251 34.836 175.574 35.276 175.823 35.848C176.072 36.4053 176.197 37.146 176.197 38.07C176.197 38.554 176.153 39.0893 176.065 39.676H169.003C169.003 40.3213 169.069 40.8933 169.201 41.392C169.333 41.8907 169.538 42.316 169.817 42.668C170.096 43.0053 170.455 43.2693 170.895 43.46C171.35 43.636 171.9 43.724 172.545 43.724C173.044 43.724 173.542 43.636 174.041 43.46C174.54 43.284 174.914 43.0787 175.163 42.844L175.823 44.12ZM172.039 35.276C171.174 35.276 170.477 35.5033 169.949 35.958C169.436 36.4127 169.128 37.19 169.025 38.29H174.481C174.481 37.1753 174.268 36.398 173.843 35.958C173.418 35.5033 172.816 35.276 172.039 35.276ZM184.157 35.694C183.717 35.5473 183.299 35.474 182.903 35.474C182.272 35.474 181.774 35.65 181.407 36.002C181.04 36.3393 180.813 36.772 180.725 37.3V45H178.965V34H180.197L180.527 35.342H180.615C180.894 34.8433 181.224 34.462 181.605 34.198C182.001 33.9193 182.5 33.78 183.101 33.78C183.526 33.78 184.003 33.8533 184.531 34L184.157 35.694Z" fill="#0A083B"/>
<path d="M595.397 45C598.942 45 600.994 42.8011 600.994 39.1648C600.994 35.5455 598.942 33.3636 595.516 33.3636H591.63V45H595.397ZM593.386 43.4659V34.8977H595.408C597.954 34.8977 599.266 36.4205 599.266 39.1648C599.266 41.9205 597.954 43.4659 595.3 43.4659H593.386ZM606.802 45.1761C608.705 45.1761 610.052 44.2386 610.438 42.8182L608.83 42.5284C608.523 43.3523 607.785 43.7727 606.819 43.7727C605.364 43.7727 604.387 42.8295 604.342 41.1477H610.546V40.5455C610.546 37.392 608.66 36.1591 606.683 36.1591C604.251 36.1591 602.648 38.0114 602.648 40.6932C602.648 43.4034 604.228 45.1761 606.802 45.1761ZM604.347 39.875C604.415 38.6364 605.313 37.5625 606.694 37.5625C608.012 37.5625 608.876 38.5398 608.881 39.875H604.347ZM612.431 45H614.13V39.6193C614.13 38.4432 614.954 37.625 615.92 37.625C616.863 37.625 617.516 38.25 617.516 39.1989V45H619.21V39.4375C619.21 38.3864 619.852 37.625 620.96 37.625C621.857 37.625 622.596 38.125 622.596 39.3068V45H624.295V39.1477C624.295 37.1534 623.181 36.1591 621.602 36.1591C620.346 36.1591 619.403 36.7614 618.982 37.6932H618.891C618.511 36.7386 617.71 36.1591 616.545 36.1591C615.391 36.1591 614.533 36.733 614.17 37.6932H614.062V36.2727H612.431V45ZM630.248 45.1761C632.708 45.1761 634.316 43.375 634.316 40.6761C634.316 37.9602 632.708 36.1591 630.248 36.1591C627.788 36.1591 626.18 37.9602 626.18 40.6761C626.18 43.375 627.788 45.1761 630.248 45.1761ZM630.254 43.75C628.646 43.75 627.896 42.3466 627.896 40.6705C627.896 39 628.646 37.5795 630.254 37.5795C631.85 37.5795 632.6 39 632.6 40.6705C632.6 42.3466 631.85 43.75 630.254 43.75ZM642.752 38.4034C642.4 37.0455 641.337 36.1591 639.451 36.1591C637.479 36.1591 636.082 37.1989 636.082 38.7443C636.082 39.983 636.832 40.8068 638.468 41.1705L639.945 41.4943C640.786 41.6818 641.178 42.0568 641.178 42.6023C641.178 43.2784 640.457 43.8068 639.343 43.8068C638.326 43.8068 637.673 43.3693 637.468 42.5114L635.826 42.7614C636.11 44.3068 637.394 45.1761 639.354 45.1761C641.462 45.1761 642.923 44.0568 642.923 42.4773C642.923 41.2443 642.138 40.483 640.536 40.1136L639.15 39.7955C638.19 39.5682 637.775 39.2443 637.781 38.6534C637.775 37.983 638.502 37.5057 639.468 37.5057C640.525 37.5057 641.013 38.0909 641.212 38.6761L642.752 38.4034Z" fill="#0A083B"/>
<path d="M788.612 45H790.021V40.75H792.567C795.277 40.75 796.499 39.1023 796.499 37.0455C796.499 34.9886 795.277 33.3636 792.544 33.3636H788.612V45ZM790.021 39.5V34.6136H792.499C794.391 34.6136 795.112 35.6477 795.112 37.0455C795.112 38.4432 794.391 39.5 792.521 39.5H790.021ZM801.155 45.2045C802.678 45.2045 803.473 44.3864 803.746 43.8182H803.814V45H805.155V39.25C805.155 36.4773 803.041 36.1591 801.928 36.1591C800.609 36.1591 799.109 36.6136 798.428 38.2045L799.7 38.6591C799.996 38.0227 800.695 37.3409 801.973 37.3409C803.206 37.3409 803.814 37.9943 803.814 39.1136V39.1591C803.814 39.8068 803.155 39.75 801.564 39.9545C799.945 40.1648 798.178 40.5227 798.178 42.5227C798.178 44.2273 799.496 45.2045 801.155 45.2045ZM801.359 44C800.291 44 799.518 43.5227 799.518 42.5909C799.518 41.5682 800.45 41.25 801.496 41.1136C802.064 41.0455 803.587 40.8864 803.814 40.6136V41.8409C803.814 42.9318 802.95 44 801.359 44ZM811.125 48.4545C813.216 48.4545 814.898 47.5 814.898 45.25V36.2727H813.602V37.6591H813.466C813.17 37.2045 812.625 36.1591 810.92 36.1591C808.716 36.1591 807.193 37.9091 807.193 40.5909C807.193 43.3182 808.784 44.8636 810.898 44.8636C812.602 44.8636 813.148 43.8636 813.443 43.3864H813.557V45.1591C813.557 46.6136 812.534 47.2727 811.125 47.2727C809.54 47.2727 808.983 46.4375 808.625 45.9545L807.557 46.7045C808.102 47.6193 809.176 48.4545 811.125 48.4545ZM811.08 43.6591C809.398 43.6591 808.534 42.3864 808.534 40.5682C808.534 38.7955 809.375 37.3636 811.08 37.3636C812.716 37.3636 813.58 38.6818 813.58 40.5682C813.58 42.5 812.693 43.6591 811.08 43.6591ZM821.011 45.1818C822.784 45.1818 824.08 44.2955 824.489 42.9773L823.193 42.6136C822.852 43.5227 822.062 43.9773 821.011 43.9773C819.437 43.9773 818.352 42.9602 818.29 41.0909H824.625V40.5227C824.625 37.2727 822.693 36.1591 820.875 36.1591C818.511 36.1591 816.943 38.0227 816.943 40.7045C816.943 43.3864 818.489 45.1818 821.011 45.1818ZM818.29 39.9318C818.381 38.5739 819.341 37.3636 820.875 37.3636C822.33 37.3636 823.261 38.4545 823.261 39.9318H818.29ZM832.847 38.2273C832.426 36.9886 831.483 36.1591 829.756 36.1591C827.915 36.1591 826.551 37.2045 826.551 38.6818C826.551 39.8864 827.267 40.6932 828.869 41.0682L830.324 41.4091C831.205 41.6136 831.619 42.0341 831.619 42.6364C831.619 43.3864 830.824 44 829.574 44C828.477 44 827.79 43.5284 827.551 42.5909L826.278 42.9091C826.591 44.392 827.812 45.1818 829.597 45.1818C831.625 45.1818 833.006 44.0739 833.006 42.5682C833.006 41.3523 832.244 40.5852 830.687 40.2045L829.392 39.8864C828.358 39.6307 827.892 39.2841 827.892 38.6136C827.892 37.8636 828.687 37.3182 829.756 37.3182C830.926 37.3182 831.409 37.9659 831.642 38.5682L832.847 38.2273Z" fill="#57586E"/>
<path d="M838.94 36.7267L842 39.78L845.06 36.7267L846 37.6667L842 41.6667L838 37.6667L838.94 36.7267Z" fill="#57586E"/>
<path d="M695.038 37C694.607 34.6136 692.697 33.2045 690.357 33.2045C687.379 33.2045 685.22 35.5 685.22 39.1818C685.22 42.8636 687.379 45.1591 690.357 45.1591C692.697 45.1591 694.607 43.75 695.038 41.3636H693.629C693.288 42.9773 691.902 43.8409 690.357 43.8409C688.243 43.8409 686.584 42.2045 686.584 39.1818C686.584 36.1591 688.243 34.5227 690.357 34.5227C691.902 34.5227 693.288 35.3864 693.629 37H695.038ZM700.679 45.1818C703.043 45.1818 704.634 43.3864 704.634 40.6818C704.634 37.9545 703.043 36.1591 700.679 36.1591C698.315 36.1591 696.724 37.9545 696.724 40.6818C696.724 43.3864 698.315 45.1818 700.679 45.1818ZM700.679 43.9773C698.884 43.9773 698.065 42.4318 698.065 40.6818C698.065 38.9318 698.884 37.3636 700.679 37.3636C702.474 37.3636 703.293 38.9318 703.293 40.6818C703.293 42.4318 702.474 43.9773 700.679 43.9773ZM712.18 41.4318C712.18 43.0682 710.93 43.8182 709.93 43.8182C708.817 43.8182 708.021 43 708.021 41.7273V36.2727H706.68V41.8182C706.68 44.0455 707.862 45.1136 709.499 45.1136C710.817 45.1136 711.68 44.4091 712.089 43.5227H712.18V45H713.521V36.2727H712.18V41.4318ZM715.977 45H717.318V39.4773C717.318 38.2955 718.25 37.4318 719.523 37.4318C719.881 37.4318 720.25 37.5 720.341 37.5227V36.1591C720.187 36.1477 719.835 36.1364 719.636 36.1364C718.591 36.1364 717.682 36.7273 717.364 37.5909H717.273V36.2727H715.977V45ZM728.112 38.2273C727.692 36.9886 726.749 36.1591 725.021 36.1591C723.18 36.1591 721.817 37.2045 721.817 38.6818C721.817 39.8864 722.533 40.6932 724.135 41.0682L725.589 41.4091C726.47 41.6136 726.885 42.0341 726.885 42.6364C726.885 43.3864 726.089 44 724.839 44C723.743 44 723.055 43.5284 722.817 42.5909L721.544 42.9091C721.857 44.392 723.078 45.1818 724.862 45.1818C726.891 45.1818 728.271 44.0739 728.271 42.5682C728.271 41.3523 727.51 40.5852 725.953 40.2045L724.658 39.8864C723.624 39.6307 723.158 39.2841 723.158 38.6136C723.158 37.8636 723.953 37.3182 725.021 37.3182C726.192 37.3182 726.675 37.9659 726.908 38.5682L728.112 38.2273ZM733.949 45.1818C735.722 45.1818 737.017 44.2955 737.426 42.9773L736.131 42.6136C735.79 43.5227 735 43.9773 733.949 43.9773C732.375 43.9773 731.29 42.9602 731.227 41.0909H737.562V40.5227C737.562 37.2727 735.631 36.1591 733.812 36.1591C731.449 36.1591 729.881 38.0227 729.881 40.7045C729.881 43.3864 731.426 45.1818 733.949 45.1818ZM731.227 39.9318C731.318 38.5739 732.278 37.3636 733.812 37.3636C735.267 37.3636 736.199 38.4545 736.199 39.9318H731.227ZM745.784 38.2273C745.364 36.9886 744.42 36.1591 742.693 36.1591C740.852 36.1591 739.489 37.2045 739.489 38.6818C739.489 39.8864 740.205 40.6932 741.807 41.0682L743.261 41.4091C744.142 41.6136 744.557 42.0341 744.557 42.6364C744.557 43.3864 743.761 44 742.511 44C741.415 44 740.727 43.5284 740.489 42.5909L739.216 42.9091C739.528 44.392 740.75 45.1818 742.534 45.1818C744.562 45.1818 745.943 44.0739 745.943 42.5682C745.943 41.3523 745.182 40.5852 743.625 40.2045L742.33 39.8864C741.295 39.6307 740.83 39.2841 740.83 38.6136C740.83 37.8636 741.625 37.3182 742.693 37.3182C743.864 37.3182 744.347 37.9659 744.58 38.5682L745.784 38.2273Z" fill="#57586E"/>
<line x1="592" y1="56" x2="618" y2="56" stroke="#175CFF" stroke-width="2" stroke-linecap="round" stroke-linejoin="round"/>
<rect x="1277" y="25" width="112" height="32" rx="16" fill="#1950D1"/>
<path d="M1298.02 45H1304.68V43.4538H1299.86V40.6747H1304.3V39.1286H1299.86V36.3643H1304.64V34.8182H1298.02V45ZM1308.24 40.5256C1308.24 39.4219 1308.91 38.7855 1309.86 38.7855C1310.79 38.7855 1311.35 39.397 1311.35 40.4162V45H1313.15V40.1378C1313.15 38.3082 1312.11 37.2642 1310.53 37.2642C1309.39 37.2642 1308.6 37.8111 1308.25 38.6612H1308.16V37.3636H1306.44V45H1308.24V40.5256ZM1314.98 45H1316.78V40.5107C1316.78 39.5412 1317.51 38.8551 1318.5 38.8551C1318.8 38.8551 1319.18 38.9098 1319.33 38.9595V37.304C1319.17 37.2741 1318.88 37.2543 1318.68 37.2543C1317.81 37.2543 1317.08 37.7514 1316.8 38.6364H1316.72V37.3636H1314.98V45ZM1323.54 45.1491C1325.78 45.1491 1327.2 43.5732 1327.2 41.2116C1327.2 38.8452 1325.78 37.2642 1323.54 37.2642C1321.31 37.2642 1319.88 38.8452 1319.88 41.2116C1319.88 43.5732 1321.31 45.1491 1323.54 45.1491ZM1323.55 43.7074C1322.31 43.7074 1321.71 42.6037 1321.71 41.2067C1321.71 39.8097 1322.31 38.6911 1323.55 38.6911C1324.77 38.6911 1325.38 39.8097 1325.38 41.2067C1325.38 42.6037 1324.77 43.7074 1323.55 43.7074ZM1330.53 34.8182H1328.73V45H1330.53V34.8182ZM1334.18 34.8182H1332.38V45H1334.18V34.8182ZM1347.95 34.8182H1346.12V41.7585H1346.03L1341.23 34.8182H1339.58V45H1341.43V38.0646H1341.51L1346.31 45H1347.95V34.8182ZM1353.21 45.1491C1355.45 45.1491 1356.87 43.5732 1356.87 41.2116C1356.87 38.8452 1355.45 37.2642 1353.21 37.2642C1350.97 37.2642 1349.55 38.8452 1349.55 41.2116C1349.55 43.5732 1350.97 45.1491 1353.21 45.1491ZM1353.22 43.7074C1351.98 43.7074 1351.38 42.6037 1351.38 41.2067C1351.38 39.8097 1351.98 38.6911 1353.22 38.6911C1354.44 38.6911 1355.05 39.8097 1355.05 41.2067C1355.05 42.6037 1354.44 43.7074 1353.22 43.7074ZM1359.77 45H1361.65L1363.08 39.8395H1363.18L1364.62 45H1366.49L1368.65 37.3636H1366.81L1365.49 42.7031H1365.42L1364.04 37.3636H1362.23L1360.86 42.733H1360.79L1359.45 37.3636H1357.61L1359.77 45Z" fill="white"/>
<defs>
<clipPath id="clip0_2552_1056">
<rect width="20.0727" height="19.2363" fill="white" transform="translate(45 29.7635)"/>
</clipPath>
</defs>
</svg>
