<svg width="1440" height="82" viewBox="0 0 1440 82" fill="none" xmlns="http://www.w3.org/2000/svg">
<g clip-path="url(#clip0)">
<path d="M176.242 45.5432C176.31 45.9115 176.564 46.2515 176.938 46.2844C177.468 46.3312 177.736 46.0446 177.842 45.2042C178.497 39.9726 182.848 36.3803 187.83 36.8143C188.626 36.8866 188.976 37.1036 188.976 38.0197C189 40.8164 188.953 43.5648 187.713 46.1445C185.304 51.2074 180.228 54.0281 175.152 53.1361C169.935 52.244 165.748 47.6874 165.14 42.1665C165 40.8164 165.093 39.4422 165 38.0679C164.953 37.1518 165.351 36.9107 166.146 36.8384C170.941 36.4044 175.269 39.8279 176.088 44.7461C176.14 45.0181 176.193 45.2823 176.242 45.5432ZM185.023 42.1424C185.07 41.1298 184.321 40.2619 183.362 40.1895C182.38 40.1172 181.538 40.8646 181.444 41.8772C181.351 42.9621 182.123 43.8541 183.152 43.8782C184.134 43.9264 184.953 43.1549 185.023 42.1424ZM170.801 43.9023C171.783 43.9023 172.579 43.0826 172.602 42.07C172.626 41.0092 171.76 40.1654 170.731 40.2136C169.748 40.2619 169 41.0816 169.023 42.1183C169.023 43.1308 169.795 43.9264 170.801 43.9023Z" fill="#175CFF"/>
<path d="M177.024 42.0699C174.474 37.007 170.591 34.789 165.164 35.3194C165.164 33.7041 165.164 32.137 165.164 30.377C173.047 33.1496 180.907 33.1496 188.837 30.3047C188.837 32.0164 188.837 33.5835 188.837 35.2953C186.334 35.0059 183.994 35.3435 181.819 36.573C179.644 37.8026 178.123 39.659 177.024 42.0699Z" fill="#0B3DB4"/>
</g>
<path d="M197.13 35H198.924V32.556L202.304 31.594V35H205.476V37.86H202.304V42.852C202.304 43.7533 202.391 44.4033 202.564 44.802C202.755 45.1833 203.101 45.374 203.604 45.374C203.951 45.374 204.245 45.3393 204.488 45.27C204.748 45.2007 205.034 45.0967 205.346 44.958L205.944 47.558C205.476 47.7833 204.93 47.974 204.306 48.13C203.682 48.286 203.049 48.364 202.408 48.364C201.212 48.364 200.328 48.0607 199.756 47.454C199.201 46.83 198.924 45.816 198.924 44.412V37.86H197.13V35ZM210.796 35V42.384C210.796 43.4413 210.918 44.204 211.16 44.672C211.42 45.14 211.914 45.374 212.642 45.374C213.284 45.374 213.812 45.1833 214.228 44.802C214.662 44.4207 214.982 43.9527 215.19 43.398V35H218.57V44.048C218.57 44.7587 218.605 45.4607 218.674 46.154C218.744 46.83 218.848 47.4453 218.986 48H216.438L215.84 46.076H215.736C215.338 46.7347 214.783 47.2807 214.072 47.714C213.362 48.1473 212.521 48.364 211.55 48.364C210.892 48.364 210.302 48.2773 209.782 48.104C209.262 47.9307 208.829 47.6447 208.482 47.246C208.136 46.8473 207.867 46.31 207.676 45.634C207.503 44.958 207.416 44.1087 207.416 43.086V35H210.796ZM220.185 35H221.979V32.556L225.359 31.594V35H228.531V37.86H225.359V42.852C225.359 43.7533 225.445 44.4033 225.619 44.802C225.809 45.1833 226.156 45.374 226.659 45.374C227.005 45.374 227.3 45.3393 227.543 45.27C227.803 45.2007 228.089 45.0967 228.401 44.958L228.999 47.558C228.531 47.7833 227.985 47.974 227.361 48.13C226.737 48.286 226.104 48.364 225.463 48.364C224.267 48.364 223.383 48.0607 222.811 47.454C222.256 46.83 221.979 45.816 221.979 44.412V37.86H220.185V35ZM229.85 41.5C229.85 39.2987 230.388 37.6087 231.462 36.43C232.537 35.234 234.045 34.636 235.986 34.636C237.026 34.636 237.928 34.8007 238.69 35.13C239.453 35.4593 240.086 35.9273 240.588 36.534C241.091 37.1233 241.464 37.8427 241.706 38.692C241.966 39.5413 242.096 40.4773 242.096 41.5C242.096 43.7013 241.559 45.4 240.484 46.596C239.427 47.7747 237.928 48.364 235.986 48.364C234.946 48.364 234.045 48.1993 233.282 47.87C232.52 47.5407 231.878 47.0813 231.358 46.492C230.856 45.8853 230.474 45.1573 230.214 44.308C229.972 43.4587 229.85 42.5227 229.85 41.5ZM233.334 41.5C233.334 42.072 233.386 42.6007 233.49 43.086C233.594 43.5713 233.75 43.996 233.958 44.36C234.166 44.724 234.435 45.01 234.764 45.218C235.111 45.4087 235.518 45.504 235.986 45.504C236.87 45.504 237.529 45.1833 237.962 44.542C238.396 43.9007 238.612 42.8867 238.612 41.5C238.612 40.304 238.413 39.342 238.014 38.614C237.616 37.8687 236.94 37.496 235.986 37.496C235.154 37.496 234.504 37.808 234.036 38.432C233.568 39.056 233.334 40.0787 233.334 41.5ZM251.615 38.172C251.078 37.9813 250.592 37.886 250.159 37.886C249.552 37.886 249.041 38.0507 248.625 38.38C248.226 38.692 247.958 39.0993 247.819 39.602V48H244.439V35H247.065L247.455 36.716H247.559C247.854 36.0747 248.252 35.5807 248.755 35.234C249.258 34.8873 249.847 34.714 250.523 34.714C250.974 34.714 251.485 34.8093 252.057 35L251.615 38.172Z" fill="#0A083B"/>
<path d="M554.397 46C557.942 46 559.994 43.8011 559.994 40.1648C559.994 36.5455 557.942 34.3636 554.516 34.3636H550.63V46H554.397ZM552.386 44.4659V35.8977H554.408C556.954 35.8977 558.266 37.4205 558.266 40.1648C558.266 42.9205 556.954 44.4659 554.3 44.4659H552.386ZM565.802 46.1761C567.705 46.1761 569.052 45.2386 569.438 43.8182L567.83 43.5284C567.523 44.3523 566.785 44.7727 565.819 44.7727C564.364 44.7727 563.387 43.8295 563.342 42.1477H569.546V41.5455C569.546 38.392 567.66 37.1591 565.683 37.1591C563.251 37.1591 561.648 39.0114 561.648 41.6932C561.648 44.4034 563.228 46.1761 565.802 46.1761ZM563.347 40.875C563.415 39.6364 564.313 38.5625 565.694 38.5625C567.012 38.5625 567.876 39.5398 567.881 40.875H563.347ZM571.431 46H573.13V40.6193C573.13 39.4432 573.954 38.625 574.92 38.625C575.863 38.625 576.516 39.25 576.516 40.1989V46H578.21V40.4375C578.21 39.3864 578.852 38.625 579.96 38.625C580.857 38.625 581.596 39.125 581.596 40.3068V46H583.295V40.1477C583.295 38.1534 582.181 37.1591 580.602 37.1591C579.346 37.1591 578.403 37.7614 577.982 38.6932H577.891C577.511 37.7386 576.71 37.1591 575.545 37.1591C574.391 37.1591 573.533 37.733 573.17 38.6932H573.062V37.2727H571.431V46ZM589.248 46.1761C591.708 46.1761 593.316 44.375 593.316 41.6761C593.316 38.9602 591.708 37.1591 589.248 37.1591C586.788 37.1591 585.18 38.9602 585.18 41.6761C585.18 44.375 586.788 46.1761 589.248 46.1761ZM589.254 44.75C587.646 44.75 586.896 43.3466 586.896 41.6705C586.896 40 587.646 38.5795 589.254 38.5795C590.85 38.5795 591.6 40 591.6 41.6705C591.6 43.3466 590.85 44.75 589.254 44.75ZM601.752 39.4034C601.4 38.0455 600.337 37.1591 598.451 37.1591C596.479 37.1591 595.082 38.1989 595.082 39.7443C595.082 40.983 595.832 41.8068 597.468 42.1705L598.945 42.4943C599.786 42.6818 600.178 43.0568 600.178 43.6023C600.178 44.2784 599.457 44.8068 598.343 44.8068C597.326 44.8068 596.673 44.3693 596.468 43.5114L594.826 43.7614C595.11 45.3068 596.394 46.1761 598.354 46.1761C600.462 46.1761 601.923 45.0568 601.923 43.4773C601.923 42.2443 601.138 41.483 599.536 41.1136L598.15 40.7955C597.19 40.5682 596.775 40.2443 596.781 39.6534C596.775 38.983 597.502 38.5057 598.468 38.5057C599.525 38.5057 600.013 39.0909 600.212 39.6761L601.752 39.4034Z" fill="#175CFF"/>
<path d="M747.612 46H749.021V41.75H751.567C754.277 41.75 755.499 40.1023 755.499 38.0455C755.499 35.9886 754.277 34.3636 751.544 34.3636H747.612V46ZM749.021 40.5V35.6136H751.499C753.391 35.6136 754.112 36.6477 754.112 38.0455C754.112 39.4432 753.391 40.5 751.521 40.5H749.021ZM760.155 46.2045C761.678 46.2045 762.473 45.3864 762.746 44.8182H762.814V46H764.155V40.25C764.155 37.4773 762.041 37.1591 760.928 37.1591C759.609 37.1591 758.109 37.6136 757.428 39.2045L758.7 39.6591C758.996 39.0227 759.695 38.3409 760.973 38.3409C762.206 38.3409 762.814 38.9943 762.814 40.1136V40.1591C762.814 40.8068 762.155 40.75 760.564 40.9545C758.945 41.1648 757.178 41.5227 757.178 43.5227C757.178 45.2273 758.496 46.2045 760.155 46.2045ZM760.359 45C759.291 45 758.518 44.5227 758.518 43.5909C758.518 42.5682 759.45 42.25 760.496 42.1136C761.064 42.0455 762.587 41.8864 762.814 41.6136V42.8409C762.814 43.9318 761.95 45 760.359 45ZM770.125 49.4545C772.216 49.4545 773.898 48.5 773.898 46.25V37.2727H772.602V38.6591H772.466C772.17 38.2045 771.625 37.1591 769.92 37.1591C767.716 37.1591 766.193 38.9091 766.193 41.5909C766.193 44.3182 767.784 45.8636 769.898 45.8636C771.602 45.8636 772.148 44.8636 772.443 44.3864H772.557V46.1591C772.557 47.6136 771.534 48.2727 770.125 48.2727C768.54 48.2727 767.983 47.4375 767.625 46.9545L766.557 47.7045C767.102 48.6193 768.176 49.4545 770.125 49.4545ZM770.08 44.6591C768.398 44.6591 767.534 43.3864 767.534 41.5682C767.534 39.7955 768.375 38.3636 770.08 38.3636C771.716 38.3636 772.58 39.6818 772.58 41.5682C772.58 43.5 771.693 44.6591 770.08 44.6591ZM780.011 46.1818C781.784 46.1818 783.08 45.2955 783.489 43.9773L782.193 43.6136C781.852 44.5227 781.062 44.9773 780.011 44.9773C778.437 44.9773 777.352 43.9602 777.29 42.0909H783.625V41.5227C783.625 38.2727 781.693 37.1591 779.875 37.1591C777.511 37.1591 775.943 39.0227 775.943 41.7045C775.943 44.3864 777.489 46.1818 780.011 46.1818ZM777.29 40.9318C777.381 39.5739 778.341 38.3636 779.875 38.3636C781.33 38.3636 782.261 39.4545 782.261 40.9318H777.29ZM791.847 39.2273C791.426 37.9886 790.483 37.1591 788.756 37.1591C786.915 37.1591 785.551 38.2045 785.551 39.6818C785.551 40.8864 786.267 41.6932 787.869 42.0682L789.324 42.4091C790.205 42.6136 790.619 43.0341 790.619 43.6364C790.619 44.3864 789.824 45 788.574 45C787.477 45 786.79 44.5284 786.551 43.5909L785.278 43.9091C785.591 45.392 786.812 46.1818 788.597 46.1818C790.625 46.1818 792.006 45.0739 792.006 43.5682C792.006 42.3523 791.244 41.5852 789.687 41.2045L788.392 40.8864C787.358 40.6307 786.892 40.2841 786.892 39.6136C786.892 38.8636 787.687 38.3182 788.756 38.3182C789.926 38.3182 790.409 38.9659 790.642 39.5682L791.847 39.2273Z" fill="#57586E"/>
<path d="M797.94 37.7266L801 40.7799L804.06 37.7266L805 38.6666L801 42.6666L797 38.6666L797.94 37.7266Z" fill="#57586E"/>
<path d="M654.038 38C653.607 35.6136 651.697 34.2045 649.357 34.2045C646.379 34.2045 644.22 36.5 644.22 40.1818C644.22 43.8636 646.379 46.1591 649.357 46.1591C651.697 46.1591 653.607 44.75 654.038 42.3636H652.629C652.288 43.9773 650.902 44.8409 649.357 44.8409C647.243 44.8409 645.584 43.2045 645.584 40.1818C645.584 37.1591 647.243 35.5227 649.357 35.5227C650.902 35.5227 652.288 36.3864 652.629 38H654.038ZM659.679 46.1818C662.043 46.1818 663.634 44.3864 663.634 41.6818C663.634 38.9545 662.043 37.1591 659.679 37.1591C657.315 37.1591 655.724 38.9545 655.724 41.6818C655.724 44.3864 657.315 46.1818 659.679 46.1818ZM659.679 44.9773C657.884 44.9773 657.065 43.4318 657.065 41.6818C657.065 39.9318 657.884 38.3636 659.679 38.3636C661.474 38.3636 662.293 39.9318 662.293 41.6818C662.293 43.4318 661.474 44.9773 659.679 44.9773ZM671.18 42.4318C671.18 44.0682 669.93 44.8182 668.93 44.8182C667.817 44.8182 667.021 44 667.021 42.7273V37.2727H665.68V42.8182C665.68 45.0455 666.862 46.1136 668.499 46.1136C669.817 46.1136 670.68 45.4091 671.089 44.5227H671.18V46H672.521V37.2727H671.18V42.4318ZM674.977 46H676.318V40.4773C676.318 39.2955 677.25 38.4318 678.523 38.4318C678.881 38.4318 679.25 38.5 679.341 38.5227V37.1591C679.187 37.1477 678.835 37.1364 678.636 37.1364C677.591 37.1364 676.682 37.7273 676.364 38.5909H676.273V37.2727H674.977V46ZM687.112 39.2273C686.692 37.9886 685.749 37.1591 684.021 37.1591C682.18 37.1591 680.817 38.2045 680.817 39.6818C680.817 40.8864 681.533 41.6932 683.135 42.0682L684.589 42.4091C685.47 42.6136 685.885 43.0341 685.885 43.6364C685.885 44.3864 685.089 45 683.839 45C682.743 45 682.055 44.5284 681.817 43.5909L680.544 43.9091C680.857 45.392 682.078 46.1818 683.862 46.1818C685.891 46.1818 687.271 45.0739 687.271 43.5682C687.271 42.3523 686.51 41.5852 684.953 41.2045L683.658 40.8864C682.624 40.6307 682.158 40.2841 682.158 39.6136C682.158 38.8636 682.953 38.3182 684.021 38.3182C685.192 38.3182 685.675 38.9659 685.908 39.5682L687.112 39.2273ZM692.949 46.1818C694.722 46.1818 696.017 45.2955 696.426 43.9773L695.131 43.6136C694.79 44.5227 694 44.9773 692.949 44.9773C691.375 44.9773 690.29 43.9602 690.227 42.0909H696.562V41.5227C696.562 38.2727 694.631 37.1591 692.812 37.1591C690.449 37.1591 688.881 39.0227 688.881 41.7045C688.881 44.3864 690.426 46.1818 692.949 46.1818ZM690.227 40.9318C690.318 39.5739 691.278 38.3636 692.812 38.3636C694.267 38.3636 695.199 39.4545 695.199 40.9318H690.227ZM704.784 39.2273C704.364 37.9886 703.42 37.1591 701.693 37.1591C699.852 37.1591 698.489 38.2045 698.489 39.6818C698.489 40.8864 699.205 41.6932 700.807 42.0682L702.261 42.4091C703.142 42.6136 703.557 43.0341 703.557 43.6364C703.557 44.3864 702.761 45 701.511 45C700.415 45 699.727 44.5284 699.489 43.5909L698.216 43.9091C698.528 45.392 699.75 46.1818 701.534 46.1818C703.562 46.1818 704.943 45.0739 704.943 43.5682C704.943 42.3523 704.182 41.5852 702.625 41.2045L701.33 40.8864C700.295 40.6307 699.83 40.2841 699.83 39.6136C699.83 38.8636 700.625 38.3182 701.693 38.3182C702.864 38.3182 703.347 38.9659 703.58 39.5682L704.784 39.2273Z" fill="#57586E"/>
<path d="M850.479 46H854.684C857.434 46 858.57 44.6591 858.57 42.9091C858.57 41.0682 857.298 40.0682 856.229 40V39.8864C857.229 39.6136 858.116 38.9545 858.116 37.4545C858.116 35.75 856.979 34.3636 854.548 34.3636H850.479V46ZM851.888 44.75V40.7045H854.752C856.275 40.7045 857.229 41.7273 857.229 42.9091C857.229 43.9318 856.525 44.75 854.684 44.75H851.888ZM851.888 39.4773V35.6136H854.548C856.093 35.6136 856.775 36.4318 856.775 37.4545C856.775 38.6818 855.775 39.4773 854.502 39.4773H851.888ZM862.045 34.3636H860.704V46H862.045V34.3636ZM868.046 46.1818C870.41 46.1818 872.001 44.3864 872.001 41.6818C872.001 38.9545 870.41 37.1591 868.046 37.1591C865.683 37.1591 864.092 38.9545 864.092 41.6818C864.092 44.3864 865.683 46.1818 868.046 46.1818ZM868.046 44.9773C866.251 44.9773 865.433 43.4318 865.433 41.6818C865.433 39.9318 866.251 38.3636 868.046 38.3636C869.842 38.3636 870.66 39.9318 870.66 41.6818C870.66 43.4318 869.842 44.9773 868.046 44.9773ZM877.57 49.4545C879.661 49.4545 881.343 48.5 881.343 46.25V37.2727H880.048V38.6591H879.911C879.616 38.2045 879.07 37.1591 877.366 37.1591C875.161 37.1591 873.638 38.9091 873.638 41.5909C873.638 44.3182 875.229 45.8636 877.343 45.8636C879.048 45.8636 879.593 44.8636 879.888 44.3864H880.002V46.1591C880.002 47.6136 878.979 48.2727 877.57 48.2727C875.985 48.2727 875.428 47.4375 875.07 46.9545L874.002 47.7045C874.548 48.6193 875.621 49.4545 877.57 49.4545ZM877.525 44.6591C875.843 44.6591 874.979 43.3864 874.979 41.5682C874.979 39.7955 875.82 38.3636 877.525 38.3636C879.161 38.3636 880.025 39.6818 880.025 41.5682C880.025 43.5 879.138 44.6591 877.525 44.6591ZM889.979 39.2273C889.559 37.9886 888.616 37.1591 886.888 37.1591C885.048 37.1591 883.684 38.2045 883.684 39.6818C883.684 40.8864 884.4 41.6932 886.002 42.0682L887.457 42.4091C888.337 42.6136 888.752 43.0341 888.752 43.6364C888.752 44.3864 887.957 45 886.707 45C885.61 45 884.923 44.5284 884.684 43.5909L883.411 43.9091C883.724 45.392 884.945 46.1818 886.729 46.1818C888.758 46.1818 890.138 45.0739 890.138 43.5682C890.138 42.3523 889.377 41.5852 887.82 41.2045L886.525 40.8864C885.491 40.6307 885.025 40.2841 885.025 39.6136C885.025 38.8636 885.82 38.3182 886.888 38.3182C888.059 38.3182 888.542 38.9659 888.775 39.5682L889.979 39.2273Z" fill="#57586E"/>
<line x1="551" y1="57" x2="577" y2="57" stroke="#175CFF" stroke-width="2" stroke-linecap="round" stroke-linejoin="round"/>
<rect x="1115.7" y="20.4368" width="158.6" height="41.7501" rx="20.875" stroke="#175CFF" stroke-width="1.4"/>
<path d="M1159.84 39.0903H1161.98C1161.63 36.8062 1159.65 35.2153 1157.07 35.2153C1154.03 35.2153 1151.74 37.4539 1151.74 41.2039C1151.74 44.8857 1153.93 47.1698 1157.14 47.1698C1160.02 47.1698 1162.08 45.3176 1162.08 42.3176V40.9198H1157.36V42.5676H1160.04C1160.01 44.2267 1158.9 45.2778 1157.15 45.2778C1155.2 45.2778 1153.86 43.8176 1153.86 41.1812C1153.86 38.5619 1155.22 37.1073 1157.1 37.1073C1158.51 37.1073 1159.46 37.8573 1159.84 39.0903ZM1167.89 47.1812C1169.93 47.1812 1171.32 46.1869 1171.69 44.6698L1169.77 44.4539C1169.49 45.1926 1168.81 45.5789 1167.92 45.5789C1166.59 45.5789 1165.71 44.7039 1165.69 43.2096H1171.77V42.5789C1171.77 39.5164 1169.93 38.1698 1167.78 38.1698C1165.28 38.1698 1163.65 40.0051 1163.65 42.6982C1163.65 45.4369 1165.26 47.1812 1167.89 47.1812ZM1165.7 41.8232C1165.76 40.7096 1166.58 39.7721 1167.81 39.7721C1168.99 39.7721 1169.79 40.6357 1169.8 41.8232H1165.7ZM1177.87 38.2835H1176.15V36.1926H1174.09V38.2835H1172.85V39.8744H1174.09V44.7267C1174.08 46.3687 1175.27 47.1755 1176.82 47.1301C1177.4 47.113 1177.81 46.9994 1178.03 46.9255L1177.68 45.3176C1177.57 45.346 1177.34 45.3971 1177.08 45.3971C1176.56 45.3971 1176.15 45.2153 1176.15 44.3857V39.8744H1177.87V38.2835ZM1190.46 40.5903C1190.17 39.113 1188.99 38.1698 1186.95 38.1698C1184.84 38.1698 1183.41 39.2039 1183.42 40.8176C1183.41 42.0903 1184.2 42.9312 1185.87 43.2778L1187.36 43.5903C1188.16 43.7664 1188.54 44.0903 1188.54 44.5846C1188.54 45.1812 1187.89 45.6301 1186.91 45.6301C1185.97 45.6301 1185.35 45.221 1185.18 44.4369L1183.17 44.6301C1183.43 46.2323 1184.77 47.1812 1186.92 47.1812C1189.1 47.1812 1190.64 46.0505 1190.64 44.3971C1190.64 43.1528 1189.84 42.3914 1188.19 42.0335L1186.7 41.7153C1185.81 41.5164 1185.46 41.2096 1185.47 40.7039C1185.46 40.113 1186.12 39.7039 1186.97 39.7039C1187.92 39.7039 1188.42 40.221 1188.58 40.7948L1190.46 40.5903ZM1196.7 38.2835H1194.98V36.1926H1192.92V38.2835H1191.68V39.8744H1192.92V44.7267C1192.91 46.3687 1194.1 47.1755 1195.65 47.1301C1196.23 47.113 1196.64 46.9994 1196.86 46.9255L1196.51 45.3176C1196.4 45.346 1196.16 45.3971 1195.91 45.3971C1195.39 45.3971 1194.98 45.2153 1194.98 44.3857V39.8744H1196.7V38.2835ZM1200.93 47.1869C1202.3 47.1869 1203.12 46.5448 1203.49 45.8119H1203.56V47.0107H1205.54V41.1698C1205.54 38.863 1203.66 38.1698 1201.99 38.1698C1200.16 38.1698 1198.75 38.988 1198.29 40.5789L1200.21 40.8517C1200.42 40.2551 1201 39.7437 1202 39.7437C1202.96 39.7437 1203.48 40.2323 1203.48 41.0903V41.1244C1203.48 41.7153 1202.86 41.7437 1201.32 41.9085C1199.63 42.0903 1198.01 42.596 1198.01 44.5619C1198.01 46.2778 1199.26 47.1869 1200.93 47.1869ZM1201.46 45.6755C1200.61 45.6755 1199.99 45.2835 1199.99 44.5278C1199.99 43.738 1200.68 43.4085 1201.6 43.2778C1202.14 43.2039 1203.22 43.0676 1203.49 42.8517V43.8801C1203.49 44.8517 1202.7 45.6755 1201.46 45.6755ZM1207.61 47.0107H1209.66V41.8801C1209.66 40.7721 1210.5 39.988 1211.63 39.988C1211.97 39.988 1212.41 40.0505 1212.58 40.1073V38.2153C1212.4 38.1812 1212.07 38.1585 1211.84 38.1585C1210.84 38.1585 1210.01 38.7267 1209.69 39.738H1209.6V38.2835H1207.61V47.0107ZM1218.78 38.2835H1217.05V36.1926H1215V38.2835H1213.76V39.8744H1215V44.7267C1214.99 46.3687 1216.18 47.1755 1217.72 47.1301C1218.31 47.113 1218.71 46.9994 1218.94 46.9255L1218.59 45.3176C1218.47 45.346 1218.24 45.3971 1217.99 45.3971C1217.47 45.3971 1217.05 45.2153 1217.05 44.3857V39.8744H1218.78V38.2835ZM1224.27 47.1812C1226.3 47.1812 1227.7 46.1869 1228.06 44.6698L1226.14 44.4539C1225.86 45.1926 1225.18 45.5789 1224.29 45.5789C1222.97 45.5789 1222.08 44.7039 1222.07 43.2096H1228.15V42.5789C1228.15 39.5164 1226.31 38.1698 1224.16 38.1698C1221.66 38.1698 1220.03 40.0051 1220.03 42.6982C1220.03 45.4369 1221.64 47.1812 1224.27 47.1812ZM1222.07 41.8232C1222.14 40.7096 1222.96 39.7721 1224.19 39.7721C1225.37 39.7721 1226.16 40.6357 1226.18 41.8232H1222.07ZM1233.13 47.1642C1234.63 47.1642 1235.3 46.2721 1235.63 45.6357H1235.75V47.0107H1237.77V35.3744H1235.71V39.7267H1235.63C1235.31 39.096 1234.67 38.1698 1233.13 38.1698C1231.11 38.1698 1229.53 39.7494 1229.53 42.6585C1229.53 45.5335 1231.07 47.1642 1233.13 47.1642ZM1233.7 45.4767C1232.34 45.4767 1231.63 44.2835 1231.63 42.6471C1231.63 41.0221 1232.33 39.8573 1233.7 39.8573C1235.02 39.8573 1235.75 40.9539 1235.75 42.6471C1235.75 44.3403 1235.01 45.4767 1233.7 45.4767Z" fill="#175CFF"/>
<defs>
<clipPath id="clip0">
<rect width="24" height="23" fill="white" transform="translate(165 30.3047)"/>
</clipPath>
</defs>
</svg>
