<svg width="1440" height="82" viewBox="0 0 1440 82" fill="none" xmlns="http://www.w3.org/2000/svg">
<rect width="1440" height="82" fill="white"/>
<g clip-path="url(#clip0)">
<path d="M176.242 46.543C176.31 46.9113 176.565 47.2512 176.938 47.2842C177.468 47.331 177.736 47.0443 177.842 46.204C178.497 40.9723 182.848 37.3801 187.83 37.814C188.626 37.8864 188.977 38.1033 188.977 39.0195C189 41.8161 188.953 44.5646 187.713 47.1442C185.304 52.2071 180.228 55.0279 175.152 54.1358C169.936 53.2438 165.749 48.6872 165.14 43.1662C165 41.8161 165.094 40.4419 165 39.0677C164.953 38.1516 165.351 37.9105 166.146 37.8381C170.942 37.4042 175.269 40.8277 176.088 45.7459C176.141 46.0178 176.193 46.2821 176.242 46.543ZM185.023 43.1421C185.07 42.1295 184.322 41.2616 183.363 41.1893C182.38 41.117 181.538 41.8643 181.444 42.8769C181.351 43.9618 182.123 44.8539 183.152 44.878C184.135 44.9262 184.953 44.1547 185.023 43.1421ZM170.801 44.9021C171.784 44.9021 172.579 44.0824 172.602 43.0698C172.626 42.009 171.76 41.1652 170.731 41.2134C169.749 41.2616 169 42.0813 169.023 43.118C169.023 44.1306 169.795 44.9262 170.801 44.9021Z" fill="#175CFF"/>
<path d="M177.023 43.0696C174.474 38.0067 170.591 35.7887 165.164 36.3191C165.164 34.7038 165.164 33.1367 165.164 31.3768C173.047 34.1493 180.907 34.1493 188.836 31.3044C188.836 33.0162 188.836 34.5833 188.836 36.295C186.333 36.0057 183.994 36.3432 181.819 37.5728C179.643 38.8023 178.123 40.6587 177.023 43.0696Z" fill="#0B3DB4"/>
</g>
<path d="M197.13 36H198.924V33.556L202.304 32.594V36H205.476V38.86H202.304V43.852C202.304 44.7533 202.391 45.4033 202.564 45.802C202.755 46.1833 203.101 46.374 203.604 46.374C203.951 46.374 204.245 46.3393 204.488 46.27C204.748 46.2007 205.034 46.0967 205.346 45.958L205.944 48.558C205.476 48.7833 204.93 48.974 204.306 49.13C203.682 49.286 203.049 49.364 202.408 49.364C201.212 49.364 200.328 49.0607 199.756 48.454C199.201 47.83 198.924 46.816 198.924 45.412V38.86H197.13V36ZM210.796 36V43.384C210.796 44.4413 210.918 45.204 211.16 45.672C211.42 46.14 211.914 46.374 212.642 46.374C213.284 46.374 213.812 46.1833 214.228 45.802C214.662 45.4207 214.982 44.9527 215.19 44.398V36H218.57V45.048C218.57 45.7587 218.605 46.4607 218.674 47.154C218.744 47.83 218.848 48.4453 218.986 49H216.438L215.84 47.076H215.736C215.338 47.7347 214.783 48.2807 214.072 48.714C213.362 49.1473 212.521 49.364 211.55 49.364C210.892 49.364 210.302 49.2773 209.782 49.104C209.262 48.9307 208.829 48.6447 208.482 48.246C208.136 47.8473 207.867 47.31 207.676 46.634C207.503 45.958 207.416 45.1087 207.416 44.086V36H210.796ZM220.185 36H221.979V33.556L225.359 32.594V36H228.531V38.86H225.359V43.852C225.359 44.7533 225.445 45.4033 225.619 45.802C225.809 46.1833 226.156 46.374 226.659 46.374C227.005 46.374 227.3 46.3393 227.543 46.27C227.803 46.2007 228.089 46.0967 228.401 45.958L228.999 48.558C228.531 48.7833 227.985 48.974 227.361 49.13C226.737 49.286 226.104 49.364 225.463 49.364C224.267 49.364 223.383 49.0607 222.811 48.454C222.256 47.83 221.979 46.816 221.979 45.412V38.86H220.185V36ZM229.85 42.5C229.85 40.2987 230.388 38.6087 231.462 37.43C232.537 36.234 234.045 35.636 235.986 35.636C237.026 35.636 237.928 35.8007 238.69 36.13C239.453 36.4593 240.086 36.9273 240.588 37.534C241.091 38.1233 241.464 38.8427 241.706 39.692C241.966 40.5413 242.096 41.4773 242.096 42.5C242.096 44.7013 241.559 46.4 240.484 47.596C239.427 48.7747 237.928 49.364 235.986 49.364C234.946 49.364 234.045 49.1993 233.282 48.87C232.52 48.5407 231.878 48.0813 231.358 47.492C230.856 46.8853 230.474 46.1573 230.214 45.308C229.972 44.4587 229.85 43.5227 229.85 42.5ZM233.334 42.5C233.334 43.072 233.386 43.6007 233.49 44.086C233.594 44.5713 233.75 44.996 233.958 45.36C234.166 45.724 234.435 46.01 234.764 46.218C235.111 46.4087 235.518 46.504 235.986 46.504C236.87 46.504 237.529 46.1833 237.962 45.542C238.396 44.9007 238.612 43.8867 238.612 42.5C238.612 41.304 238.413 40.342 238.014 39.614C237.616 38.8687 236.94 38.496 235.986 38.496C235.154 38.496 234.504 38.808 234.036 39.432C233.568 40.056 233.334 41.0787 233.334 42.5ZM251.615 39.172C251.078 38.9813 250.592 38.886 250.159 38.886C249.552 38.886 249.041 39.0507 248.625 39.38C248.226 39.692 247.958 40.0993 247.819 40.602V49H244.439V36H247.065L247.455 37.716H247.559C247.854 37.0747 248.252 36.5807 248.755 36.234C249.258 35.8873 249.847 35.714 250.523 35.714C250.974 35.714 251.485 35.8093 252.057 36L251.615 39.172Z" fill="#0A083B"/>
<path d="M263.722 45.464C263.722 44.944 263.566 44.5367 263.254 44.242C262.942 43.9473 262.552 43.7047 262.084 43.514C261.633 43.306 261.131 43.1153 260.576 42.942C260.039 42.7513 259.536 42.5173 259.068 42.24C258.617 41.9453 258.236 41.5727 257.924 41.122C257.612 40.6713 257.456 40.0647 257.456 39.302C257.456 38.054 257.811 37.144 258.522 36.572C259.233 35.9827 260.221 35.688 261.486 35.688C262.422 35.688 263.202 35.7747 263.826 35.948C264.467 36.104 265.022 36.2947 265.49 36.52L264.996 38.236C264.597 38.0453 264.112 37.8807 263.54 37.742C262.985 37.586 262.387 37.508 261.746 37.508C260.983 37.508 260.42 37.638 260.056 37.898C259.709 38.158 259.536 38.6087 259.536 39.25C259.536 39.7007 259.692 40.056 260.004 40.316C260.316 40.5587 260.697 40.784 261.148 40.992C261.616 41.1827 262.119 41.3733 262.656 41.564C263.211 41.7547 263.713 42.006 264.164 42.318C264.632 42.63 265.022 43.0287 265.334 43.514C265.646 43.982 265.802 44.606 265.802 45.386C265.802 45.9407 265.707 46.4607 265.516 46.946C265.343 47.4313 265.065 47.8473 264.684 48.194C264.303 48.5407 263.826 48.8093 263.254 49C262.699 49.208 262.041 49.312 261.278 49.312C260.29 49.312 259.449 49.2167 258.756 49.026C258.063 48.8353 257.482 48.61 257.014 48.35L257.638 46.582C258.037 46.8073 258.557 47.0153 259.198 47.206C259.839 47.3967 260.489 47.492 261.148 47.492C261.893 47.492 262.509 47.3447 262.994 47.05C263.479 46.7553 263.722 46.2267 263.722 45.464ZM267.229 36H269.257V33.426L271.337 32.828V36H274.873V37.82H271.337V45.022C271.337 45.9233 271.45 46.5647 271.675 46.946C271.901 47.31 272.282 47.492 272.819 47.492C273.27 47.492 273.651 47.4487 273.963 47.362C274.275 47.258 274.622 47.128 275.003 46.972L275.471 48.558C275.003 48.7833 274.492 48.9653 273.937 49.104C273.383 49.2427 272.785 49.312 272.143 49.312C271.086 49.312 270.341 49.0173 269.907 48.428C269.474 47.8213 269.257 46.816 269.257 45.412V37.82H267.229V36ZM277.548 36.962C278.207 36.5633 278.969 36.2687 279.836 36.078C280.72 35.8873 281.639 35.792 282.592 35.792C283.493 35.792 284.213 35.9133 284.75 36.156C285.305 36.3987 285.721 36.7193 285.998 37.118C286.293 37.4993 286.483 37.924 286.57 38.392C286.674 38.86 286.726 39.328 286.726 39.796C286.726 40.836 286.7 41.85 286.648 42.838C286.596 43.826 286.57 44.762 286.57 45.646C286.57 46.2873 286.596 46.894 286.648 47.466C286.7 48.038 286.795 48.5667 286.934 49.052H285.4L284.854 47.232H284.724C284.568 47.4747 284.369 47.7173 284.126 47.96C283.901 48.1853 283.623 48.3933 283.294 48.584C282.965 48.7573 282.583 48.9047 282.15 49.026C281.717 49.1473 281.223 49.208 280.668 49.208C280.113 49.208 279.593 49.1213 279.108 48.948C278.64 48.7747 278.233 48.532 277.886 48.22C277.539 47.8907 277.262 47.5007 277.054 47.05C276.863 46.5993 276.768 46.088 276.768 45.516C276.768 44.7533 276.924 44.1207 277.236 43.618C277.548 43.098 277.981 42.6907 278.536 42.396C279.108 42.084 279.784 41.8673 280.564 41.746C281.361 41.6073 282.237 41.538 283.19 41.538C283.433 41.538 283.667 41.538 283.892 41.538C284.135 41.538 284.377 41.5553 284.62 41.59C284.672 41.07 284.698 40.602 284.698 40.186C284.698 39.2327 284.507 38.5653 284.126 38.184C283.745 37.8027 283.051 37.612 282.046 37.612C281.751 37.612 281.431 37.638 281.084 37.69C280.755 37.7247 280.408 37.7853 280.044 37.872C279.697 37.9413 279.359 38.0367 279.03 38.158C278.718 38.262 278.441 38.3833 278.198 38.522L277.548 36.962ZM281.24 47.388C281.725 47.388 282.159 47.3273 282.54 47.206C282.921 47.0673 283.251 46.9027 283.528 46.712C283.805 46.504 284.031 46.2787 284.204 46.036C284.395 45.7933 284.533 45.5593 284.62 45.334V43.176C284.377 43.1587 284.126 43.15 283.866 43.15C283.623 43.1327 283.381 43.124 283.138 43.124C282.601 43.124 282.072 43.1587 281.552 43.228C281.049 43.28 280.599 43.3927 280.2 43.566C279.819 43.722 279.507 43.9473 279.264 44.242C279.039 44.5193 278.926 44.8747 278.926 45.308C278.926 45.9147 279.143 46.4173 279.576 46.816C280.009 47.1973 280.564 47.388 281.24 47.388ZM296.79 38.002C296.27 37.8287 295.776 37.742 295.308 37.742C294.563 37.742 293.974 37.95 293.54 38.366C293.107 38.7647 292.838 39.276 292.734 39.9V49H290.654V36H292.11L292.5 37.586H292.604C292.934 36.9967 293.324 36.546 293.774 36.234C294.242 35.9047 294.832 35.74 295.542 35.74C296.045 35.74 296.608 35.8267 297.232 36L296.79 38.002ZM298.561 36H300.589V33.426L302.669 32.828V36H306.205V37.82H302.669V45.022C302.669 45.9233 302.782 46.5647 303.007 46.946C303.233 47.31 303.614 47.492 304.151 47.492C304.602 47.492 304.983 47.4487 305.295 47.362C305.607 47.258 305.954 47.128 306.335 46.972L306.803 48.558C306.335 48.7833 305.824 48.9653 305.269 49.104C304.715 49.2427 304.117 49.312 303.475 49.312C302.418 49.312 301.673 49.0173 301.239 48.428C300.806 47.8213 300.589 46.816 300.589 45.412V37.82H298.561V36ZM318.299 47.96C317.779 48.376 317.12 48.7053 316.323 48.948C315.543 49.1907 314.711 49.312 313.827 49.312C312.839 49.312 311.981 49.156 311.253 48.844C310.525 48.5147 309.927 48.0553 309.459 47.466C308.991 46.8593 308.644 46.14 308.419 45.308C308.193 44.476 308.081 43.54 308.081 42.5C308.081 40.2813 308.575 38.5913 309.563 37.43C310.551 36.2687 311.963 35.688 313.801 35.688C314.39 35.688 314.979 35.7573 315.569 35.896C316.158 36.0173 316.687 36.26 317.155 36.624C317.623 36.988 318.004 37.508 318.299 38.184C318.593 38.8427 318.741 39.718 318.741 40.81C318.741 41.382 318.689 42.0147 318.585 42.708H310.239C310.239 43.4707 310.317 44.1467 310.473 44.736C310.629 45.3253 310.871 45.828 311.201 46.244C311.53 46.6427 311.955 46.9547 312.475 47.18C313.012 47.388 313.662 47.492 314.425 47.492C315.014 47.492 315.603 47.388 316.193 47.18C316.782 46.972 317.224 46.7293 317.519 46.452L318.299 47.96ZM313.827 37.508C312.804 37.508 311.981 37.7767 311.357 38.314C310.75 38.8513 310.386 39.77 310.265 41.07H316.713C316.713 39.7527 316.461 38.834 315.959 38.314C315.456 37.7767 314.745 37.508 313.827 37.508ZM328.148 38.002C327.628 37.8287 327.134 37.742 326.666 37.742C325.92 37.742 325.331 37.95 324.898 38.366C324.464 38.7647 324.196 39.276 324.092 39.9V49H322.012V36H323.468L323.858 37.586H323.962C324.291 36.9967 324.681 36.546 325.132 36.234C325.6 35.9047 326.189 35.74 326.9 35.74C327.402 35.74 327.966 35.8267 328.59 36L328.148 38.002Z" fill="#0A083B"/>
<path d="M554.397 46C557.942 46 559.994 43.8011 559.994 40.1648C559.994 36.5455 557.942 34.3636 554.516 34.3636H550.63V46H554.397ZM552.386 44.4659V35.8977H554.408C556.954 35.8977 558.266 37.4205 558.266 40.1648C558.266 42.9205 556.954 44.4659 554.3 44.4659H552.386ZM565.802 46.1761C567.705 46.1761 569.052 45.2386 569.438 43.8182L567.83 43.5284C567.523 44.3523 566.785 44.7727 565.819 44.7727C564.364 44.7727 563.387 43.8295 563.342 42.1477H569.546V41.5455C569.546 38.392 567.66 37.1591 565.683 37.1591C563.251 37.1591 561.648 39.0114 561.648 41.6932C561.648 44.4034 563.228 46.1761 565.802 46.1761ZM563.347 40.875C563.415 39.6364 564.313 38.5625 565.694 38.5625C567.012 38.5625 567.876 39.5398 567.881 40.875H563.347ZM571.431 46H573.13V40.6193C573.13 39.4432 573.954 38.625 574.92 38.625C575.863 38.625 576.516 39.25 576.516 40.1989V46H578.21V40.4375C578.21 39.3864 578.852 38.625 579.96 38.625C580.857 38.625 581.596 39.125 581.596 40.3068V46H583.295V40.1477C583.295 38.1534 582.181 37.1591 580.602 37.1591C579.346 37.1591 578.403 37.7614 577.982 38.6932H577.891C577.511 37.7386 576.71 37.1591 575.545 37.1591C574.391 37.1591 573.533 37.733 573.17 38.6932H573.062V37.2727H571.431V46ZM589.248 46.1761C591.708 46.1761 593.316 44.375 593.316 41.6761C593.316 38.9602 591.708 37.1591 589.248 37.1591C586.788 37.1591 585.18 38.9602 585.18 41.6761C585.18 44.375 586.788 46.1761 589.248 46.1761ZM589.254 44.75C587.646 44.75 586.896 43.3466 586.896 41.6705C586.896 40 587.646 38.5795 589.254 38.5795C590.85 38.5795 591.6 40 591.6 41.6705C591.6 43.3466 590.85 44.75 589.254 44.75ZM601.752 39.4034C601.4 38.0455 600.337 37.1591 598.451 37.1591C596.479 37.1591 595.082 38.1989 595.082 39.7443C595.082 40.983 595.832 41.8068 597.468 42.1705L598.945 42.4943C599.786 42.6818 600.178 43.0568 600.178 43.6023C600.178 44.2784 599.457 44.8068 598.343 44.8068C597.326 44.8068 596.673 44.3693 596.468 43.5114L594.826 43.7614C595.11 45.3068 596.394 46.1761 598.354 46.1761C600.462 46.1761 601.923 45.0568 601.923 43.4773C601.923 42.2443 601.138 41.483 599.536 41.1136L598.15 40.7955C597.19 40.5682 596.775 40.2443 596.781 39.6534C596.775 38.983 597.502 38.5057 598.468 38.5057C599.525 38.5057 600.013 39.0909 600.212 39.6761L601.752 39.4034Z" fill="#175CFF"/>
<path d="M747.612 46H749.021V41.75H751.567C754.277 41.75 755.499 40.1023 755.499 38.0455C755.499 35.9886 754.277 34.3636 751.544 34.3636H747.612V46ZM749.021 40.5V35.6136H751.499C753.391 35.6136 754.112 36.6477 754.112 38.0455C754.112 39.4432 753.391 40.5 751.521 40.5H749.021ZM760.155 46.2045C761.678 46.2045 762.473 45.3864 762.746 44.8182H762.814V46H764.155V40.25C764.155 37.4773 762.041 37.1591 760.928 37.1591C759.609 37.1591 758.109 37.6136 757.428 39.2045L758.7 39.6591C758.996 39.0227 759.695 38.3409 760.973 38.3409C762.206 38.3409 762.814 38.9943 762.814 40.1136V40.1591C762.814 40.8068 762.155 40.75 760.564 40.9545C758.945 41.1648 757.178 41.5227 757.178 43.5227C757.178 45.2273 758.496 46.2045 760.155 46.2045ZM760.359 45C759.291 45 758.518 44.5227 758.518 43.5909C758.518 42.5682 759.45 42.25 760.496 42.1136C761.064 42.0455 762.587 41.8864 762.814 41.6136V42.8409C762.814 43.9318 761.95 45 760.359 45ZM770.125 49.4545C772.216 49.4545 773.898 48.5 773.898 46.25V37.2727H772.602V38.6591H772.466C772.17 38.2045 771.625 37.1591 769.92 37.1591C767.716 37.1591 766.193 38.9091 766.193 41.5909C766.193 44.3182 767.784 45.8636 769.898 45.8636C771.602 45.8636 772.148 44.8636 772.443 44.3864H772.557V46.1591C772.557 47.6136 771.534 48.2727 770.125 48.2727C768.54 48.2727 767.983 47.4375 767.625 46.9545L766.557 47.7045C767.102 48.6193 768.176 49.4545 770.125 49.4545ZM770.08 44.6591C768.398 44.6591 767.534 43.3864 767.534 41.5682C767.534 39.7955 768.375 38.3636 770.08 38.3636C771.716 38.3636 772.58 39.6818 772.58 41.5682C772.58 43.5 771.693 44.6591 770.08 44.6591ZM780.011 46.1818C781.784 46.1818 783.08 45.2955 783.489 43.9773L782.193 43.6136C781.852 44.5227 781.062 44.9773 780.011 44.9773C778.437 44.9773 777.352 43.9602 777.29 42.0909H783.625V41.5227C783.625 38.2727 781.693 37.1591 779.875 37.1591C777.511 37.1591 775.943 39.0227 775.943 41.7045C775.943 44.3864 777.489 46.1818 780.011 46.1818ZM777.29 40.9318C777.381 39.5739 778.341 38.3636 779.875 38.3636C781.33 38.3636 782.261 39.4545 782.261 40.9318H777.29ZM791.847 39.2273C791.426 37.9886 790.483 37.1591 788.756 37.1591C786.915 37.1591 785.551 38.2045 785.551 39.6818C785.551 40.8864 786.267 41.6932 787.869 42.0682L789.324 42.4091C790.205 42.6136 790.619 43.0341 790.619 43.6364C790.619 44.3864 789.824 45 788.574 45C787.477 45 786.79 44.5284 786.551 43.5909L785.278 43.9091C785.591 45.392 786.812 46.1818 788.597 46.1818C790.625 46.1818 792.006 45.0739 792.006 43.5682C792.006 42.3523 791.244 41.5852 789.687 41.2045L788.392 40.8864C787.358 40.6307 786.892 40.2841 786.892 39.6136C786.892 38.8636 787.687 38.3182 788.756 38.3182C789.926 38.3182 790.409 38.9659 790.642 39.5682L791.847 39.2273Z" fill="#57586E"/>
<path d="M797.94 37.7267L801 40.78L804.06 37.7267L805 38.6667L801 42.6667L797 38.6667L797.94 37.7267Z" fill="#57586E"/>
<path d="M654.038 38C653.607 35.6136 651.697 34.2045 649.357 34.2045C646.379 34.2045 644.22 36.5 644.22 40.1818C644.22 43.8636 646.379 46.1591 649.357 46.1591C651.697 46.1591 653.607 44.75 654.038 42.3636H652.629C652.288 43.9773 650.902 44.8409 649.357 44.8409C647.243 44.8409 645.584 43.2045 645.584 40.1818C645.584 37.1591 647.243 35.5227 649.357 35.5227C650.902 35.5227 652.288 36.3864 652.629 38H654.038ZM659.679 46.1818C662.043 46.1818 663.634 44.3864 663.634 41.6818C663.634 38.9545 662.043 37.1591 659.679 37.1591C657.315 37.1591 655.724 38.9545 655.724 41.6818C655.724 44.3864 657.315 46.1818 659.679 46.1818ZM659.679 44.9773C657.884 44.9773 657.065 43.4318 657.065 41.6818C657.065 39.9318 657.884 38.3636 659.679 38.3636C661.474 38.3636 662.293 39.9318 662.293 41.6818C662.293 43.4318 661.474 44.9773 659.679 44.9773ZM671.18 42.4318C671.18 44.0682 669.93 44.8182 668.93 44.8182C667.817 44.8182 667.021 44 667.021 42.7273V37.2727H665.68V42.8182C665.68 45.0455 666.862 46.1136 668.499 46.1136C669.817 46.1136 670.68 45.4091 671.089 44.5227H671.18V46H672.521V37.2727H671.18V42.4318ZM674.977 46H676.318V40.4773C676.318 39.2955 677.25 38.4318 678.523 38.4318C678.881 38.4318 679.25 38.5 679.341 38.5227V37.1591C679.187 37.1477 678.835 37.1364 678.636 37.1364C677.591 37.1364 676.682 37.7273 676.364 38.5909H676.273V37.2727H674.977V46ZM687.112 39.2273C686.692 37.9886 685.749 37.1591 684.021 37.1591C682.18 37.1591 680.817 38.2045 680.817 39.6818C680.817 40.8864 681.533 41.6932 683.135 42.0682L684.589 42.4091C685.47 42.6136 685.885 43.0341 685.885 43.6364C685.885 44.3864 685.089 45 683.839 45C682.743 45 682.055 44.5284 681.817 43.5909L680.544 43.9091C680.857 45.392 682.078 46.1818 683.862 46.1818C685.891 46.1818 687.271 45.0739 687.271 43.5682C687.271 42.3523 686.51 41.5852 684.953 41.2045L683.658 40.8864C682.624 40.6307 682.158 40.2841 682.158 39.6136C682.158 38.8636 682.953 38.3182 684.021 38.3182C685.192 38.3182 685.675 38.9659 685.908 39.5682L687.112 39.2273ZM692.949 46.1818C694.722 46.1818 696.017 45.2955 696.426 43.9773L695.131 43.6136C694.79 44.5227 694 44.9773 692.949 44.9773C691.375 44.9773 690.29 43.9602 690.227 42.0909H696.562V41.5227C696.562 38.2727 694.631 37.1591 692.812 37.1591C690.449 37.1591 688.881 39.0227 688.881 41.7045C688.881 44.3864 690.426 46.1818 692.949 46.1818ZM690.227 40.9318C690.318 39.5739 691.278 38.3636 692.812 38.3636C694.267 38.3636 695.199 39.4545 695.199 40.9318H690.227ZM704.784 39.2273C704.364 37.9886 703.42 37.1591 701.693 37.1591C699.852 37.1591 698.489 38.2045 698.489 39.6818C698.489 40.8864 699.205 41.6932 700.807 42.0682L702.261 42.4091C703.142 42.6136 703.557 43.0341 703.557 43.6364C703.557 44.3864 702.761 45 701.511 45C700.415 45 699.727 44.5284 699.489 43.5909L698.216 43.9091C698.528 45.392 699.75 46.1818 701.534 46.1818C703.562 46.1818 704.943 45.0739 704.943 43.5682C704.943 42.3523 704.182 41.5852 702.625 41.2045L701.33 40.8864C700.295 40.6307 699.83 40.2841 699.83 39.6136C699.83 38.8636 700.625 38.3182 701.693 38.3182C702.864 38.3182 703.347 38.9659 703.58 39.5682L704.784 39.2273Z" fill="#57586E"/>
<path d="M850.479 46H854.684C857.434 46 858.57 44.6591 858.57 42.9091C858.57 41.0682 857.298 40.0682 856.229 40V39.8864C857.229 39.6136 858.116 38.9545 858.116 37.4545C858.116 35.75 856.979 34.3636 854.548 34.3636H850.479V46ZM851.888 44.75V40.7045H854.752C856.275 40.7045 857.229 41.7273 857.229 42.9091C857.229 43.9318 856.525 44.75 854.684 44.75H851.888ZM851.888 39.4773V35.6136H854.548C856.093 35.6136 856.775 36.4318 856.775 37.4545C856.775 38.6818 855.775 39.4773 854.502 39.4773H851.888ZM862.045 34.3636H860.704V46H862.045V34.3636ZM868.046 46.1818C870.41 46.1818 872.001 44.3864 872.001 41.6818C872.001 38.9545 870.41 37.1591 868.046 37.1591C865.683 37.1591 864.092 38.9545 864.092 41.6818C864.092 44.3864 865.683 46.1818 868.046 46.1818ZM868.046 44.9773C866.251 44.9773 865.433 43.4318 865.433 41.6818C865.433 39.9318 866.251 38.3636 868.046 38.3636C869.842 38.3636 870.66 39.9318 870.66 41.6818C870.66 43.4318 869.842 44.9773 868.046 44.9773ZM877.57 49.4545C879.661 49.4545 881.343 48.5 881.343 46.25V37.2727H880.048V38.6591H879.911C879.616 38.2045 879.07 37.1591 877.366 37.1591C875.161 37.1591 873.638 38.9091 873.638 41.5909C873.638 44.3182 875.229 45.8636 877.343 45.8636C879.048 45.8636 879.593 44.8636 879.888 44.3864H880.002V46.1591C880.002 47.6136 878.979 48.2727 877.57 48.2727C875.985 48.2727 875.428 47.4375 875.07 46.9545L874.002 47.7045C874.548 48.6193 875.621 49.4545 877.57 49.4545ZM877.525 44.6591C875.843 44.6591 874.979 43.3864 874.979 41.5682C874.979 39.7955 875.82 38.3636 877.525 38.3636C879.161 38.3636 880.025 39.6818 880.025 41.5682C880.025 43.5 879.138 44.6591 877.525 44.6591ZM889.979 39.2273C889.559 37.9886 888.616 37.1591 886.888 37.1591C885.048 37.1591 883.684 38.2045 883.684 39.6818C883.684 40.8864 884.4 41.6932 886.002 42.0682L887.457 42.4091C888.337 42.6136 888.752 43.0341 888.752 43.6364C888.752 44.3864 887.957 45 886.707 45C885.61 45 884.923 44.5284 884.684 43.5909L883.411 43.9091C883.724 45.392 884.945 46.1818 886.729 46.1818C888.758 46.1818 890.138 45.0739 890.138 43.5682C890.138 42.3523 889.377 41.5852 887.82 41.2045L886.525 40.8864C885.491 40.6307 885.025 40.2841 885.025 39.6136C885.025 38.8636 885.82 38.3182 886.888 38.3182C888.059 38.3182 888.542 38.9659 888.775 39.5682L889.979 39.2273Z" fill="#57586E"/>
<line x1="551" y1="57" x2="577" y2="57" stroke="#175CFF" stroke-width="2" stroke-linecap="round" stroke-linejoin="round"/>
<rect x="1115.7" y="20.4367" width="158.6" height="41.7501" rx="20.875" stroke="#175CFF" stroke-width="1.4"/>
<path d="M1159.84 39.0899H1161.98C1161.63 36.8058 1159.65 35.2149 1157.07 35.2149C1154.03 35.2149 1151.74 37.4536 1151.74 41.2036C1151.74 44.8854 1153.93 47.1695 1157.14 47.1695C1160.02 47.1695 1162.08 45.3172 1162.08 42.3172V40.9195H1157.36V42.5672H1160.04C1160.01 44.2263 1158.9 45.2774 1157.15 45.2774C1155.2 45.2774 1153.86 43.8172 1153.86 41.1808C1153.86 38.5615 1155.22 37.107 1157.1 37.107C1158.51 37.107 1159.46 37.857 1159.84 39.0899ZM1167.89 47.1808C1169.92 47.1808 1171.32 46.1865 1171.69 44.6695L1169.77 44.4536C1169.49 45.1922 1168.81 45.5786 1167.92 45.5786C1166.59 45.5786 1165.71 44.7036 1165.69 43.2092H1171.77V42.5786C1171.77 39.5161 1169.93 38.1695 1167.78 38.1695C1165.28 38.1695 1163.65 40.0047 1163.65 42.6979C1163.65 45.4365 1165.26 47.1808 1167.89 47.1808ZM1165.7 41.8229C1165.76 40.7092 1166.58 39.7717 1167.81 39.7717C1168.99 39.7717 1169.79 40.6354 1169.8 41.8229H1165.7ZM1177.87 38.2831H1176.15V36.1922H1174.09V38.2831H1172.85V39.874H1174.09V44.7263C1174.08 46.3683 1175.27 47.1751 1176.82 47.1297C1177.4 47.1126 1177.81 46.999 1178.03 46.9251L1177.68 45.3172C1177.57 45.3456 1177.34 45.3967 1177.08 45.3967C1176.56 45.3967 1176.15 45.2149 1176.15 44.3854V39.874H1177.87V38.2831ZM1190.46 40.5899C1190.17 39.1126 1188.99 38.1695 1186.94 38.1695C1184.84 38.1695 1183.41 39.2036 1183.42 40.8172C1183.41 42.0899 1184.19 42.9308 1185.87 43.2774L1187.36 43.5899C1188.16 43.7661 1188.54 44.0899 1188.54 44.5842C1188.54 45.1808 1187.89 45.6297 1186.91 45.6297C1185.97 45.6297 1185.35 45.2206 1185.18 44.4365L1183.17 44.6297C1183.43 46.232 1184.77 47.1808 1186.92 47.1808C1189.1 47.1808 1190.64 46.0501 1190.64 44.3967C1190.64 43.1524 1189.84 42.3911 1188.19 42.0331L1186.7 41.7149C1185.81 41.5161 1185.46 41.2092 1185.47 40.7036C1185.46 40.1126 1186.12 39.7036 1186.97 39.7036C1187.92 39.7036 1188.42 40.2206 1188.58 40.7945L1190.46 40.5899ZM1196.7 38.2831H1194.98V36.1922H1192.92V38.2831H1191.68V39.874H1192.92V44.7263C1192.91 46.3683 1194.1 47.1751 1195.65 47.1297C1196.23 47.1126 1196.63 46.999 1196.86 46.9251L1196.51 45.3172C1196.4 45.3456 1196.16 45.3967 1195.91 45.3967C1195.39 45.3967 1194.98 45.2149 1194.98 44.3854V39.874H1196.7V38.2831ZM1200.93 47.1865C1202.3 47.1865 1203.12 46.5445 1203.49 45.8115H1203.56V47.0104H1205.54V41.1695C1205.54 38.8626 1203.66 38.1695 1201.99 38.1695C1200.16 38.1695 1198.75 38.9876 1198.29 40.5786L1200.21 40.8513C1200.42 40.2547 1201 39.7433 1202 39.7433C1202.96 39.7433 1203.48 40.232 1203.48 41.0899V41.124C1203.48 41.7149 1202.86 41.7433 1201.32 41.9081C1199.63 42.0899 1198.01 42.5956 1198.01 44.5615C1198.01 46.2774 1199.26 47.1865 1200.93 47.1865ZM1201.46 45.6751C1200.61 45.6751 1199.99 45.2831 1199.99 44.5274C1199.99 43.7376 1200.68 43.4081 1201.6 43.2774C1202.14 43.2036 1203.22 43.0672 1203.49 42.8513V43.8797C1203.49 44.8513 1202.7 45.6751 1201.46 45.6751ZM1207.61 47.0104H1209.66V41.8797C1209.66 40.7717 1210.5 39.9876 1211.63 39.9876C1211.97 39.9876 1212.41 40.0501 1212.58 40.107V38.2149C1212.39 38.1808 1212.07 38.1581 1211.84 38.1581C1210.84 38.1581 1210.01 38.7263 1209.69 39.7376H1209.6V38.2831H1207.61V47.0104ZM1218.78 38.2831H1217.05V36.1922H1215V38.2831H1213.76V39.874H1215V44.7263C1214.99 46.3683 1216.18 47.1751 1217.72 47.1297C1218.31 47.1126 1218.71 46.999 1218.93 46.9251L1218.59 45.3172C1218.47 45.3456 1218.24 45.3967 1217.99 45.3967C1217.47 45.3967 1217.05 45.2149 1217.05 44.3854V39.874H1218.78V38.2831ZM1224.27 47.1808C1226.3 47.1808 1227.7 46.1865 1228.06 44.6695L1226.14 44.4536C1225.86 45.1922 1225.18 45.5786 1224.29 45.5786C1222.96 45.5786 1222.08 44.7036 1222.07 43.2092H1228.15V42.5786C1228.15 39.5161 1226.31 38.1695 1224.16 38.1695C1221.66 38.1695 1220.03 40.0047 1220.03 42.6979C1220.03 45.4365 1221.63 47.1808 1224.27 47.1808ZM1222.07 41.8229C1222.13 40.7092 1222.96 39.7717 1224.19 39.7717C1225.37 39.7717 1226.16 40.6354 1226.17 41.8229H1222.07ZM1233.13 47.1638C1234.63 47.1638 1235.3 46.2717 1235.63 45.6354H1235.75V47.0104H1237.77V35.374H1235.71V39.7263H1235.63C1235.31 39.0956 1234.67 38.1695 1233.13 38.1695C1231.11 38.1695 1229.53 39.749 1229.53 42.6581C1229.53 45.5331 1231.07 47.1638 1233.13 47.1638ZM1233.7 45.4763C1232.34 45.4763 1231.63 44.2831 1231.63 42.6467C1231.63 41.0217 1232.33 39.857 1233.7 39.857C1235.02 39.857 1235.75 40.9536 1235.75 42.6467C1235.75 44.3399 1235.01 45.4763 1233.7 45.4763Z" fill="#175CFF"/>
<defs>
<clipPath id="clip0">
<rect width="24" height="23" fill="white" transform="translate(165 31.3044)"/>
</clipPath>
</defs>
</svg>
