<svg width="1440" height="72" viewBox="0 0 1440 72" fill="none" xmlns="http://www.w3.org/2000/svg">
<rect width="1440" height="72" fill="white"/>
<g clip-path="url(#clip0)">
<path d="M176.242 41.543C176.31 41.9113 176.565 42.2512 176.938 42.2842C177.468 42.331 177.736 42.0443 177.842 41.204C178.497 35.9723 182.848 32.3801 187.83 32.814C188.626 32.8864 188.977 33.1033 188.977 34.0195C189 36.8161 188.953 39.5646 187.713 42.1442C185.304 47.2071 180.228 50.0279 175.152 49.1358C169.936 48.2438 165.749 43.6872 165.14 38.1662C165 36.8161 165.094 35.4419 165 34.0677C164.953 33.1516 165.351 32.9105 166.146 32.8381C170.942 32.4042 175.269 35.8277 176.088 40.7459C176.141 41.0178 176.193 41.2821 176.242 41.543ZM185.023 38.1421C185.07 37.1295 184.322 36.2616 183.363 36.1893C182.38 36.117 181.538 36.8643 181.444 37.8769C181.351 38.9618 182.123 39.8539 183.152 39.878C184.135 39.9262 184.953 39.1547 185.023 38.1421ZM170.801 39.9021C171.784 39.9021 172.579 39.0824 172.602 38.0698C172.626 37.009 171.76 36.1652 170.731 36.2134C169.749 36.2616 169 37.0813 169.023 38.118C169.023 39.1306 169.795 39.9262 170.801 39.9021Z" fill="#175CFF"/>
<path d="M177.023 38.0696C174.474 33.0067 170.591 30.7887 165.164 31.3191C165.164 29.7038 165.164 28.1367 165.164 26.3768C173.047 29.1493 180.907 29.1493 188.836 26.3044C188.836 28.0162 188.836 29.5833 188.836 31.295C186.333 31.0057 183.994 31.3432 181.819 32.5728C179.643 33.8023 178.123 35.6587 177.023 38.0696Z" fill="#0B3DB4"/>
</g>
<path d="M197.13 31H198.924V28.556L202.304 27.594V31H205.476V33.86H202.304V38.852C202.304 39.7533 202.391 40.4033 202.564 40.802C202.755 41.1833 203.101 41.374 203.604 41.374C203.951 41.374 204.245 41.3393 204.488 41.27C204.748 41.2007 205.034 41.0967 205.346 40.958L205.944 43.558C205.476 43.7833 204.93 43.974 204.306 44.13C203.682 44.286 203.049 44.364 202.408 44.364C201.212 44.364 200.328 44.0607 199.756 43.454C199.201 42.83 198.924 41.816 198.924 40.412V33.86H197.13V31ZM210.796 31V38.384C210.796 39.4413 210.918 40.204 211.16 40.672C211.42 41.14 211.914 41.374 212.642 41.374C213.284 41.374 213.812 41.1833 214.228 40.802C214.662 40.4207 214.982 39.9527 215.19 39.398V31H218.57V40.048C218.57 40.7587 218.605 41.4607 218.674 42.154C218.744 42.83 218.848 43.4453 218.986 44H216.438L215.84 42.076H215.736C215.338 42.7347 214.783 43.2807 214.072 43.714C213.362 44.1473 212.521 44.364 211.55 44.364C210.892 44.364 210.302 44.2773 209.782 44.104C209.262 43.9307 208.829 43.6447 208.482 43.246C208.136 42.8473 207.867 42.31 207.676 41.634C207.503 40.958 207.416 40.1087 207.416 39.086V31H210.796ZM220.185 31H221.979V28.556L225.359 27.594V31H228.531V33.86H225.359V38.852C225.359 39.7533 225.445 40.4033 225.619 40.802C225.809 41.1833 226.156 41.374 226.659 41.374C227.005 41.374 227.3 41.3393 227.543 41.27C227.803 41.2007 228.089 41.0967 228.401 40.958L228.999 43.558C228.531 43.7833 227.985 43.974 227.361 44.13C226.737 44.286 226.104 44.364 225.463 44.364C224.267 44.364 223.383 44.0607 222.811 43.454C222.256 42.83 221.979 41.816 221.979 40.412V33.86H220.185V31ZM229.85 37.5C229.85 35.2987 230.388 33.6087 231.462 32.43C232.537 31.234 234.045 30.636 235.986 30.636C237.026 30.636 237.928 30.8007 238.69 31.13C239.453 31.4593 240.086 31.9273 240.588 32.534C241.091 33.1233 241.464 33.8427 241.706 34.692C241.966 35.5413 242.096 36.4773 242.096 37.5C242.096 39.7013 241.559 41.4 240.484 42.596C239.427 43.7747 237.928 44.364 235.986 44.364C234.946 44.364 234.045 44.1993 233.282 43.87C232.52 43.5407 231.878 43.0813 231.358 42.492C230.856 41.8853 230.474 41.1573 230.214 40.308C229.972 39.4587 229.85 38.5227 229.85 37.5ZM233.334 37.5C233.334 38.072 233.386 38.6007 233.49 39.086C233.594 39.5713 233.75 39.996 233.958 40.36C234.166 40.724 234.435 41.01 234.764 41.218C235.111 41.4087 235.518 41.504 235.986 41.504C236.87 41.504 237.529 41.1833 237.962 40.542C238.396 39.9007 238.612 38.8867 238.612 37.5C238.612 36.304 238.413 35.342 238.014 34.614C237.616 33.8687 236.94 33.496 235.986 33.496C235.154 33.496 234.504 33.808 234.036 34.432C233.568 35.056 233.334 36.0787 233.334 37.5ZM251.615 34.172C251.078 33.9813 250.592 33.886 250.159 33.886C249.552 33.886 249.041 34.0507 248.625 34.38C248.226 34.692 247.958 35.0993 247.819 35.602V44H244.439V31H247.065L247.455 32.716H247.559C247.854 32.0747 248.252 31.5807 248.755 31.234C249.258 30.8873 249.847 30.714 250.523 30.714C250.974 30.714 251.485 30.8093 252.057 31L251.615 34.172Z" fill="#0A083B"/>
<path d="M263.722 40.464C263.722 39.944 263.566 39.5367 263.254 39.242C262.942 38.9473 262.552 38.7047 262.084 38.514C261.633 38.306 261.131 38.1153 260.576 37.942C260.039 37.7513 259.536 37.5173 259.068 37.24C258.617 36.9453 258.236 36.5727 257.924 36.122C257.612 35.6713 257.456 35.0647 257.456 34.302C257.456 33.054 257.811 32.144 258.522 31.572C259.233 30.9827 260.221 30.688 261.486 30.688C262.422 30.688 263.202 30.7747 263.826 30.948C264.467 31.104 265.022 31.2947 265.49 31.52L264.996 33.236C264.597 33.0453 264.112 32.8807 263.54 32.742C262.985 32.586 262.387 32.508 261.746 32.508C260.983 32.508 260.42 32.638 260.056 32.898C259.709 33.158 259.536 33.6087 259.536 34.25C259.536 34.7007 259.692 35.056 260.004 35.316C260.316 35.5587 260.697 35.784 261.148 35.992C261.616 36.1827 262.119 36.3733 262.656 36.564C263.211 36.7547 263.713 37.006 264.164 37.318C264.632 37.63 265.022 38.0287 265.334 38.514C265.646 38.982 265.802 39.606 265.802 40.386C265.802 40.9407 265.707 41.4607 265.516 41.946C265.343 42.4313 265.065 42.8473 264.684 43.194C264.303 43.5407 263.826 43.8093 263.254 44C262.699 44.208 262.041 44.312 261.278 44.312C260.29 44.312 259.449 44.2167 258.756 44.026C258.063 43.8353 257.482 43.61 257.014 43.35L257.638 41.582C258.037 41.8073 258.557 42.0153 259.198 42.206C259.839 42.3967 260.489 42.492 261.148 42.492C261.893 42.492 262.509 42.3447 262.994 42.05C263.479 41.7553 263.722 41.2267 263.722 40.464ZM267.229 31H269.257V28.426L271.337 27.828V31H274.873V32.82H271.337V40.022C271.337 40.9233 271.45 41.5647 271.675 41.946C271.901 42.31 272.282 42.492 272.819 42.492C273.27 42.492 273.651 42.4487 273.963 42.362C274.275 42.258 274.622 42.128 275.003 41.972L275.471 43.558C275.003 43.7833 274.492 43.9653 273.937 44.104C273.383 44.2427 272.785 44.312 272.143 44.312C271.086 44.312 270.341 44.0173 269.907 43.428C269.474 42.8213 269.257 41.816 269.257 40.412V32.82H267.229V31ZM277.548 31.962C278.207 31.5633 278.969 31.2687 279.836 31.078C280.72 30.8873 281.639 30.792 282.592 30.792C283.493 30.792 284.213 30.9133 284.75 31.156C285.305 31.3987 285.721 31.7193 285.998 32.118C286.293 32.4993 286.483 32.924 286.57 33.392C286.674 33.86 286.726 34.328 286.726 34.796C286.726 35.836 286.7 36.85 286.648 37.838C286.596 38.826 286.57 39.762 286.57 40.646C286.57 41.2873 286.596 41.894 286.648 42.466C286.7 43.038 286.795 43.5667 286.934 44.052H285.4L284.854 42.232H284.724C284.568 42.4747 284.369 42.7173 284.126 42.96C283.901 43.1853 283.623 43.3933 283.294 43.584C282.965 43.7573 282.583 43.9047 282.15 44.026C281.717 44.1473 281.223 44.208 280.668 44.208C280.113 44.208 279.593 44.1213 279.108 43.948C278.64 43.7747 278.233 43.532 277.886 43.22C277.539 42.8907 277.262 42.5007 277.054 42.05C276.863 41.5993 276.768 41.088 276.768 40.516C276.768 39.7533 276.924 39.1207 277.236 38.618C277.548 38.098 277.981 37.6907 278.536 37.396C279.108 37.084 279.784 36.8673 280.564 36.746C281.361 36.6073 282.237 36.538 283.19 36.538C283.433 36.538 283.667 36.538 283.892 36.538C284.135 36.538 284.377 36.5553 284.62 36.59C284.672 36.07 284.698 35.602 284.698 35.186C284.698 34.2327 284.507 33.5653 284.126 33.184C283.745 32.8027 283.051 32.612 282.046 32.612C281.751 32.612 281.431 32.638 281.084 32.69C280.755 32.7247 280.408 32.7853 280.044 32.872C279.697 32.9413 279.359 33.0367 279.03 33.158C278.718 33.262 278.441 33.3833 278.198 33.522L277.548 31.962ZM281.24 42.388C281.725 42.388 282.159 42.3273 282.54 42.206C282.921 42.0673 283.251 41.9027 283.528 41.712C283.805 41.504 284.031 41.2787 284.204 41.036C284.395 40.7933 284.533 40.5593 284.62 40.334V38.176C284.377 38.1587 284.126 38.15 283.866 38.15C283.623 38.1327 283.381 38.124 283.138 38.124C282.601 38.124 282.072 38.1587 281.552 38.228C281.049 38.28 280.599 38.3927 280.2 38.566C279.819 38.722 279.507 38.9473 279.264 39.242C279.039 39.5193 278.926 39.8747 278.926 40.308C278.926 40.9147 279.143 41.4173 279.576 41.816C280.009 42.1973 280.564 42.388 281.24 42.388ZM296.79 33.002C296.27 32.8287 295.776 32.742 295.308 32.742C294.563 32.742 293.974 32.95 293.54 33.366C293.107 33.7647 292.838 34.276 292.734 34.9V44H290.654V31H292.11L292.5 32.586H292.604C292.934 31.9967 293.324 31.546 293.774 31.234C294.242 30.9047 294.832 30.74 295.542 30.74C296.045 30.74 296.608 30.8267 297.232 31L296.79 33.002ZM298.561 31H300.589V28.426L302.669 27.828V31H306.205V32.82H302.669V40.022C302.669 40.9233 302.782 41.5647 303.007 41.946C303.233 42.31 303.614 42.492 304.151 42.492C304.602 42.492 304.983 42.4487 305.295 42.362C305.607 42.258 305.954 42.128 306.335 41.972L306.803 43.558C306.335 43.7833 305.824 43.9653 305.269 44.104C304.715 44.2427 304.117 44.312 303.475 44.312C302.418 44.312 301.673 44.0173 301.239 43.428C300.806 42.8213 300.589 41.816 300.589 40.412V32.82H298.561V31ZM318.299 42.96C317.779 43.376 317.12 43.7053 316.323 43.948C315.543 44.1907 314.711 44.312 313.827 44.312C312.839 44.312 311.981 44.156 311.253 43.844C310.525 43.5147 309.927 43.0553 309.459 42.466C308.991 41.8593 308.644 41.14 308.419 40.308C308.193 39.476 308.081 38.54 308.081 37.5C308.081 35.2813 308.575 33.5913 309.563 32.43C310.551 31.2687 311.963 30.688 313.801 30.688C314.39 30.688 314.979 30.7573 315.569 30.896C316.158 31.0173 316.687 31.26 317.155 31.624C317.623 31.988 318.004 32.508 318.299 33.184C318.593 33.8427 318.741 34.718 318.741 35.81C318.741 36.382 318.689 37.0147 318.585 37.708H310.239C310.239 38.4707 310.317 39.1467 310.473 39.736C310.629 40.3253 310.871 40.828 311.201 41.244C311.53 41.6427 311.955 41.9547 312.475 42.18C313.012 42.388 313.662 42.492 314.425 42.492C315.014 42.492 315.603 42.388 316.193 42.18C316.782 41.972 317.224 41.7293 317.519 41.452L318.299 42.96ZM313.827 32.508C312.804 32.508 311.981 32.7767 311.357 33.314C310.75 33.8513 310.386 34.77 310.265 36.07H316.713C316.713 34.7527 316.461 33.834 315.959 33.314C315.456 32.7767 314.745 32.508 313.827 32.508ZM328.148 33.002C327.628 32.8287 327.134 32.742 326.666 32.742C325.92 32.742 325.331 32.95 324.898 33.366C324.464 33.7647 324.196 34.276 324.092 34.9V44H322.012V31H323.468L323.858 32.586H323.962C324.291 31.9967 324.681 31.546 325.132 31.234C325.6 30.9047 326.189 30.74 326.9 30.74C327.402 30.74 327.966 30.8267 328.59 31L328.148 33.002Z" fill="#0A083B"/>
<path d="M756.397 42C759.942 42 761.994 39.8011 761.994 36.1648C761.994 32.5455 759.942 30.3636 756.516 30.3636H752.63V42H756.397ZM754.386 40.4659V31.8977H756.408C758.954 31.8977 760.266 33.4205 760.266 36.1648C760.266 38.9205 758.954 40.4659 756.3 40.4659H754.386ZM767.802 42.1761C769.705 42.1761 771.052 41.2386 771.438 39.8182L769.83 39.5284C769.523 40.3523 768.785 40.7727 767.819 40.7727C766.364 40.7727 765.387 39.8295 765.342 38.1477H771.546V37.5455C771.546 34.392 769.66 33.1591 767.683 33.1591C765.251 33.1591 763.648 35.0114 763.648 37.6932C763.648 40.4034 765.228 42.1761 767.802 42.1761ZM765.347 36.875C765.415 35.6364 766.313 34.5625 767.694 34.5625C769.012 34.5625 769.876 35.5398 769.881 36.875H765.347ZM773.431 42H775.13V36.6193C775.13 35.4432 775.954 34.625 776.92 34.625C777.863 34.625 778.516 35.25 778.516 36.1989V42H780.21V36.4375C780.21 35.3864 780.852 34.625 781.96 34.625C782.857 34.625 783.596 35.125 783.596 36.3068V42H785.295V36.1477C785.295 34.1534 784.181 33.1591 782.602 33.1591C781.346 33.1591 780.403 33.7614 779.982 34.6932H779.891C779.511 33.7386 778.71 33.1591 777.545 33.1591C776.391 33.1591 775.533 33.733 775.17 34.6932H775.062V33.2727H773.431V42ZM791.248 42.1761C793.708 42.1761 795.316 40.375 795.316 37.6761C795.316 34.9602 793.708 33.1591 791.248 33.1591C788.788 33.1591 787.18 34.9602 787.18 37.6761C787.18 40.375 788.788 42.1761 791.248 42.1761ZM791.254 40.75C789.646 40.75 788.896 39.3466 788.896 37.6705C788.896 36 789.646 34.5795 791.254 34.5795C792.85 34.5795 793.6 36 793.6 37.6705C793.6 39.3466 792.85 40.75 791.254 40.75ZM803.752 35.4034C803.4 34.0455 802.337 33.1591 800.451 33.1591C798.479 33.1591 797.082 34.1989 797.082 35.7443C797.082 36.983 797.832 37.8068 799.468 38.1705L800.945 38.4943C801.786 38.6818 802.178 39.0568 802.178 39.6023C802.178 40.2784 801.457 40.8068 800.343 40.8068C799.326 40.8068 798.673 40.3693 798.468 39.5114L796.826 39.7614C797.11 41.3068 798.394 42.1761 800.354 42.1761C802.462 42.1761 803.923 41.0568 803.923 39.4773C803.923 38.2443 803.138 37.483 801.536 37.1136L800.15 36.7955C799.19 36.5682 798.775 36.2443 798.781 35.6534C798.775 34.983 799.502 34.5057 800.468 34.5057C801.525 34.5057 802.013 35.0909 802.212 35.6761L803.752 35.4034Z" fill="#0A083B"/>
<path d="M949.612 42H951.021V37.75H953.567C956.277 37.75 957.499 36.1023 957.499 34.0455C957.499 31.9886 956.277 30.3636 953.544 30.3636H949.612V42ZM951.021 36.5V31.6136H953.499C955.391 31.6136 956.112 32.6477 956.112 34.0455C956.112 35.4432 955.391 36.5 953.521 36.5H951.021ZM962.155 42.2045C963.678 42.2045 964.473 41.3864 964.746 40.8182H964.814V42H966.155V36.25C966.155 33.4773 964.041 33.1591 962.928 33.1591C961.609 33.1591 960.109 33.6136 959.428 35.2045L960.7 35.6591C960.996 35.0227 961.695 34.3409 962.973 34.3409C964.206 34.3409 964.814 34.9943 964.814 36.1136V36.1591C964.814 36.8068 964.155 36.75 962.564 36.9545C960.945 37.1648 959.178 37.5227 959.178 39.5227C959.178 41.2273 960.496 42.2045 962.155 42.2045ZM962.359 41C961.291 41 960.518 40.5227 960.518 39.5909C960.518 38.5682 961.45 38.25 962.496 38.1136C963.064 38.0455 964.587 37.8864 964.814 37.6136V38.8409C964.814 39.9318 963.95 41 962.359 41ZM972.125 45.4545C974.216 45.4545 975.898 44.5 975.898 42.25V33.2727H974.602V34.6591H974.466C974.17 34.2045 973.625 33.1591 971.92 33.1591C969.716 33.1591 968.193 34.9091 968.193 37.5909C968.193 40.3182 969.784 41.8636 971.898 41.8636C973.602 41.8636 974.148 40.8636 974.443 40.3864H974.557V42.1591C974.557 43.6136 973.534 44.2727 972.125 44.2727C970.54 44.2727 969.983 43.4375 969.625 42.9545L968.557 43.7045C969.102 44.6193 970.176 45.4545 972.125 45.4545ZM972.08 40.6591C970.398 40.6591 969.534 39.3864 969.534 37.5682C969.534 35.7955 970.375 34.3636 972.08 34.3636C973.716 34.3636 974.58 35.6818 974.58 37.5682C974.58 39.5 973.693 40.6591 972.08 40.6591ZM982.011 42.1818C983.784 42.1818 985.08 41.2955 985.489 39.9773L984.193 39.6136C983.852 40.5227 983.062 40.9773 982.011 40.9773C980.437 40.9773 979.352 39.9602 979.29 38.0909H985.625V37.5227C985.625 34.2727 983.693 33.1591 981.875 33.1591C979.511 33.1591 977.943 35.0227 977.943 37.7045C977.943 40.3864 979.489 42.1818 982.011 42.1818ZM979.29 36.9318C979.381 35.5739 980.341 34.3636 981.875 34.3636C983.33 34.3636 984.261 35.4545 984.261 36.9318H979.29ZM993.847 35.2273C993.426 33.9886 992.483 33.1591 990.756 33.1591C988.915 33.1591 987.551 34.2045 987.551 35.6818C987.551 36.8864 988.267 37.6932 989.869 38.0682L991.324 38.4091C992.205 38.6136 992.619 39.0341 992.619 39.6364C992.619 40.3864 991.824 41 990.574 41C989.477 41 988.79 40.5284 988.551 39.5909L987.278 39.9091C987.591 41.392 988.812 42.1818 990.597 42.1818C992.625 42.1818 994.006 41.0739 994.006 39.5682C994.006 38.3523 993.244 37.5852 991.687 37.2045L990.392 36.8864C989.358 36.6307 988.892 36.2841 988.892 35.6136C988.892 34.8636 989.687 34.3182 990.756 34.3182C991.926 34.3182 992.409 34.9659 992.642 35.5682L993.847 35.2273Z" fill="#0A083B"/>
<path d="M1003.94 35.7267L1007 38.78L1010.06 35.7267L1011 36.6667L1007 40.6667L1003 36.6667L1003.94 35.7267Z" fill="#0A083B"/>
<path d="M856.038 34C855.607 31.6136 853.697 30.2045 851.357 30.2045C848.379 30.2045 846.22 32.5 846.22 36.1818C846.22 39.8636 848.379 42.1591 851.357 42.1591C853.697 42.1591 855.607 40.75 856.038 38.3636H854.629C854.288 39.9773 852.902 40.8409 851.357 40.8409C849.243 40.8409 847.584 39.2045 847.584 36.1818C847.584 33.1591 849.243 31.5227 851.357 31.5227C852.902 31.5227 854.288 32.3864 854.629 34H856.038ZM861.679 42.1818C864.043 42.1818 865.634 40.3864 865.634 37.6818C865.634 34.9545 864.043 33.1591 861.679 33.1591C859.315 33.1591 857.724 34.9545 857.724 37.6818C857.724 40.3864 859.315 42.1818 861.679 42.1818ZM861.679 40.9773C859.884 40.9773 859.065 39.4318 859.065 37.6818C859.065 35.9318 859.884 34.3636 861.679 34.3636C863.474 34.3636 864.293 35.9318 864.293 37.6818C864.293 39.4318 863.474 40.9773 861.679 40.9773ZM873.18 38.4318C873.18 40.0682 871.93 40.8182 870.93 40.8182C869.817 40.8182 869.021 40 869.021 38.7273V33.2727H867.68V38.8182C867.68 41.0455 868.862 42.1136 870.499 42.1136C871.817 42.1136 872.68 41.4091 873.089 40.5227H873.18V42H874.521V33.2727H873.18V38.4318ZM876.977 42H878.318V36.4773C878.318 35.2955 879.25 34.4318 880.523 34.4318C880.881 34.4318 881.25 34.5 881.341 34.5227V33.1591C881.187 33.1477 880.835 33.1364 880.636 33.1364C879.591 33.1364 878.682 33.7273 878.364 34.5909H878.273V33.2727H876.977V42ZM889.112 35.2273C888.692 33.9886 887.749 33.1591 886.021 33.1591C884.18 33.1591 882.817 34.2045 882.817 35.6818C882.817 36.8864 883.533 37.6932 885.135 38.0682L886.589 38.4091C887.47 38.6136 887.885 39.0341 887.885 39.6364C887.885 40.3864 887.089 41 885.839 41C884.743 41 884.055 40.5284 883.817 39.5909L882.544 39.9091C882.857 41.392 884.078 42.1818 885.862 42.1818C887.891 42.1818 889.271 41.0739 889.271 39.5682C889.271 38.3523 888.51 37.5852 886.953 37.2045L885.658 36.8864C884.624 36.6307 884.158 36.2841 884.158 35.6136C884.158 34.8636 884.953 34.3182 886.021 34.3182C887.192 34.3182 887.675 34.9659 887.908 35.5682L889.112 35.2273ZM894.949 42.1818C896.722 42.1818 898.017 41.2955 898.426 39.9773L897.131 39.6136C896.79 40.5227 896 40.9773 894.949 40.9773C893.375 40.9773 892.29 39.9602 892.227 38.0909H898.562V37.5227C898.562 34.2727 896.631 33.1591 894.812 33.1591C892.449 33.1591 890.881 35.0227 890.881 37.7045C890.881 40.3864 892.426 42.1818 894.949 42.1818ZM892.227 36.9318C892.318 35.5739 893.278 34.3636 894.812 34.3636C896.267 34.3636 897.199 35.4545 897.199 36.9318H892.227ZM906.784 35.2273C906.364 33.9886 905.42 33.1591 903.693 33.1591C901.852 33.1591 900.489 34.2045 900.489 35.6818C900.489 36.8864 901.205 37.6932 902.807 38.0682L904.261 38.4091C905.142 38.6136 905.557 39.0341 905.557 39.6364C905.557 40.3864 904.761 41 903.511 41C902.415 41 901.727 40.5284 901.489 39.5909L900.216 39.9091C900.528 41.392 901.75 42.1818 903.534 42.1818C905.562 42.1818 906.943 41.0739 906.943 39.5682C906.943 38.3523 906.182 37.5852 904.625 37.2045L903.33 36.8864C902.295 36.6307 901.83 36.2841 901.83 35.6136C901.83 34.8636 902.625 34.3182 903.693 34.3182C904.864 34.3182 905.347 34.9659 905.58 35.5682L906.784 35.2273Z" fill="#0A083B"/>
<rect x="1121" y="16" width="131" height="40" rx="20" fill="#1950D1"/>
<path d="M1151.52 41H1158.18V39.4538H1153.36V36.6747H1157.8V35.1286H1153.36V32.3643H1158.14V30.8182H1151.52V41ZM1161.74 36.5256C1161.74 35.4219 1162.41 34.7855 1163.36 34.7855C1164.29 34.7855 1164.85 35.397 1164.85 36.4162V41H1166.65V36.1378C1166.65 34.3082 1165.61 33.2642 1164.03 33.2642C1162.89 33.2642 1162.1 33.8111 1161.75 34.6612H1161.66V33.3636H1159.94V41H1161.74V36.5256ZM1168.48 41H1170.28V36.5107C1170.28 35.5412 1171.01 34.8551 1172 34.8551C1172.3 34.8551 1172.68 34.9098 1172.83 34.9595V33.304C1172.67 33.2741 1172.38 33.2543 1172.18 33.2543C1171.31 33.2543 1170.58 33.7514 1170.3 34.6364H1170.22V33.3636H1168.48V41ZM1177.04 41.1491C1179.28 41.1491 1180.7 39.5732 1180.7 37.2116C1180.7 34.8452 1179.28 33.2642 1177.04 33.2642C1174.81 33.2642 1173.38 34.8452 1173.38 37.2116C1173.38 39.5732 1174.81 41.1491 1177.04 41.1491ZM1177.05 39.7074C1175.81 39.7074 1175.21 38.6037 1175.21 37.2067C1175.21 35.8097 1175.81 34.6911 1177.05 34.6911C1178.27 34.6911 1178.88 35.8097 1178.88 37.2067C1178.88 38.6037 1178.27 39.7074 1177.05 39.7074ZM1184.03 30.8182H1182.23V41H1184.03V30.8182ZM1187.68 30.8182H1185.88V41H1187.68V30.8182ZM1201.45 30.8182H1199.61V37.7585H1199.53L1194.73 30.8182H1193.08V41H1194.93V34.0646H1195.01L1199.81 41H1201.45V30.8182ZM1206.71 41.1491C1208.95 41.1491 1210.37 39.5732 1210.37 37.2116C1210.37 34.8452 1208.95 33.2642 1206.71 33.2642C1204.47 33.2642 1203.05 34.8452 1203.05 37.2116C1203.05 39.5732 1204.47 41.1491 1206.71 41.1491ZM1206.72 39.7074C1205.48 39.7074 1204.88 38.6037 1204.88 37.2067C1204.88 35.8097 1205.48 34.6911 1206.72 34.6911C1207.94 34.6911 1208.55 35.8097 1208.55 37.2067C1208.55 38.6037 1207.94 39.7074 1206.72 39.7074ZM1213.27 41H1215.15L1216.58 35.8395H1216.68L1218.12 41H1219.99L1222.15 33.3636H1220.31L1218.99 38.7031H1218.92L1217.54 33.3636H1215.73L1214.36 38.733H1214.29L1212.94 33.3636H1211.11L1213.27 41Z" fill="white"/>
<path d="M1069.94 37.832L1071.59 30.5195C1071.66 30.2617 1071.61 30.0273 1071.45 29.8164C1071.29 29.6055 1071.06 29.5 1070.78 29.5H1056.96L1056.65 27.918C1056.6 27.7305 1056.5 27.5781 1056.33 27.4609C1056.19 27.3203 1056.03 27.25 1055.84 27.25H1052.22C1051.98 27.25 1051.79 27.332 1051.62 27.4961C1051.46 27.6602 1051.38 27.8594 1051.38 28.0938V28.6562C1051.38 28.8906 1051.46 29.0898 1051.62 29.2539C1051.79 29.418 1051.98 29.5 1052.22 29.5H1054.68L1057.14 41.5586C1056.84 41.7461 1056.59 41.9922 1056.4 42.2969C1056.24 42.6016 1056.16 42.9297 1056.16 43.2812C1056.16 43.8203 1056.34 44.2773 1056.72 44.6523C1057.12 45.0508 1057.59 45.25 1058.12 45.25C1058.66 45.25 1059.12 45.0508 1059.5 44.6523C1059.89 44.2773 1060.09 43.8086 1060.09 43.2461C1060.09 42.707 1059.89 42.25 1059.5 41.875H1066.88C1066.48 42.25 1066.28 42.707 1066.28 43.2461C1066.28 43.8086 1066.47 44.2773 1066.84 44.6523C1067.24 45.0508 1067.71 45.25 1068.25 45.25C1068.79 45.25 1069.25 45.0508 1069.62 44.6523C1070.02 44.2773 1070.22 43.8203 1070.22 43.2812C1070.22 42.9062 1070.11 42.5664 1069.9 42.2617C1069.71 41.9336 1069.45 41.6875 1069.09 41.5234L1069.3 40.6445C1069.35 40.3867 1069.29 40.1523 1069.13 39.9414C1068.96 39.7305 1068.75 39.625 1068.5 39.625H1059.04L1058.83 38.5H1069.13C1069.32 38.5 1069.48 38.4414 1069.62 38.3242C1069.79 38.207 1069.89 38.043 1069.94 37.832Z" fill="#1950D1"/>
<path d="M1080.97 37.4545C1080.97 40.6761 1081.84 43.3608 1083.4 45.6364H1084.73C1083.5 43.9489 1082.53 40.4972 1082.53 37.4545C1082.53 34.4119 1083.5 30.9602 1084.73 29.2727H1083.4C1081.84 31.5483 1080.97 34.233 1080.97 37.4545ZM1091.5 44.179C1094.39 44.179 1096.05 41.7308 1096.05 37.4545C1096.05 33.2102 1094.36 30.7301 1091.5 30.7301C1088.64 30.7301 1086.95 33.2102 1086.95 37.4545C1086.95 41.7308 1088.61 44.179 1091.5 44.179ZM1091.5 42.7727C1089.6 42.7727 1088.48 40.8615 1088.48 37.4545C1088.48 34.054 1089.61 32.1108 1091.5 32.1108C1093.39 32.1108 1094.52 34.054 1094.52 37.4545C1094.52 40.8615 1093.4 42.7727 1091.5 42.7727ZM1102.03 37.4545C1102.03 34.233 1101.16 31.5483 1099.6 29.2727H1098.27C1099.5 30.9602 1100.47 34.4119 1100.47 37.4545C1100.47 40.4972 1099.5 43.9489 1098.27 45.6364H1099.6C1101.16 43.3608 1102.03 40.6761 1102.03 37.4545Z" fill="black"/>
<rect x="369.5" y="17.5" width="245" height="39" rx="5.5" fill="white" stroke="#D2D2D2"/>
<path fill-rule="evenodd" clip-rule="evenodd" d="M386.858 30.5239C383.912 30.5239 381.524 32.9119 381.524 35.8575C381.524 38.8032 383.912 41.1912 386.858 41.1912C388.331 41.1912 389.663 40.595 390.629 39.629C391.595 38.663 392.191 37.3306 392.191 35.8575C392.191 32.9119 389.803 30.5239 386.858 30.5239ZM380 35.8575C380 32.0702 383.07 29 386.858 29C390.645 29 393.715 32.0702 393.715 35.8575C393.715 37.4764 393.153 38.9651 392.215 40.1379L395.777 43.6993C396.074 43.9968 396.074 44.4793 395.777 44.7768C395.479 45.0744 394.997 45.0744 394.699 44.7768L391.138 41.2155C389.965 42.1534 388.476 42.7151 386.858 42.7151C383.07 42.7151 380 39.6449 380 35.8575Z" fill="#1950D1"/>
<path d="M407.781 42.1875C410.359 42.1875 411.945 40.9219 411.945 38.9219V38.9141C411.945 37.1953 410.977 36.2578 408.664 35.75L407.414 35.4766C405.945 35.1562 405.266 34.5781 405.266 33.6562V33.6484C405.266 32.5625 406.25 31.8438 407.758 31.8359C409.188 31.8359 410.148 32.5156 410.32 33.6641L410.336 33.7734H411.742L411.734 33.6562C411.609 31.8125 410 30.5391 407.797 30.5391C405.477 30.5391 403.836 31.8359 403.828 33.6875V33.6953C403.828 35.3438 404.859 36.3359 407.062 36.8203L408.312 37.0938C409.859 37.4375 410.508 37.9922 410.508 38.9844V38.9922C410.508 40.1562 409.484 40.8906 407.859 40.8906C406.227 40.8906 405.133 40.1953 404.969 39.0625L404.953 38.9531H403.547L403.555 39.0625C403.695 40.9922 405.344 42.1875 407.781 42.1875ZM416.727 42.1562C418.5 42.1562 419.828 41.0938 420.094 39.75L420.109 39.6719H418.773L418.75 39.7422C418.516 40.4375 417.789 40.9531 416.758 40.9531C415.312 40.9531 414.391 39.9766 414.359 38.3047H420.211V37.8047C420.211 35.3672 418.859 33.7188 416.641 33.7188C414.422 33.7188 412.984 35.4453 412.984 37.9609V37.9688C412.984 40.5234 414.391 42.1562 416.727 42.1562ZM416.633 34.9219C417.82 34.9219 418.695 35.6641 418.828 37.2422H414.383C414.531 35.7266 415.453 34.9219 416.633 34.9219ZM423.961 42.1562C425.047 42.1562 426.023 41.5703 426.5 40.6797H426.531V42H427.891V36.3828C427.891 34.7578 426.688 33.7188 424.766 33.7188C422.852 33.7188 421.688 34.7969 421.57 36.1328L421.562 36.2188H422.875L422.891 36.1484C423.047 35.4219 423.703 34.9219 424.75 34.9219C425.883 34.9219 426.531 35.5234 426.531 36.5156V37.1953L424.203 37.3281C422.336 37.4375 421.258 38.3047 421.258 39.6875V39.7031C421.258 41.1797 422.344 42.1562 423.961 42.1562ZM422.648 39.7031V39.6875C422.648 38.9297 423.273 38.4453 424.359 38.3828L426.531 38.25V38.9141C426.531 40.0938 425.547 40.9766 424.266 40.9766C423.289 40.9766 422.648 40.4844 422.648 39.7031ZM429.617 42H430.977V36.9844C430.977 35.75 431.664 35.0156 432.719 35.0156C433.047 35.0156 433.336 35.0547 433.445 35.0938V33.7734C433.336 33.7578 433.133 33.7188 432.898 33.7188C431.984 33.7188 431.281 34.3125 431.008 35.25H430.977V33.875H429.617V42ZM437.531 42.1562C439.367 42.1562 440.703 40.9609 440.922 39.4141L440.93 39.3594H439.594L439.578 39.4219C439.352 40.3281 438.641 40.9531 437.531 40.9531C436.125 40.9531 435.156 39.8359 435.156 37.9453V37.9375C435.156 36.0938 436.102 34.9219 437.516 34.9219C438.711 34.9219 439.367 35.6406 439.57 36.4531L439.586 36.5156H440.914L440.906 36.4531C440.734 35.0625 439.539 33.7188 437.516 33.7188C435.258 33.7188 433.766 35.3594 433.766 37.9219V37.9297C433.766 40.5156 435.227 42.1562 437.531 42.1562ZM442.25 42H443.609V37.2578C443.609 35.875 444.445 34.9219 445.703 34.9219C446.969 34.9219 447.719 35.7891 447.719 37.2578V42H449.078V37.0234C449.078 35.0547 447.898 33.7188 446.172 33.7188C444.961 33.7188 444.078 34.2578 443.641 35.1719H443.609V30.7266H442.25V42ZM451.641 42.1094C452.141 42.1094 452.531 41.7188 452.531 41.2188C452.531 40.7188 452.141 40.3281 451.641 40.3281C451.141 40.3281 450.75 40.7188 450.75 41.2188C450.75 41.7188 451.141 42.1094 451.641 42.1094ZM454.656 42.1094C455.156 42.1094 455.547 41.7188 455.547 41.2188C455.547 40.7188 455.156 40.3281 454.656 40.3281C454.156 40.3281 453.766 40.7188 453.766 41.2188C453.766 41.7188 454.156 42.1094 454.656 42.1094ZM457.672 42.1094C458.172 42.1094 458.562 41.7188 458.562 41.2188C458.562 40.7188 458.172 40.3281 457.672 40.3281C457.172 40.3281 456.781 40.7188 456.781 41.2188C456.781 41.7188 457.172 42.1094 457.672 42.1094Z" fill="#686868"/>
<defs>
<clipPath id="clip0">
<rect width="24" height="23" fill="white" transform="translate(165 26.3044)"/>
</clipPath>
</defs>
</svg>
