<svg width="1100" height="90" viewBox="0 0 1100 90" fill="none" xmlns="http://www.w3.org/2000/svg">
<g filter="url(#filter0_d)">
<rect x="10.5" y="6.5" width="1079" height="69" stroke="black"/>
</g>
<path d="M71.2988 48.4697H80.6299V52H66.9043V30.6719H71.2988V48.4697ZM99.7461 41.8193C99.7461 43.9189 99.375 45.7598 98.6328 47.3418C97.8906 48.9238 96.8262 50.1445 95.4395 51.0039C94.0625 51.8633 92.4805 52.293 90.6934 52.293C88.9258 52.293 87.3486 51.8682 85.9619 51.0186C84.5752 50.1689 83.501 48.958 82.7393 47.3857C81.9775 45.8037 81.5918 43.9873 81.582 41.9365V40.8818C81.582 38.7822 81.958 36.9365 82.71 35.3447C83.4717 33.7432 84.541 32.5176 85.918 31.668C87.3047 30.8086 88.8867 30.3789 90.6641 30.3789C92.4414 30.3789 94.0186 30.8086 95.3955 31.668C96.7822 32.5176 97.8516 33.7432 98.6035 35.3447C99.3652 36.9365 99.7461 38.7773 99.7461 40.8672V41.8193ZM95.293 40.8525C95.293 38.6162 94.8926 36.917 94.0918 35.7549C93.291 34.5928 92.1484 34.0117 90.6641 34.0117C89.1895 34.0117 88.0518 34.5879 87.251 35.7402C86.4502 36.8828 86.0449 38.5625 86.0352 40.7793V41.8193C86.0352 43.9971 86.4355 45.6865 87.2363 46.8877C88.0371 48.0889 89.1895 48.6895 90.6934 48.6895C92.168 48.6895 93.3008 48.1133 94.0918 46.9609C94.8828 45.7988 95.2832 44.1094 95.293 41.8926V40.8525ZM119.814 49.3047C119.023 50.252 117.905 50.9893 116.46 51.5166C115.015 52.0342 113.413 52.293 111.655 52.293C109.81 52.293 108.188 51.8926 106.792 51.0918C105.405 50.2812 104.331 49.1094 103.569 47.5762C102.817 46.043 102.432 44.2412 102.412 42.1709V40.7207C102.412 38.5918 102.769 36.751 103.481 35.1982C104.204 33.6357 105.239 32.4443 106.587 31.624C107.944 30.7939 109.531 30.3789 111.348 30.3789C113.877 30.3789 115.854 30.9844 117.28 32.1953C118.706 33.3965 119.551 35.1494 119.814 37.4541H115.537C115.342 36.2334 114.907 35.3398 114.233 34.7734C113.569 34.207 112.651 33.9238 111.479 33.9238C109.985 33.9238 108.848 34.4854 108.066 35.6084C107.285 36.7314 106.89 38.4014 106.88 40.6182V41.9805C106.88 44.2168 107.305 45.9062 108.154 47.0488C109.004 48.1914 110.249 48.7627 111.89 48.7627C113.54 48.7627 114.717 48.4111 115.42 47.708V44.0312H111.421V40.7939H119.814V49.3047ZM140.908 41.8193C140.908 43.9189 140.537 45.7598 139.795 47.3418C139.053 48.9238 137.988 50.1445 136.602 51.0039C135.225 51.8633 133.643 52.293 131.855 52.293C130.088 52.293 128.511 51.8682 127.124 51.0186C125.737 50.1689 124.663 48.958 123.901 47.3857C123.14 45.8037 122.754 43.9873 122.744 41.9365V40.8818C122.744 38.7822 123.12 36.9365 123.872 35.3447C124.634 33.7432 125.703 32.5176 127.08 31.668C128.467 30.8086 130.049 30.3789 131.826 30.3789C133.604 30.3789 135.181 30.8086 136.558 31.668C137.944 32.5176 139.014 33.7432 139.766 35.3447C140.527 36.9365 140.908 38.7773 140.908 40.8672V41.8193ZM136.455 40.8525C136.455 38.6162 136.055 36.917 135.254 35.7549C134.453 34.5928 133.311 34.0117 131.826 34.0117C130.352 34.0117 129.214 34.5879 128.413 35.7402C127.612 36.8828 127.207 38.5625 127.197 40.7793V41.8193C127.197 43.9971 127.598 45.6865 128.398 46.8877C129.199 48.0889 130.352 48.6895 131.855 48.6895C133.33 48.6895 134.463 48.1133 135.254 46.9609C136.045 45.7988 136.445 44.1094 136.455 41.8926V40.8525Z" fill="black"/>
<path d="M326.41 49H322.895V41.6875H316.039V49H312.523V31.9375H316.039V38.8516H322.895V31.9375H326.41V49ZM328.742 42.543C328.742 41.2852 328.984 40.1641 329.469 39.1797C329.953 38.1953 330.648 37.4336 331.555 36.8945C332.469 36.3555 333.527 36.0859 334.73 36.0859C336.441 36.0859 337.836 36.6094 338.914 37.6562C340 38.7031 340.605 40.125 340.73 41.9219L340.754 42.7891C340.754 44.7344 340.211 46.2969 339.125 47.4766C338.039 48.6484 336.582 49.2344 334.754 49.2344C332.926 49.2344 331.465 48.6484 330.371 47.4766C329.285 46.3047 328.742 44.7109 328.742 42.6953V42.543ZM332.129 42.7891C332.129 43.9922 332.355 44.9141 332.809 45.5547C333.262 46.1875 333.91 46.5039 334.754 46.5039C335.574 46.5039 336.215 46.1914 336.676 45.5664C337.137 44.9336 337.367 43.9258 337.367 42.543C337.367 41.3633 337.137 40.4492 336.676 39.8008C336.215 39.1523 335.566 38.8281 334.73 38.8281C333.902 38.8281 333.262 39.1523 332.809 39.8008C332.355 40.4414 332.129 41.4375 332.129 42.7891ZM346.016 36.3203L346.121 37.7383C347.02 36.6367 348.234 36.0859 349.766 36.0859C351.398 36.0859 352.52 36.7305 353.129 38.0195C354.02 36.7305 355.289 36.0859 356.938 36.0859C358.312 36.0859 359.336 36.4883 360.008 37.293C360.68 38.0898 361.016 39.293 361.016 40.9023V49H357.617V40.9141C357.617 40.1953 357.477 39.6719 357.195 39.3438C356.914 39.0078 356.418 38.8398 355.707 38.8398C354.691 38.8398 353.988 39.3242 353.598 40.293L353.609 49H350.223V40.9258C350.223 40.1914 350.078 39.6602 349.789 39.332C349.5 39.0039 349.008 38.8398 348.312 38.8398C347.352 38.8398 346.656 39.2383 346.227 40.0352V49H342.84V36.3203H346.016ZM369.465 49.2344C367.605 49.2344 366.09 48.6641 364.918 47.5234C363.754 46.3828 363.172 44.8633 363.172 42.9648V42.6367C363.172 41.3633 363.418 40.2266 363.91 39.2266C364.402 38.2188 365.098 37.4453 365.996 36.9062C366.902 36.3594 367.934 36.0859 369.09 36.0859C370.824 36.0859 372.188 36.6328 373.18 37.7266C374.18 38.8203 374.68 40.3711 374.68 42.3789V43.7617H366.605C366.715 44.5898 367.043 45.2539 367.59 45.7539C368.145 46.2539 368.844 46.5039 369.688 46.5039C370.992 46.5039 372.012 46.0312 372.746 45.0859L374.41 46.9492C373.902 47.668 373.215 48.2305 372.348 48.6367C371.48 49.0352 370.52 49.2344 369.465 49.2344ZM369.078 38.8281C368.406 38.8281 367.859 39.0547 367.438 39.5078C367.023 39.9609 366.758 40.6094 366.641 41.4531H371.352V41.1836C371.336 40.4336 371.133 39.8555 370.742 39.4492C370.352 39.0352 369.797 38.8281 369.078 38.8281ZM410.234 42.9883V49H406.719V31.9375H413.375C414.656 31.9375 415.781 32.1719 416.75 32.6406C417.727 33.1094 418.477 33.7773 419 34.6445C419.523 35.5039 419.785 36.4844 419.785 37.5859C419.785 39.2578 419.211 40.5781 418.062 41.5469C416.922 42.5078 415.34 42.9883 413.316 42.9883H410.234ZM410.234 40.1406H413.375C414.305 40.1406 415.012 39.9219 415.496 39.4844C415.988 39.0469 416.234 38.4219 416.234 37.6094C416.234 36.7734 415.988 36.0977 415.496 35.582C415.004 35.0664 414.324 34.8008 413.457 34.7852H410.234V40.1406ZM429.113 39.4961C428.652 39.4336 428.246 39.4023 427.895 39.4023C426.613 39.4023 425.773 39.8359 425.375 40.7031V49H421.988V36.3203H425.188L425.281 37.832C425.961 36.668 426.902 36.0859 428.105 36.0859C428.48 36.0859 428.832 36.1367 429.16 36.2383L429.113 39.4961ZM429.805 42.543C429.805 41.2852 430.047 40.1641 430.531 39.1797C431.016 38.1953 431.711 37.4336 432.617 36.8945C433.531 36.3555 434.59 36.0859 435.793 36.0859C437.504 36.0859 438.898 36.6094 439.977 37.6562C441.062 38.7031 441.668 40.125 441.793 41.9219L441.816 42.7891C441.816 44.7344 441.273 46.2969 440.188 47.4766C439.102 48.6484 437.645 49.2344 435.816 49.2344C433.988 49.2344 432.527 48.6484 431.434 47.4766C430.348 46.3047 429.805 44.7109 429.805 42.6953V42.543ZM433.191 42.7891C433.191 43.9922 433.418 44.9141 433.871 45.5547C434.324 46.1875 434.973 46.5039 435.816 46.5039C436.637 46.5039 437.277 46.1914 437.738 45.5664C438.199 44.9336 438.43 43.9258 438.43 42.543C438.43 41.3633 438.199 40.4492 437.738 39.8008C437.277 39.1523 436.629 38.8281 435.793 38.8281C434.965 38.8281 434.324 39.1523 433.871 39.8008C433.418 40.4414 433.191 41.4375 433.191 42.7891ZM447.488 36.3203V49.6914C447.488 51.0898 447.117 52.1758 446.375 52.9492C445.633 53.7305 444.562 54.1211 443.164 54.1211C442.578 54.1211 442.02 54.0547 441.488 53.9219V51.2383C441.895 51.3086 442.25 51.3438 442.555 51.3438C443.578 51.3438 444.09 50.8008 444.09 49.7148V36.3203H447.488ZM443.82 33.0391C443.82 32.5312 443.988 32.1133 444.324 31.7852C444.668 31.457 445.133 31.293 445.719 31.293C446.305 31.293 446.766 31.457 447.102 31.7852C447.445 32.1133 447.617 32.5312 447.617 33.0391C447.617 33.5547 447.441 33.9766 447.09 34.3047C446.746 34.6328 446.289 34.7969 445.719 34.7969C445.148 34.7969 444.688 34.6328 444.336 34.3047C443.992 33.9766 443.82 33.5547 443.82 33.0391ZM455.973 49.2344C454.113 49.2344 452.598 48.6641 451.426 47.5234C450.262 46.3828 449.68 44.8633 449.68 42.9648V42.6367C449.68 41.3633 449.926 40.2266 450.418 39.2266C450.91 38.2188 451.605 37.4453 452.504 36.9062C453.41 36.3594 454.441 36.0859 455.598 36.0859C457.332 36.0859 458.695 36.6328 459.688 37.7266C460.688 38.8203 461.188 40.3711 461.188 42.3789V43.7617H453.113C453.223 44.5898 453.551 45.2539 454.098 45.7539C454.652 46.2539 455.352 46.5039 456.195 46.5039C457.5 46.5039 458.52 46.0312 459.254 45.0859L460.918 46.9492C460.41 47.668 459.723 48.2305 458.855 48.6367C457.988 49.0352 457.027 49.2344 455.973 49.2344ZM455.586 38.8281C454.914 38.8281 454.367 39.0547 453.945 39.5078C453.531 39.9609 453.266 40.6094 453.148 41.4531H457.859V41.1836C457.844 40.4336 457.641 39.8555 457.25 39.4492C456.859 39.0352 456.305 38.8281 455.586 38.8281ZM468.395 46.5039C469.02 46.5039 469.527 46.332 469.918 45.9883C470.309 45.6445 470.512 45.1875 470.527 44.6172H473.703C473.695 45.4766 473.461 46.2656 473 46.9844C472.539 47.6953 471.906 48.25 471.102 48.6484C470.305 49.0391 469.422 49.2344 468.453 49.2344C466.641 49.2344 465.211 48.6602 464.164 47.5117C463.117 46.3555 462.594 44.7617 462.594 42.7305V42.5078C462.594 40.5547 463.113 38.9961 464.152 37.832C465.191 36.668 466.617 36.0859 468.43 36.0859C470.016 36.0859 471.285 36.5391 472.238 37.4453C473.199 38.3438 473.688 39.543 473.703 41.043H470.527C470.512 40.3867 470.309 39.8555 469.918 39.4492C469.527 39.0352 469.012 38.8281 468.371 38.8281C467.582 38.8281 466.984 39.1172 466.578 39.6953C466.18 40.2656 465.98 41.1953 465.98 42.4844V42.8359C465.98 44.1406 466.18 45.0781 466.578 45.6484C466.977 46.2188 467.582 46.5039 468.395 46.5039ZM479.691 33.2031V36.3203H481.859V38.8047H479.691V45.1328C479.691 45.6016 479.781 45.9375 479.961 46.1406C480.141 46.3438 480.484 46.4453 480.992 46.4453C481.367 46.4453 481.699 46.418 481.988 46.3633V48.9297C481.324 49.1328 480.641 49.2344 479.938 49.2344C477.562 49.2344 476.352 48.0352 476.305 45.6367V38.8047H474.453V36.3203H476.305V33.2031H479.691ZM490.613 45.4961C490.613 45.082 490.406 44.7578 489.992 44.5234C489.586 44.2812 488.93 44.0664 488.023 43.8789C485.008 43.2461 483.5 41.9648 483.5 40.0352C483.5 38.9102 483.965 37.9727 484.895 37.2227C485.832 36.4648 487.055 36.0859 488.562 36.0859C490.172 36.0859 491.457 36.4648 492.418 37.2227C493.387 37.9805 493.871 38.9648 493.871 40.1758H490.484C490.484 39.6914 490.328 39.293 490.016 38.9805C489.703 38.6602 489.215 38.5 488.551 38.5C487.98 38.5 487.539 38.6289 487.227 38.8867C486.914 39.1445 486.758 39.4727 486.758 39.8711C486.758 40.2461 486.934 40.5508 487.285 40.7852C487.645 41.0117 488.246 41.2109 489.09 41.3828C489.934 41.5469 490.645 41.7344 491.223 41.9453C493.012 42.6016 493.906 43.7383 493.906 45.3555C493.906 46.5117 493.41 47.4492 492.418 48.168C491.426 48.8789 490.145 49.2344 488.574 49.2344C487.512 49.2344 486.566 49.0469 485.738 48.6719C484.918 48.2891 484.273 47.7695 483.805 47.1133C483.336 46.4492 483.102 45.7344 483.102 44.9688H486.312C486.344 45.5703 486.566 46.0312 486.98 46.3516C487.395 46.6719 487.949 46.832 488.645 46.832C489.293 46.832 489.781 46.7109 490.109 46.4688C490.445 46.2188 490.613 45.8945 490.613 45.4961ZM535.836 45.4844H529.672L528.5 49H524.762L531.113 31.9375H534.371L540.758 49H537.02L535.836 45.4844ZM530.621 42.6367H534.887L532.742 36.25L530.621 42.6367ZM553.555 42.7773C553.555 44.8086 553.121 46.3945 552.254 47.5352C551.387 48.668 550.176 49.2344 548.621 49.2344C547.246 49.2344 546.148 48.707 545.328 47.6523L545.176 49H542.129V31H545.516V37.457C546.297 36.543 547.324 36.0859 548.598 36.0859C550.145 36.0859 551.355 36.6562 552.23 37.7969C553.113 38.9297 553.555 40.5273 553.555 42.5898V42.7773ZM550.168 42.5312C550.168 41.25 549.965 40.3164 549.559 39.7305C549.152 39.1367 548.547 38.8398 547.742 38.8398C546.664 38.8398 545.922 39.2812 545.516 40.1641V45.168C545.93 46.0586 546.68 46.5039 547.766 46.5039C548.859 46.5039 549.578 45.9648 549.922 44.8867C550.086 44.3711 550.168 43.5859 550.168 42.5312ZM555.125 42.543C555.125 41.2852 555.367 40.1641 555.852 39.1797C556.336 38.1953 557.031 37.4336 557.938 36.8945C558.852 36.3555 559.91 36.0859 561.113 36.0859C562.824 36.0859 564.219 36.6094 565.297 37.6562C566.383 38.7031 566.988 40.125 567.113 41.9219L567.137 42.7891C567.137 44.7344 566.594 46.2969 565.508 47.4766C564.422 48.6484 562.965 49.2344 561.137 49.2344C559.309 49.2344 557.848 48.6484 556.754 47.4766C555.668 46.3047 555.125 44.7109 555.125 42.6953V42.543ZM558.512 42.7891C558.512 43.9922 558.738 44.9141 559.191 45.5547C559.645 46.1875 560.293 46.5039 561.137 46.5039C561.957 46.5039 562.598 46.1914 563.059 45.5664C563.52 44.9336 563.75 43.9258 563.75 42.543C563.75 41.3633 563.52 40.4492 563.059 39.8008C562.598 39.1523 561.949 38.8281 561.113 38.8281C560.285 38.8281 559.645 39.1523 559.191 39.8008C558.738 40.4414 558.512 41.4375 558.512 42.7891ZM576.816 47.7109C575.98 48.7266 574.824 49.2344 573.348 49.2344C571.988 49.2344 570.949 48.8438 570.23 48.0625C569.52 47.2812 569.156 46.1367 569.141 44.6289V36.3203H572.527V44.5117C572.527 45.832 573.129 46.4922 574.332 46.4922C575.48 46.4922 576.27 46.0938 576.699 45.2969V36.3203H580.098V49H576.91L576.816 47.7109ZM586.707 33.2031V36.3203H588.875V38.8047H586.707V45.1328C586.707 45.6016 586.797 45.9375 586.977 46.1406C587.156 46.3438 587.5 46.4453 588.008 46.4453C588.383 46.4453 588.715 46.418 589.004 46.3633V48.9297C588.34 49.1328 587.656 49.2344 586.953 49.2344C584.578 49.2344 583.367 48.0352 583.32 45.6367V38.8047H581.469V36.3203H583.32V33.2031H586.707ZM629.715 44.5234C629.715 43.8594 629.48 43.3516 629.012 43C628.543 42.6406 627.699 42.2656 626.48 41.875C625.262 41.4766 624.297 41.0859 623.586 40.7031C621.648 39.6562 620.68 38.2461 620.68 36.4727C620.68 35.5508 620.938 34.7305 621.453 34.0117C621.977 33.2852 622.723 32.7188 623.691 32.3125C624.668 31.9062 625.762 31.7031 626.973 31.7031C628.191 31.7031 629.277 31.9258 630.23 32.3711C631.184 32.8086 631.922 33.4297 632.445 34.2344C632.977 35.0391 633.242 35.9531 633.242 36.9766H629.727C629.727 36.1953 629.48 35.5898 628.988 35.1602C628.496 34.7227 627.805 34.5039 626.914 34.5039C626.055 34.5039 625.387 34.6875 624.91 35.0547C624.434 35.4141 624.195 35.8906 624.195 36.4844C624.195 37.0391 624.473 37.5039 625.027 37.8789C625.59 38.2539 626.414 38.6055 627.5 38.9336C629.5 39.5352 630.957 40.2812 631.871 41.1719C632.785 42.0625 633.242 43.1719 633.242 44.5C633.242 45.9766 632.684 47.1367 631.566 47.9805C630.449 48.8164 628.945 49.2344 627.055 49.2344C625.742 49.2344 624.547 48.9961 623.469 48.5195C622.391 48.0352 621.566 47.375 620.996 46.5391C620.434 45.7031 620.152 44.7344 620.152 43.6328H623.68C623.68 45.5156 624.805 46.457 627.055 46.457C627.891 46.457 628.543 46.2891 629.012 45.9531C629.48 45.6094 629.715 45.1328 629.715 44.5234ZM641.246 49.2344C639.387 49.2344 637.871 48.6641 636.699 47.5234C635.535 46.3828 634.953 44.8633 634.953 42.9648V42.6367C634.953 41.3633 635.199 40.2266 635.691 39.2266C636.184 38.2188 636.879 37.4453 637.777 36.9062C638.684 36.3594 639.715 36.0859 640.871 36.0859C642.605 36.0859 643.969 36.6328 644.961 37.7266C645.961 38.8203 646.461 40.3711 646.461 42.3789V43.7617H638.387C638.496 44.5898 638.824 45.2539 639.371 45.7539C639.926 46.2539 640.625 46.5039 641.469 46.5039C642.773 46.5039 643.793 46.0312 644.527 45.0859L646.191 46.9492C645.684 47.668 644.996 48.2305 644.129 48.6367C643.262 49.0352 642.301 49.2344 641.246 49.2344ZM640.859 38.8281C640.188 38.8281 639.641 39.0547 639.219 39.5078C638.805 39.9609 638.539 40.6094 638.422 41.4531H643.133V41.1836C643.117 40.4336 642.914 39.8555 642.523 39.4492C642.133 39.0352 641.578 38.8281 640.859 38.8281ZM655.52 39.4961C655.059 39.4336 654.652 39.4023 654.301 39.4023C653.02 39.4023 652.18 39.8359 651.781 40.7031V49H648.395V36.3203H651.594L651.688 37.832C652.367 36.668 653.309 36.0859 654.512 36.0859C654.887 36.0859 655.238 36.1367 655.566 36.2383L655.52 39.4961ZM662.117 44.8633L664.473 36.3203H668.012L663.734 49H660.5L656.223 36.3203H659.762L662.117 44.8633ZM673.086 49H669.688V36.3203H673.086V49ZM669.488 33.0391C669.488 32.5312 669.656 32.1133 669.992 31.7852C670.336 31.457 670.801 31.293 671.387 31.293C671.965 31.293 672.426 31.457 672.77 31.7852C673.113 32.1133 673.285 32.5312 673.285 33.0391C673.285 33.5547 673.109 33.9766 672.758 34.3047C672.414 34.6328 671.957 34.7969 671.387 34.7969C670.816 34.7969 670.355 34.6328 670.004 34.3047C669.66 33.9766 669.488 33.5547 669.488 33.0391ZM681.16 46.5039C681.785 46.5039 682.293 46.332 682.684 45.9883C683.074 45.6445 683.277 45.1875 683.293 44.6172H686.469C686.461 45.4766 686.227 46.2656 685.766 46.9844C685.305 47.6953 684.672 48.25 683.867 48.6484C683.07 49.0391 682.188 49.2344 681.219 49.2344C679.406 49.2344 677.977 48.6602 676.93 47.5117C675.883 46.3555 675.359 44.7617 675.359 42.7305V42.5078C675.359 40.5547 675.879 38.9961 676.918 37.832C677.957 36.668 679.383 36.0859 681.195 36.0859C682.781 36.0859 684.051 36.5391 685.004 37.4453C685.965 38.3438 686.453 39.543 686.469 41.043H683.293C683.277 40.3867 683.074 39.8555 682.684 39.4492C682.293 39.0352 681.777 38.8281 681.137 38.8281C680.348 38.8281 679.75 39.1172 679.344 39.6953C678.945 40.2656 678.746 41.1953 678.746 42.4844V42.8359C678.746 44.1406 678.945 45.0781 679.344 45.6484C679.742 46.2188 680.348 46.5039 681.16 46.5039ZM694.238 49.2344C692.379 49.2344 690.863 48.6641 689.691 47.5234C688.527 46.3828 687.945 44.8633 687.945 42.9648V42.6367C687.945 41.3633 688.191 40.2266 688.684 39.2266C689.176 38.2188 689.871 37.4453 690.77 36.9062C691.676 36.3594 692.707 36.0859 693.863 36.0859C695.598 36.0859 696.961 36.6328 697.953 37.7266C698.953 38.8203 699.453 40.3711 699.453 42.3789V43.7617H691.379C691.488 44.5898 691.816 45.2539 692.363 45.7539C692.918 46.2539 693.617 46.5039 694.461 46.5039C695.766 46.5039 696.785 46.0312 697.52 45.0859L699.184 46.9492C698.676 47.668 697.988 48.2305 697.121 48.6367C696.254 49.0352 695.293 49.2344 694.238 49.2344ZM693.852 38.8281C693.18 38.8281 692.633 39.0547 692.211 39.5078C691.797 39.9609 691.531 40.6094 691.414 41.4531H696.125V41.1836C696.109 40.4336 695.906 39.8555 695.516 39.4492C695.125 39.0352 694.57 38.8281 693.852 38.8281ZM708.254 45.4961C708.254 45.082 708.047 44.7578 707.633 44.5234C707.227 44.2812 706.57 44.0664 705.664 43.8789C702.648 43.2461 701.141 41.9648 701.141 40.0352C701.141 38.9102 701.605 37.9727 702.535 37.2227C703.473 36.4648 704.695 36.0859 706.203 36.0859C707.812 36.0859 709.098 36.4648 710.059 37.2227C711.027 37.9805 711.512 38.9648 711.512 40.1758H708.125C708.125 39.6914 707.969 39.293 707.656 38.9805C707.344 38.6602 706.855 38.5 706.191 38.5C705.621 38.5 705.18 38.6289 704.867 38.8867C704.555 39.1445 704.398 39.4727 704.398 39.8711C704.398 40.2461 704.574 40.5508 704.926 40.7852C705.285 41.0117 705.887 41.2109 706.73 41.3828C707.574 41.5469 708.285 41.7344 708.863 41.9453C710.652 42.6016 711.547 43.7383 711.547 45.3555C711.547 46.5117 711.051 47.4492 710.059 48.168C709.066 48.8789 707.785 49.2344 706.215 49.2344C705.152 49.2344 704.207 49.0469 703.379 48.6719C702.559 48.2891 701.914 47.7695 701.445 47.1133C700.977 46.4492 700.742 45.7344 700.742 44.9688H703.953C703.984 45.5703 704.207 46.0312 704.621 46.3516C705.035 46.6719 705.59 46.832 706.285 46.832C706.934 46.832 707.422 46.7109 707.75 46.4688C708.086 46.2188 708.254 45.8945 708.254 45.4961ZM757.238 43.3164C757.105 45.1523 756.426 46.5977 755.199 47.6523C753.98 48.707 752.371 49.2344 750.371 49.2344C748.184 49.2344 746.461 48.5 745.203 47.0312C743.953 45.5547 743.328 43.5312 743.328 40.9609V39.918C743.328 38.2773 743.617 36.832 744.195 35.582C744.773 34.332 745.598 33.375 746.668 32.7109C747.746 32.0391 748.996 31.7031 750.418 31.7031C752.387 31.7031 753.973 32.2305 755.176 33.2852C756.379 34.3398 757.074 35.8203 757.262 37.7266H753.746C753.66 36.625 753.352 35.8281 752.82 35.3359C752.297 34.8359 751.496 34.5859 750.418 34.5859C749.246 34.5859 748.367 35.0078 747.781 35.8516C747.203 36.6875 746.906 37.9883 746.891 39.7539V41.043C746.891 42.8867 747.168 44.2344 747.723 45.0859C748.285 45.9375 749.168 46.3633 750.371 46.3633C751.457 46.3633 752.266 46.1172 752.797 45.625C753.336 45.125 753.645 44.3555 753.723 43.3164H757.238ZM758.797 42.543C758.797 41.2852 759.039 40.1641 759.523 39.1797C760.008 38.1953 760.703 37.4336 761.609 36.8945C762.523 36.3555 763.582 36.0859 764.785 36.0859C766.496 36.0859 767.891 36.6094 768.969 37.6562C770.055 38.7031 770.66 40.125 770.785 41.9219L770.809 42.7891C770.809 44.7344 770.266 46.2969 769.18 47.4766C768.094 48.6484 766.637 49.2344 764.809 49.2344C762.98 49.2344 761.52 48.6484 760.426 47.4766C759.34 46.3047 758.797 44.7109 758.797 42.6953V42.543ZM762.184 42.7891C762.184 43.9922 762.41 44.9141 762.863 45.5547C763.316 46.1875 763.965 46.5039 764.809 46.5039C765.629 46.5039 766.27 46.1914 766.73 45.5664C767.191 44.9336 767.422 43.9258 767.422 42.543C767.422 41.3633 767.191 40.4492 766.73 39.8008C766.27 39.1523 765.621 38.8281 764.785 38.8281C763.957 38.8281 763.316 39.1523 762.863 39.8008C762.41 40.4414 762.184 41.4375 762.184 42.7891ZM776.012 36.3203L776.117 37.7852C777.023 36.6523 778.238 36.0859 779.762 36.0859C781.105 36.0859 782.105 36.4805 782.762 37.2695C783.418 38.0586 783.754 39.2383 783.77 40.8086V49H780.383V40.8906C780.383 40.1719 780.227 39.6523 779.914 39.332C779.602 39.0039 779.082 38.8398 778.355 38.8398C777.402 38.8398 776.688 39.2461 776.211 40.0586V49H772.824V36.3203H776.012ZM790.402 33.2031V36.3203H792.57V38.8047H790.402V45.1328C790.402 45.6016 790.492 45.9375 790.672 46.1406C790.852 46.3438 791.195 46.4453 791.703 46.4453C792.078 46.4453 792.41 46.418 792.699 46.3633V48.9297C792.035 49.1328 791.352 49.2344 790.648 49.2344C788.273 49.2344 787.062 48.0352 787.016 45.6367V38.8047H785.164V36.3203H787.016V33.2031H790.402ZM801.805 49C801.648 48.6953 801.535 48.3164 801.465 47.8633C800.645 48.7773 799.578 49.2344 798.266 49.2344C797.023 49.2344 795.992 48.875 795.172 48.1562C794.359 47.4375 793.953 46.5312 793.953 45.4375C793.953 44.0938 794.449 43.0625 795.441 42.3438C796.441 41.625 797.883 41.2617 799.766 41.2539H801.324V40.5273C801.324 39.9414 801.172 39.4727 800.867 39.1211C800.57 38.7695 800.098 38.5938 799.449 38.5938C798.879 38.5938 798.43 38.7305 798.102 39.0039C797.781 39.2773 797.621 39.6523 797.621 40.1289H794.234C794.234 39.3945 794.461 38.7148 794.914 38.0898C795.367 37.4648 796.008 36.9766 796.836 36.625C797.664 36.2656 798.594 36.0859 799.625 36.0859C801.188 36.0859 802.426 36.4805 803.34 37.2695C804.262 38.0508 804.723 39.1523 804.723 40.5742V46.0703C804.73 47.2734 804.898 48.1836 805.227 48.8008V49H801.805ZM799.004 46.6445C799.504 46.6445 799.965 46.5352 800.387 46.3164C800.809 46.0898 801.121 45.7891 801.324 45.4141V43.2344H800.059C798.363 43.2344 797.461 43.8203 797.352 44.9922L797.34 45.1914C797.34 45.6133 797.488 45.9609 797.785 46.2344C798.082 46.5078 798.488 46.6445 799.004 46.6445ZM812.598 46.5039C813.223 46.5039 813.73 46.332 814.121 45.9883C814.512 45.6445 814.715 45.1875 814.73 44.6172H817.906C817.898 45.4766 817.664 46.2656 817.203 46.9844C816.742 47.6953 816.109 48.25 815.305 48.6484C814.508 49.0391 813.625 49.2344 812.656 49.2344C810.844 49.2344 809.414 48.6602 808.367 47.5117C807.32 46.3555 806.797 44.7617 806.797 42.7305V42.5078C806.797 40.5547 807.316 38.9961 808.355 37.832C809.395 36.668 810.82 36.0859 812.633 36.0859C814.219 36.0859 815.488 36.5391 816.441 37.4453C817.402 38.3438 817.891 39.543 817.906 41.043H814.73C814.715 40.3867 814.512 39.8555 814.121 39.4492C813.73 39.0352 813.215 38.8281 812.574 38.8281C811.785 38.8281 811.188 39.1172 810.781 39.6953C810.383 40.2656 810.184 41.1953 810.184 42.4844V42.8359C810.184 44.1406 810.383 45.0781 810.781 45.6484C811.18 46.2188 811.785 46.5039 812.598 46.5039ZM823.895 33.2031V36.3203H826.062V38.8047H823.895V45.1328C823.895 45.6016 823.984 45.9375 824.164 46.1406C824.344 46.3438 824.688 46.4453 825.195 46.4453C825.57 46.4453 825.902 46.418 826.191 46.3633V48.9297C825.527 49.1328 824.844 49.2344 824.141 49.2344C821.766 49.2344 820.555 48.0352 820.508 45.6367V38.8047H818.656V36.3203H820.508V33.2031H823.895Z" fill="black"/>
<circle cx="1025.76" cy="36.756" r="9.75604" stroke="black" stroke-width="3"/>
<line x1="1031.95" y1="43.4828" x2="1042.88" y2="54.4132" stroke="black" stroke-width="3"/>
<defs>
<filter id="filter0_d" x="0" y="0" width="1100" height="90" filterUnits="userSpaceOnUse" color-interpolation-filters="sRGB">
<feFlood flood-opacity="0" result="BackgroundImageFix"/>
<feColorMatrix in="SourceAlpha" type="matrix" values="0 0 0 0 0 0 0 0 0 0 0 0 0 0 0 0 0 0 127 0"/>
<feOffset dy="4"/>
<feGaussianBlur stdDeviation="5"/>
<feColorMatrix type="matrix" values="0 0 0 0 0 0 0 0 0 0 0 0 0 0 0 0 0 0 0.02 0"/>
<feBlend mode="normal" in2="BackgroundImageFix" result="effect1_dropShadow"/>
<feBlend mode="normal" in="SourceGraphic" in2="effect1_dropShadow" result="shape"/>
</filter>
</defs>
</svg>
