<svg width="1440" height="77" viewBox="0 0 1440 77" fill="none" xmlns="http://www.w3.org/2000/svg">
<rect width="1440" height="77" fill="black" fill-opacity="0.16"/>
<g clip-path="url(#clip0)">
<path d="M646.741 41.5548C646.809 41.923 647.064 42.2668 647.438 42.2918C647.927 42.3245 648.175 42.0462 648.275 41.2572C648.901 36.2566 653.06 32.823 657.822 33.2378C658.583 33.3069 658.918 33.5143 658.918 34.39C658.94 37.0631 658.896 39.6902 657.711 42.1559C655.408 46.9953 650.556 49.6915 645.704 48.8388C640.718 47.9862 636.716 43.6308 636.134 38.3536C636 37.0631 636.09 35.7496 636 34.4361C635.955 33.5604 636.335 33.3299 637.096 33.2608C641.679 32.846 645.816 36.1183 646.598 40.8194C646.647 41.0701 646.696 41.314 646.741 41.5548ZM655.139 38.3306C655.184 37.3627 654.469 36.5331 653.552 36.464C652.613 36.3948 651.808 37.1092 651.718 38.0771C651.629 39.1141 652.367 39.9667 653.351 39.9898C654.29 40.0359 655.072 39.2984 655.139 38.3306ZM641.545 40.0128C642.484 40.0128 643.244 39.2293 643.267 38.2614C643.289 37.2475 642.462 36.4409 641.478 36.487C640.539 36.5331 639.823 37.3166 639.846 38.3075C639.846 39.2754 640.584 40.0359 641.545 40.0128Z" fill="white"/>
<path d="M647.492 38.2613C645.055 33.422 641.344 31.3019 636.157 31.8089C636.157 30.2649 636.157 28.767 636.157 27.0848C643.691 29.7349 651.204 29.7349 658.784 27.0156C658.784 28.6518 658.784 30.1497 658.784 31.7858C656.391 31.5093 654.155 31.8319 652.076 33.0072C649.997 34.1824 648.543 35.9569 647.492 38.2613Z" fill="white"/>
</g>
<path d="M668.717 30.7686H670.511V28.3246L673.891 27.3626V30.7686H677.063V33.6286H673.891V38.6206C673.891 39.5219 673.978 40.1719 674.151 40.5706C674.342 40.9519 674.688 41.1426 675.191 41.1426C675.538 41.1426 675.832 41.1079 676.075 41.0386C676.335 40.9692 676.621 40.8652 676.933 40.7266L677.531 43.3266C677.063 43.5519 676.517 43.7426 675.893 43.8986C675.269 44.0546 674.636 44.1326 673.995 44.1326C672.799 44.1326 671.915 43.8292 671.343 43.2226C670.788 42.5986 670.511 41.5846 670.511 40.1806V33.6286H668.717V30.7686ZM682.383 30.7686V38.1526C682.383 39.2099 682.505 39.9726 682.747 40.4406C683.007 40.9086 683.501 41.1426 684.229 41.1426C684.871 41.1426 685.399 40.9519 685.815 40.5706C686.249 40.1892 686.569 39.7212 686.777 39.1666V30.7686H690.157V39.8166C690.157 40.5272 690.192 41.2292 690.261 41.9226C690.331 42.5986 690.435 43.2139 690.573 43.7686H688.025L687.427 41.8446H687.323C686.925 42.5032 686.37 43.0492 685.659 43.4826C684.949 43.9159 684.108 44.1326 683.137 44.1326C682.479 44.1326 681.889 44.0459 681.369 43.8726C680.849 43.6992 680.416 43.4132 680.069 43.0146C679.723 42.6159 679.454 42.0786 679.263 41.4026C679.09 40.7266 679.003 39.8772 679.003 38.8546V30.7686H682.383ZM691.772 30.7686H693.566V28.3246L696.946 27.3626V30.7686H700.118V33.6286H696.946V38.6206C696.946 39.5219 697.032 40.1719 697.206 40.5706C697.396 40.9519 697.743 41.1426 698.246 41.1426C698.592 41.1426 698.887 41.1079 699.13 41.0386C699.39 40.9692 699.676 40.8652 699.988 40.7266L700.586 43.3266C700.118 43.5519 699.572 43.7426 698.948 43.8986C698.324 44.0546 697.691 44.1326 697.05 44.1326C695.854 44.1326 694.97 43.8292 694.398 43.2226C693.843 42.5986 693.566 41.5846 693.566 40.1806V33.6286H691.772V30.7686ZM701.437 37.2686C701.437 35.0672 701.974 33.3772 703.049 32.1986C704.124 31.0026 705.632 30.4046 707.573 30.4046C708.613 30.4046 709.514 30.5692 710.277 30.8986C711.04 31.2279 711.672 31.6959 712.175 32.3026C712.678 32.8919 713.05 33.6112 713.293 34.4606C713.553 35.3099 713.683 36.2459 713.683 37.2686C713.683 39.4699 713.146 41.1686 712.071 42.3646C711.014 43.5432 709.514 44.1326 707.573 44.1326C706.533 44.1326 705.632 43.9679 704.869 43.6386C704.106 43.3092 703.465 42.8499 702.945 42.2606C702.442 41.6539 702.061 40.9259 701.801 40.0766C701.558 39.2272 701.437 38.2912 701.437 37.2686ZM704.921 37.2686C704.921 37.8406 704.973 38.3692 705.077 38.8546C705.181 39.3399 705.337 39.7646 705.545 40.1286C705.753 40.4926 706.022 40.7786 706.351 40.9866C706.698 41.1772 707.105 41.2726 707.573 41.2726C708.457 41.2726 709.116 40.9519 709.549 40.3106C709.982 39.6692 710.199 38.6552 710.199 37.2686C710.199 36.0726 710 35.1106 709.601 34.3826C709.202 33.6372 708.526 33.2646 707.573 33.2646C706.741 33.2646 706.091 33.5766 705.623 34.2006C705.155 34.8246 704.921 35.8472 704.921 37.2686ZM723.202 33.9406C722.665 33.7499 722.179 33.6546 721.746 33.6546C721.139 33.6546 720.628 33.8192 720.212 34.1486C719.813 34.4606 719.545 34.8679 719.406 35.3706V43.7686H716.026V30.7686H718.652L719.042 32.4846H719.146C719.441 31.8432 719.839 31.3492 720.342 31.0026C720.845 30.6559 721.434 30.4826 722.11 30.4826C722.561 30.4826 723.072 30.5779 723.644 30.7686L723.202 33.9406Z" fill="white"/>
<path d="M737.99 40.464C737.99 39.944 737.834 39.5367 737.522 39.242C737.21 38.9473 736.82 38.7047 736.352 38.514C735.901 38.306 735.398 38.1153 734.844 37.942C734.306 37.7513 733.804 37.5173 733.336 37.24C732.885 36.9453 732.504 36.5727 732.192 36.122C731.88 35.6713 731.724 35.0647 731.724 34.302C731.724 33.054 732.079 32.144 732.79 31.572C733.5 30.9827 734.488 30.688 735.754 30.688C736.69 30.688 737.47 30.7747 738.094 30.948C738.735 31.104 739.29 31.2947 739.758 31.52L739.264 33.236C738.865 33.0453 738.38 32.8807 737.808 32.742C737.253 32.586 736.655 32.508 736.014 32.508C735.251 32.508 734.688 32.638 734.324 32.898C733.977 33.158 733.804 33.6087 733.804 34.25C733.804 34.7007 733.96 35.056 734.272 35.316C734.584 35.5587 734.965 35.784 735.416 35.992C735.884 36.1827 736.386 36.3733 736.924 36.564C737.478 36.7547 737.981 37.006 738.432 37.318C738.9 37.63 739.29 38.0287 739.602 38.514C739.914 38.982 740.07 39.606 740.07 40.386C740.07 40.9407 739.974 41.4607 739.784 41.946C739.61 42.4313 739.333 42.8473 738.952 43.194C738.57 43.5407 738.094 43.8093 737.522 44C736.967 44.208 736.308 44.312 735.546 44.312C734.558 44.312 733.717 44.2167 733.024 44.026C732.33 43.8353 731.75 43.61 731.282 43.35L731.906 41.582C732.304 41.8073 732.824 42.0153 733.466 42.206C734.107 42.3967 734.757 42.492 735.416 42.492C736.161 42.492 736.776 42.3447 737.262 42.05C737.747 41.7553 737.99 41.2267 737.99 40.464ZM741.497 31H743.525V28.426L745.605 27.828V31H749.141V32.82H745.605V40.022C745.605 40.9233 745.718 41.5647 745.943 41.946C746.168 42.31 746.55 42.492 747.087 42.492C747.538 42.492 747.919 42.4487 748.231 42.362C748.543 42.258 748.89 42.128 749.271 41.972L749.739 43.558C749.271 43.7833 748.76 43.9653 748.205 44.104C747.65 44.2427 747.052 44.312 746.411 44.312C745.354 44.312 744.608 44.0173 744.175 43.428C743.742 42.8213 743.525 41.816 743.525 40.412V32.82H741.497V31ZM751.815 31.962C752.474 31.5633 753.237 31.2687 754.103 31.078C754.987 30.8873 755.906 30.792 756.859 30.792C757.761 30.792 758.48 30.9133 759.017 31.156C759.572 31.3987 759.988 31.7193 760.265 32.118C760.56 32.4993 760.751 32.924 760.837 33.392C760.941 33.86 760.993 34.328 760.993 34.796C760.993 35.836 760.967 36.85 760.915 37.838C760.863 38.826 760.837 39.762 760.837 40.646C760.837 41.2873 760.863 41.894 760.915 42.466C760.967 43.038 761.063 43.5667 761.201 44.052H759.667L759.121 42.232H758.991C758.835 42.4747 758.636 42.7173 758.393 42.96C758.168 43.1853 757.891 43.3933 757.561 43.584C757.232 43.7573 756.851 43.9047 756.417 44.026C755.984 44.1473 755.49 44.208 754.935 44.208C754.381 44.208 753.861 44.1213 753.375 43.948C752.907 43.7747 752.5 43.532 752.153 43.22C751.807 42.8907 751.529 42.5007 751.321 42.05C751.131 41.5993 751.035 41.088 751.035 40.516C751.035 39.7533 751.191 39.1207 751.503 38.618C751.815 38.098 752.249 37.6907 752.803 37.396C753.375 37.084 754.051 36.8673 754.831 36.746C755.629 36.6073 756.504 36.538 757.457 36.538C757.7 36.538 757.934 36.538 758.159 36.538C758.402 36.538 758.645 36.5553 758.887 36.59C758.939 36.07 758.965 35.602 758.965 35.186C758.965 34.2327 758.775 33.5653 758.393 33.184C758.012 32.8027 757.319 32.612 756.313 32.612C756.019 32.612 755.698 32.638 755.351 32.69C755.022 32.7247 754.675 32.7853 754.311 32.872C753.965 32.9413 753.627 33.0367 753.297 33.158C752.985 33.262 752.708 33.3833 752.465 33.522L751.815 31.962ZM755.507 42.388C755.993 42.388 756.426 42.3273 756.807 42.206C757.189 42.0673 757.518 41.9027 757.795 41.712C758.073 41.504 758.298 41.2787 758.471 41.036C758.662 40.7933 758.801 40.5593 758.887 40.334V38.176C758.645 38.1587 758.393 38.15 758.133 38.15C757.891 38.1327 757.648 38.124 757.405 38.124C756.868 38.124 756.339 38.1587 755.819 38.228C755.317 38.28 754.866 38.3927 754.467 38.566C754.086 38.722 753.774 38.9473 753.531 39.242C753.306 39.5193 753.193 39.8747 753.193 40.308C753.193 40.9147 753.41 41.4173 753.843 41.816C754.277 42.1973 754.831 42.388 755.507 42.388ZM771.058 33.002C770.538 32.8287 770.044 32.742 769.576 32.742C768.831 32.742 768.241 32.95 767.808 33.366C767.375 33.7647 767.106 34.276 767.002 34.9V44H764.922V31H766.378L766.768 32.586H766.872C767.201 31.9967 767.591 31.546 768.042 31.234C768.51 30.9047 769.099 30.74 769.81 30.74C770.313 30.74 770.876 30.8267 771.5 31L771.058 33.002ZM772.829 31H774.857V28.426L776.937 27.828V31H780.473V32.82H776.937V40.022C776.937 40.9233 777.05 41.5647 777.275 41.946C777.5 42.31 777.882 42.492 778.419 42.492C778.87 42.492 779.251 42.4487 779.563 42.362C779.875 42.258 780.222 42.128 780.603 41.972L781.071 43.558C780.603 43.7833 780.092 43.9653 779.537 44.104C778.982 44.2427 778.384 44.312 777.743 44.312C776.686 44.312 775.94 44.0173 775.507 43.428C775.074 42.8213 774.857 41.816 774.857 40.412V32.82H772.829V31ZM792.566 42.96C792.046 43.376 791.388 43.7053 790.59 43.948C789.81 44.1907 788.978 44.312 788.094 44.312C787.106 44.312 786.248 44.156 785.52 43.844C784.792 43.5147 784.194 43.0553 783.726 42.466C783.258 41.8593 782.912 41.14 782.686 40.308C782.461 39.476 782.348 38.54 782.348 37.5C782.348 35.2813 782.842 33.5913 783.83 32.43C784.818 31.2687 786.231 30.688 788.068 30.688C788.658 30.688 789.247 30.7573 789.836 30.896C790.426 31.0173 790.954 31.26 791.422 31.624C791.89 31.988 792.272 32.508 792.566 33.184C792.861 33.8427 793.008 34.718 793.008 35.81C793.008 36.382 792.956 37.0147 792.852 37.708H784.506C784.506 38.4707 784.584 39.1467 784.74 39.736C784.896 40.3253 785.139 40.828 785.468 41.244C785.798 41.6427 786.222 41.9547 786.742 42.18C787.28 42.388 787.93 42.492 788.692 42.492C789.282 42.492 789.871 42.388 790.46 42.18C791.05 41.972 791.492 41.7293 791.786 41.452L792.566 42.96ZM788.094 32.508C787.072 32.508 786.248 32.7767 785.624 33.314C785.018 33.8513 784.654 34.77 784.532 36.07H790.98C790.98 34.7527 790.729 33.834 790.226 33.314C789.724 32.7767 789.013 32.508 788.094 32.508ZM802.415 33.002C801.895 32.8287 801.401 32.742 800.933 32.742C800.188 32.742 799.599 32.95 799.165 33.366C798.732 33.7647 798.463 34.276 798.359 34.9V44H796.279V31H797.735L798.125 32.586H798.229C798.559 31.9967 798.949 31.546 799.399 31.234C799.867 30.9047 800.457 30.74 801.167 30.74C801.67 30.74 802.233 30.8267 802.857 31L802.415 33.002Z" fill="white"/>
<path d="M66.397 42C69.9425 42 71.9936 39.8011 71.9936 36.1648C71.9936 32.5455 69.9425 30.3636 66.5163 30.3636H62.63V42H66.397ZM64.3857 40.4659V31.8977H66.4084C68.9538 31.8977 70.2663 33.4205 70.2663 36.1648C70.2663 38.9205 68.9538 40.4659 66.3004 40.4659H64.3857ZM77.8018 42.1761C79.7053 42.1761 81.0518 41.2386 81.4382 39.8182L79.8303 39.5284C79.5234 40.3523 78.7848 40.7727 77.8189 40.7727C76.3643 40.7727 75.3871 39.8295 75.3416 38.1477H81.5462V37.5455C81.5462 34.392 79.6598 33.1591 77.6825 33.1591C75.2507 33.1591 73.6484 35.0114 73.6484 37.6932C73.6484 40.4034 75.228 42.1761 77.8018 42.1761ZM75.3473 36.875C75.4155 35.6364 76.3132 34.5625 77.6939 34.5625C79.0121 34.5625 79.8757 35.5398 79.8814 36.875H75.3473ZM83.4311 42H85.13V36.6193C85.13 35.4432 85.9538 34.625 86.9197 34.625C87.8629 34.625 88.5163 35.25 88.5163 36.1989V42H90.2095V36.4375C90.2095 35.3864 90.8516 34.625 91.9595 34.625C92.8572 34.625 93.5959 35.125 93.5959 36.3068V42H95.2947V36.1477C95.2947 34.1534 94.1811 33.1591 92.6016 33.1591C91.3459 33.1591 90.4027 33.7614 89.9822 34.6932H89.8913C89.5107 33.7386 88.7095 33.1591 87.5447 33.1591C86.3913 33.1591 85.5334 33.733 85.1697 34.6932H85.0618V33.2727H83.4311V42ZM101.248 42.1761C103.708 42.1761 105.316 40.375 105.316 37.6761C105.316 34.9602 103.708 33.1591 101.248 33.1591C98.7876 33.1591 97.1797 34.9602 97.1797 37.6761C97.1797 40.375 98.7876 42.1761 101.248 42.1761ZM101.254 40.75C99.6456 40.75 98.8956 39.3466 98.8956 37.6705C98.8956 36 99.6456 34.5795 101.254 34.5795C102.85 34.5795 103.6 36 103.6 37.6705C103.6 39.3466 102.85 40.75 101.254 40.75ZM113.752 35.4034C113.4 34.0455 112.337 33.1591 110.451 33.1591C108.479 33.1591 107.082 34.1989 107.082 35.7443C107.082 36.983 107.832 37.8068 109.468 38.1705L110.945 38.4943C111.786 38.6818 112.178 39.0568 112.178 39.6023C112.178 40.2784 111.457 40.8068 110.343 40.8068C109.326 40.8068 108.673 40.3693 108.468 39.5114L106.826 39.7614C107.11 41.3068 108.394 42.1761 110.354 42.1761C112.462 42.1761 113.923 41.0568 113.923 39.4773C113.923 38.2443 113.138 37.483 111.536 37.1136L110.15 36.7955C109.19 36.5682 108.775 36.2443 108.781 35.6534C108.775 34.983 109.502 34.5057 110.468 34.5057C111.525 34.5057 112.013 35.0909 112.212 35.6761L113.752 35.4034Z" fill="white"/>
<path d="M259.612 42H261.021V37.75H263.567C266.277 37.75 267.499 36.1023 267.499 34.0455C267.499 31.9886 266.277 30.3636 263.544 30.3636H259.612V42ZM261.021 36.5V31.6136H263.499C265.391 31.6136 266.112 32.6477 266.112 34.0455C266.112 35.4432 265.391 36.5 263.521 36.5H261.021ZM272.155 42.2045C273.678 42.2045 274.473 41.3864 274.746 40.8182H274.814V42H276.155V36.25C276.155 33.4773 274.041 33.1591 272.928 33.1591C271.609 33.1591 270.109 33.6136 269.428 35.2045L270.7 35.6591C270.996 35.0227 271.695 34.3409 272.973 34.3409C274.206 34.3409 274.814 34.9943 274.814 36.1136V36.1591C274.814 36.8068 274.155 36.75 272.564 36.9545C270.945 37.1648 269.178 37.5227 269.178 39.5227C269.178 41.2273 270.496 42.2045 272.155 42.2045ZM272.359 41C271.291 41 270.518 40.5227 270.518 39.5909C270.518 38.5682 271.45 38.25 272.496 38.1136C273.064 38.0455 274.587 37.8864 274.814 37.6136V38.8409C274.814 39.9318 273.95 41 272.359 41ZM282.125 45.4545C284.216 45.4545 285.898 44.5 285.898 42.25V33.2727H284.602V34.6591H284.466C284.17 34.2045 283.625 33.1591 281.92 33.1591C279.716 33.1591 278.193 34.9091 278.193 37.5909C278.193 40.3182 279.784 41.8636 281.898 41.8636C283.602 41.8636 284.148 40.8636 284.443 40.3864H284.557V42.1591C284.557 43.6136 283.534 44.2727 282.125 44.2727C280.54 44.2727 279.983 43.4375 279.625 42.9545L278.557 43.7045C279.102 44.6193 280.176 45.4545 282.125 45.4545ZM282.08 40.6591C280.398 40.6591 279.534 39.3864 279.534 37.5682C279.534 35.7955 280.375 34.3636 282.08 34.3636C283.716 34.3636 284.58 35.6818 284.58 37.5682C284.58 39.5 283.693 40.6591 282.08 40.6591ZM292.011 42.1818C293.784 42.1818 295.08 41.2955 295.489 39.9773L294.193 39.6136C293.852 40.5227 293.062 40.9773 292.011 40.9773C290.437 40.9773 289.352 39.9602 289.29 38.0909H295.625V37.5227C295.625 34.2727 293.693 33.1591 291.875 33.1591C289.511 33.1591 287.943 35.0227 287.943 37.7045C287.943 40.3864 289.489 42.1818 292.011 42.1818ZM289.29 36.9318C289.381 35.5739 290.341 34.3636 291.875 34.3636C293.33 34.3636 294.261 35.4545 294.261 36.9318H289.29ZM303.847 35.2273C303.426 33.9886 302.483 33.1591 300.756 33.1591C298.915 33.1591 297.551 34.2045 297.551 35.6818C297.551 36.8864 298.267 37.6932 299.869 38.0682L301.324 38.4091C302.205 38.6136 302.619 39.0341 302.619 39.6364C302.619 40.3864 301.824 41 300.574 41C299.477 41 298.79 40.5284 298.551 39.5909L297.278 39.9091C297.591 41.392 298.812 42.1818 300.597 42.1818C302.625 42.1818 304.006 41.0739 304.006 39.5682C304.006 38.3523 303.244 37.5852 301.687 37.2045L300.392 36.8864C299.358 36.6307 298.892 36.2841 298.892 35.6136C298.892 34.8636 299.687 34.3182 300.756 34.3182C301.926 34.3182 302.409 34.9659 302.642 35.5682L303.847 35.2273Z" fill="white"/>
<path d="M309.94 33.7267L313 36.78L316.06 33.7267L317 34.6667L313 38.6667L309 34.6667L309.94 33.7267Z" fill="white"/>
<path d="M166.038 34C165.607 31.6136 163.697 30.2045 161.357 30.2045C158.379 30.2045 156.22 32.5 156.22 36.1818C156.22 39.8636 158.379 42.1591 161.357 42.1591C163.697 42.1591 165.607 40.75 166.038 38.3636H164.629C164.288 39.9773 162.902 40.8409 161.357 40.8409C159.243 40.8409 157.584 39.2045 157.584 36.1818C157.584 33.1591 159.243 31.5227 161.357 31.5227C162.902 31.5227 164.288 32.3864 164.629 34H166.038ZM171.679 42.1818C174.043 42.1818 175.634 40.3864 175.634 37.6818C175.634 34.9545 174.043 33.1591 171.679 33.1591C169.315 33.1591 167.724 34.9545 167.724 37.6818C167.724 40.3864 169.315 42.1818 171.679 42.1818ZM171.679 40.9773C169.884 40.9773 169.065 39.4318 169.065 37.6818C169.065 35.9318 169.884 34.3636 171.679 34.3636C173.474 34.3636 174.293 35.9318 174.293 37.6818C174.293 39.4318 173.474 40.9773 171.679 40.9773ZM183.18 38.4318C183.18 40.0682 181.93 40.8182 180.93 40.8182C179.817 40.8182 179.021 40 179.021 38.7273V33.2727H177.68V38.8182C177.68 41.0455 178.862 42.1136 180.499 42.1136C181.817 42.1136 182.68 41.4091 183.089 40.5227H183.18V42H184.521V33.2727H183.18V38.4318ZM186.977 42H188.318V36.4773C188.318 35.2955 189.25 34.4318 190.523 34.4318C190.881 34.4318 191.25 34.5 191.341 34.5227V33.1591C191.187 33.1477 190.835 33.1364 190.636 33.1364C189.591 33.1364 188.682 33.7273 188.364 34.5909H188.273V33.2727H186.977V42ZM199.112 35.2273C198.692 33.9886 197.749 33.1591 196.021 33.1591C194.18 33.1591 192.817 34.2045 192.817 35.6818C192.817 36.8864 193.533 37.6932 195.135 38.0682L196.589 38.4091C197.47 38.6136 197.885 39.0341 197.885 39.6364C197.885 40.3864 197.089 41 195.839 41C194.743 41 194.055 40.5284 193.817 39.5909L192.544 39.9091C192.857 41.392 194.078 42.1818 195.862 42.1818C197.891 42.1818 199.271 41.0739 199.271 39.5682C199.271 38.3523 198.51 37.5852 196.953 37.2045L195.658 36.8864C194.624 36.6307 194.158 36.2841 194.158 35.6136C194.158 34.8636 194.953 34.3182 196.021 34.3182C197.192 34.3182 197.675 34.9659 197.908 35.5682L199.112 35.2273ZM204.949 42.1818C206.722 42.1818 208.017 41.2955 208.426 39.9773L207.131 39.6136C206.79 40.5227 206 40.9773 204.949 40.9773C203.375 40.9773 202.29 39.9602 202.227 38.0909H208.562V37.5227C208.562 34.2727 206.631 33.1591 204.812 33.1591C202.449 33.1591 200.881 35.0227 200.881 37.7045C200.881 40.3864 202.426 42.1818 204.949 42.1818ZM202.227 36.9318C202.318 35.5739 203.278 34.3636 204.812 34.3636C206.267 34.3636 207.199 35.4545 207.199 36.9318H202.227ZM216.784 35.2273C216.364 33.9886 215.42 33.1591 213.693 33.1591C211.852 33.1591 210.489 34.2045 210.489 35.6818C210.489 36.8864 211.205 37.6932 212.807 38.0682L214.261 38.4091C215.142 38.6136 215.557 39.0341 215.557 39.6364C215.557 40.3864 214.761 41 213.511 41C212.415 41 211.727 40.5284 211.489 39.5909L210.216 39.9091C210.528 41.392 211.75 42.1818 213.534 42.1818C215.562 42.1818 216.943 41.0739 216.943 39.5682C216.943 38.3523 216.182 37.5852 214.625 37.2045L213.33 36.8864C212.295 36.6307 211.83 36.2841 211.83 35.6136C211.83 34.8636 212.625 34.3182 213.693 34.3182C214.864 34.3182 215.347 34.9659 215.58 35.5682L216.784 35.2273Z" fill="white"/>
<line x1="63" y1="53" x2="89" y2="53" stroke="white" stroke-width="2" stroke-linecap="round" stroke-linejoin="round"/>
<rect x="1277" y="22" width="112" height="32" rx="16" fill="#1950D1"/>
<path d="M1298.02 42H1304.68V40.4538H1299.86V37.6747H1304.3V36.1286H1299.86V33.3643H1304.64V31.8182H1298.02V42ZM1308.24 37.5256C1308.24 36.4219 1308.91 35.7855 1309.86 35.7855C1310.79 35.7855 1311.35 36.397 1311.35 37.4162V42H1313.15V37.1378C1313.15 35.3082 1312.11 34.2642 1310.53 34.2642C1309.39 34.2642 1308.6 34.8111 1308.25 35.6612H1308.16V34.3636H1306.44V42H1308.24V37.5256ZM1314.98 42H1316.78V37.5107C1316.78 36.5412 1317.51 35.8551 1318.5 35.8551C1318.8 35.8551 1319.18 35.9098 1319.33 35.9595V34.304C1319.17 34.2741 1318.88 34.2543 1318.68 34.2543C1317.81 34.2543 1317.08 34.7514 1316.8 35.6364H1316.72V34.3636H1314.98V42ZM1323.54 42.1491C1325.78 42.1491 1327.2 40.5732 1327.2 38.2116C1327.2 35.8452 1325.78 34.2642 1323.54 34.2642C1321.31 34.2642 1319.88 35.8452 1319.88 38.2116C1319.88 40.5732 1321.31 42.1491 1323.54 42.1491ZM1323.55 40.7074C1322.31 40.7074 1321.71 39.6037 1321.71 38.2067C1321.71 36.8097 1322.31 35.6911 1323.55 35.6911C1324.77 35.6911 1325.38 36.8097 1325.38 38.2067C1325.38 39.6037 1324.77 40.7074 1323.55 40.7074ZM1330.53 31.8182H1328.73V42H1330.53V31.8182ZM1334.18 31.8182H1332.38V42H1334.18V31.8182ZM1347.95 31.8182H1346.12V38.7585H1346.03L1341.23 31.8182H1339.58V42H1341.43V35.0646H1341.51L1346.31 42H1347.95V31.8182ZM1353.21 42.1491C1355.45 42.1491 1356.87 40.5732 1356.87 38.2116C1356.87 35.8452 1355.45 34.2642 1353.21 34.2642C1350.97 34.2642 1349.55 35.8452 1349.55 38.2116C1349.55 40.5732 1350.97 42.1491 1353.21 42.1491ZM1353.22 40.7074C1351.98 40.7074 1351.38 39.6037 1351.38 38.2067C1351.38 36.8097 1351.98 35.6911 1353.22 35.6911C1354.44 35.6911 1355.05 36.8097 1355.05 38.2067C1355.05 39.6037 1354.44 40.7074 1353.22 40.7074ZM1359.77 42H1361.65L1363.08 36.8395H1363.18L1364.62 42H1366.49L1368.65 34.3636H1366.81L1365.49 39.7031H1365.42L1364.04 34.3636H1362.23L1360.86 39.733H1360.79L1359.45 34.3636H1357.61L1359.77 42Z" fill="white"/>
<path d="M1241.38 41.6808C1242.37 40.6987 1242.86 39.5193 1242.86 38.1429C1242.86 36.7664 1242.37 35.5908 1241.38 34.6161C1240.41 33.6339 1239.23 33.1429 1237.86 33.1429C1236.48 33.1429 1235.3 33.6339 1234.32 34.6161C1233.34 35.5908 1232.86 36.7664 1232.86 38.1429C1232.86 39.5193 1233.34 40.6987 1234.32 41.6808C1235.3 42.6555 1236.48 43.1429 1237.86 43.1429C1239.23 43.1429 1240.41 42.6555 1241.38 41.6808ZM1248.57 47.4286C1248.57 47.8155 1248.43 48.1503 1248.15 48.433C1247.86 48.7158 1247.53 48.8571 1247.14 48.8571C1246.74 48.8571 1246.41 48.7158 1246.14 48.433L1242.31 44.6161C1240.98 45.5387 1239.49 46 1237.86 46C1236.79 46 1235.77 45.7954 1234.8 45.3862C1233.83 44.9695 1232.99 44.4115 1232.29 43.7121C1231.59 43.0052 1231.03 42.1682 1230.61 41.2009C1230.2 40.2262 1230 39.2068 1230 38.1429C1230 37.0789 1230.2 36.0632 1230.61 35.096C1231.03 34.1213 1231.59 33.2842 1232.29 32.5848C1232.99 31.878 1233.83 31.3199 1234.8 30.9107C1235.77 30.494 1236.79 30.2857 1237.86 30.2857C1238.92 30.2857 1239.94 30.494 1240.9 30.9107C1241.88 31.3199 1242.72 31.878 1243.42 32.5848C1244.12 33.2842 1244.68 34.1213 1245.09 35.096C1245.51 36.0632 1245.71 37.0789 1245.71 38.1429C1245.71 39.7798 1245.25 41.2641 1244.33 42.596L1248.16 46.4241C1248.43 46.6994 1248.57 47.0342 1248.57 47.4286Z" fill="white"/>
<defs>
<clipPath id="clip0">
<rect width="22.9402" height="21.9844" fill="white" transform="translate(636 27.0156)"/>
</clipPath>
</defs>
</svg>
