<svg width="1440" height="82" viewBox="0 0 1440 82" fill="none" xmlns="http://www.w3.org/2000/svg">
<rect width="1440" height="82" fill="white"/>
<g clip-path="url(#clip0)">
<path d="M54.3839 42.4103C54.4538 42.7784 54.7096 43.1373 55.0842 43.1323C55.4621 43.1273 55.6588 42.873 55.7408 42.2249C56.2886 37.8493 59.9275 34.8449 64.0946 35.2079C64.7598 35.2684 65.0533 35.4498 65.0533 36.2161C65.0728 38.5551 65.0337 40.8538 63.9968 43.0113C61.9817 47.2457 57.7363 49.6049 53.4909 48.8588C49.1282 48.1127 45.6262 44.3018 45.1175 39.6843C45.0002 38.5551 45.0784 37.4057 45.0002 36.2564C44.961 35.4902 45.2936 35.2885 45.9588 35.228C49.9694 34.8651 53.5888 37.7284 54.2735 41.8418C54.311 42.0352 54.3486 42.224 54.3839 42.4103ZM61.7469 39.6641C61.7861 38.8172 61.16 38.0913 60.3579 38.0308C59.5362 37.9703 58.8319 38.5954 58.7536 39.4423C58.6754 40.3497 59.321 41.0957 60.1818 41.1159C61.0035 41.1562 61.6882 40.511 61.7469 39.6641ZM49.852 41.1361C50.6737 41.1361 51.3389 40.4505 51.3585 39.6036C51.378 38.7164 50.6542 38.0107 49.7933 38.051C48.9717 38.0913 48.3456 38.7769 48.3652 39.6439C48.3652 40.4908 49.0108 41.1562 49.852 41.1361Z" fill="#175CFF"/>
<path d="M55.0557 39.6035C52.9232 35.3691 49.6756 33.514 45.1367 33.9576C45.1367 32.6066 45.1367 31.296 45.1367 29.824C51.7298 32.1429 58.3033 32.1429 64.9355 29.7635C64.9355 31.1952 64.9355 32.5058 64.9355 33.9375C62.8421 33.6955 60.8857 33.9778 59.0663 35.0061C57.2468 36.0345 55.9752 37.5871 55.0557 39.6035Z" fill="#0B3DB4"/>
</g>
<path d="M71.8732 34.6726H73.3912V32.6046L76.2512 31.7906V34.6726H78.9352V37.0926H76.2512V41.3166C76.2512 42.0793 76.3245 42.6293 76.4712 42.9666C76.6325 43.2893 76.9259 43.4506 77.3512 43.4506C77.6445 43.4506 77.8939 43.4213 78.0992 43.3626C78.3192 43.3039 78.5612 43.2159 78.8252 43.0986L79.3312 45.2986C78.9352 45.4893 78.4732 45.6506 77.9452 45.7826C77.4172 45.9146 76.8819 45.9806 76.3392 45.9806C75.3272 45.9806 74.5792 45.7239 74.0952 45.2106C73.6259 44.6826 73.3912 43.8246 73.3912 42.6366V37.0926H71.8732V34.6726ZM83.4371 34.6726V40.9206C83.4371 41.8153 83.5398 42.4606 83.7451 42.8566C83.9651 43.2526 84.3831 43.4506 84.9991 43.4506C85.5418 43.4506 85.9891 43.2893 86.3411 42.9666C86.7078 42.6439 86.9791 42.2479 87.1551 41.7786V34.6726H90.0151V42.3286C90.0151 42.9299 90.0444 43.5239 90.1031 44.1106C90.1618 44.6826 90.2498 45.2033 90.3671 45.6726H88.2111L87.7051 44.0446H87.6171C87.2798 44.6019 86.8104 45.0639 86.2091 45.4306C85.6078 45.7973 84.8964 45.9806 84.0751 45.9806C83.5178 45.9806 83.0191 45.9073 82.5791 45.7606C82.1391 45.6139 81.7724 45.3719 81.4791 45.0346C81.1858 44.6973 80.9584 44.2426 80.7971 43.6706C80.6504 43.0986 80.5771 42.3799 80.5771 41.5146V34.6726H83.4371ZM91.381 34.6726H92.899V32.6046L95.759 31.7906V34.6726H98.443V37.0926H95.759V41.3166C95.759 42.0793 95.8323 42.6293 95.979 42.9666C96.1403 43.2893 96.4337 43.4506 96.859 43.4506C97.1523 43.4506 97.4017 43.4213 97.607 43.3626C97.827 43.3039 98.069 43.2159 98.333 43.0986L98.839 45.2986C98.443 45.4893 97.981 45.6506 97.453 45.7826C96.925 45.9146 96.3897 45.9806 95.847 45.9806C94.835 45.9806 94.087 45.7239 93.603 45.2106C93.1337 44.6826 92.899 43.8246 92.899 42.6366V37.0926H91.381V34.6726ZM99.5595 40.1726C99.5595 38.3099 100.014 36.8799 100.923 35.8826C101.833 34.8706 103.109 34.3646 104.751 34.3646C105.631 34.3646 106.394 34.5039 107.039 34.7826C107.685 35.0613 108.22 35.4573 108.645 35.9706C109.071 36.4693 109.386 37.0779 109.591 37.7966C109.811 38.5153 109.921 39.3073 109.921 40.1726C109.921 42.0353 109.467 43.4726 108.557 44.4846C107.663 45.4819 106.394 45.9806 104.751 45.9806C103.871 45.9806 103.109 45.8413 102.463 45.5626C101.818 45.2839 101.275 44.8953 100.835 44.3966C100.41 43.8833 100.087 43.2673 99.8675 42.5486C99.6622 41.8299 99.5595 41.0379 99.5595 40.1726ZM102.507 40.1726C102.507 40.6566 102.551 41.1039 102.639 41.5146C102.727 41.9253 102.859 42.2846 103.035 42.5926C103.211 42.9006 103.439 43.1426 103.717 43.3186C104.011 43.4799 104.355 43.5606 104.751 43.5606C105.499 43.5606 106.057 43.2893 106.423 42.7466C106.79 42.2039 106.973 41.3459 106.973 40.1726C106.973 39.1606 106.805 38.3466 106.467 37.7306C106.13 37.0999 105.558 36.7846 104.751 36.7846C104.047 36.7846 103.497 37.0486 103.101 37.5766C102.705 38.1046 102.507 38.9699 102.507 40.1726ZM117.976 37.3566C117.521 37.1953 117.111 37.1146 116.744 37.1146C116.231 37.1146 115.798 37.2539 115.446 37.5326C115.109 37.7966 114.881 38.1413 114.764 38.5666V45.6726H111.904V34.6726H114.126L114.456 36.1246H114.544C114.793 35.5819 115.131 35.1639 115.556 34.8706C115.981 34.5773 116.48 34.4306 117.052 34.4306C117.433 34.4306 117.866 34.5113 118.35 34.6726L117.976 37.3566Z" fill="#0A083B"/>
<path d="M129.643 42.008C129.643 41.568 129.511 41.2233 129.247 40.974C128.983 40.7247 128.653 40.5193 128.257 40.358C127.876 40.182 127.45 40.0207 126.981 39.874C126.526 39.7127 126.101 39.5147 125.705 39.28C125.324 39.0307 125.001 38.7153 124.737 38.334C124.473 37.9527 124.341 37.4393 124.341 36.794C124.341 35.738 124.642 34.968 125.243 34.484C125.844 33.9853 126.68 33.736 127.751 33.736C128.543 33.736 129.203 33.8093 129.731 33.956C130.274 34.088 130.743 34.2493 131.139 34.44L130.721 35.892C130.384 35.7307 129.973 35.5913 129.489 35.474C129.02 35.342 128.514 35.276 127.971 35.276C127.326 35.276 126.849 35.386 126.541 35.606C126.248 35.826 126.101 36.2073 126.101 36.75C126.101 37.1313 126.233 37.432 126.497 37.652C126.761 37.8573 127.084 38.048 127.465 38.224C127.861 38.3853 128.286 38.5467 128.741 38.708C129.21 38.8693 129.636 39.082 130.017 39.346C130.413 39.61 130.743 39.9473 131.007 40.358C131.271 40.754 131.403 41.282 131.403 41.942C131.403 42.4113 131.322 42.8513 131.161 43.262C131.014 43.6727 130.78 44.0247 130.457 44.318C130.134 44.6113 129.731 44.8387 129.247 45C128.778 45.176 128.22 45.264 127.575 45.264C126.739 45.264 126.028 45.1833 125.441 45.022C124.854 44.8607 124.363 44.67 123.967 44.45L124.495 42.954C124.832 43.1447 125.272 43.3207 125.815 43.482C126.358 43.6433 126.908 43.724 127.465 43.724C128.096 43.724 128.616 43.5993 129.027 43.35C129.438 43.1007 129.643 42.6533 129.643 42.008ZM132.611 34H134.327V31.822L136.087 31.316V34H139.079V35.54H136.087V41.634C136.087 42.3967 136.182 42.9393 136.373 43.262C136.563 43.57 136.886 43.724 137.341 43.724C137.722 43.724 138.045 43.6873 138.309 43.614C138.573 43.526 138.866 43.416 139.189 43.284L139.585 44.626C139.189 44.8167 138.756 44.9707 138.287 45.088C137.817 45.2053 137.311 45.264 136.769 45.264C135.874 45.264 135.243 45.0147 134.877 44.516C134.51 44.0027 134.327 43.152 134.327 41.964V35.54H132.611V34ZM141.342 34.814C141.899 34.4767 142.544 34.2273 143.278 34.066C144.026 33.9047 144.803 33.824 145.61 33.824C146.372 33.824 146.981 33.9267 147.436 34.132C147.905 34.3373 148.257 34.6087 148.492 34.946C148.741 35.2687 148.902 35.628 148.976 36.024C149.064 36.42 149.108 36.816 149.108 37.212C149.108 38.092 149.086 38.95 149.042 39.786C148.998 40.622 148.976 41.414 148.976 42.162C148.976 42.7047 148.998 43.218 149.042 43.702C149.086 44.186 149.166 44.6333 149.284 45.044H147.986L147.524 43.504H147.414C147.282 43.7093 147.113 43.9147 146.908 44.12C146.717 44.3107 146.482 44.4867 146.204 44.648C145.925 44.7947 145.602 44.9193 145.236 45.022C144.869 45.1247 144.451 45.176 143.982 45.176C143.512 45.176 143.072 45.1027 142.662 44.956C142.266 44.8093 141.921 44.604 141.628 44.34C141.334 44.0613 141.1 43.7313 140.924 43.35C140.762 42.9687 140.682 42.536 140.682 42.052C140.682 41.4067 140.814 40.8713 141.078 40.446C141.342 40.006 141.708 39.6613 142.178 39.412C142.662 39.148 143.234 38.9647 143.894 38.862C144.568 38.7447 145.309 38.686 146.116 38.686C146.321 38.686 146.519 38.686 146.71 38.686C146.915 38.686 147.12 38.7007 147.326 38.73C147.37 38.29 147.392 37.894 147.392 37.542C147.392 36.7353 147.23 36.1707 146.908 35.848C146.585 35.5253 145.998 35.364 145.148 35.364C144.898 35.364 144.627 35.386 144.334 35.43C144.055 35.4593 143.762 35.5107 143.454 35.584C143.16 35.6427 142.874 35.7233 142.596 35.826C142.332 35.914 142.097 36.0167 141.892 36.134L141.342 34.814ZM144.466 43.636C144.876 43.636 145.243 43.5847 145.566 43.482C145.888 43.3647 146.167 43.2253 146.402 43.064C146.636 42.888 146.827 42.6973 146.974 42.492C147.135 42.2867 147.252 42.0887 147.326 41.898V40.072C147.12 40.0573 146.908 40.05 146.688 40.05C146.482 40.0353 146.277 40.028 146.072 40.028C145.617 40.028 145.17 40.0573 144.73 40.116C144.304 40.16 143.923 40.2553 143.586 40.402C143.263 40.534 142.999 40.7247 142.794 40.974C142.603 41.2087 142.508 41.5093 142.508 41.876C142.508 42.3893 142.691 42.8147 143.058 43.152C143.424 43.4747 143.894 43.636 144.466 43.636ZM157.624 35.694C157.184 35.5473 156.766 35.474 156.37 35.474C155.739 35.474 155.24 35.65 154.874 36.002C154.507 36.3393 154.28 36.772 154.192 37.3V45H152.432V34H153.664L153.994 35.342H154.082C154.36 34.8433 154.69 34.462 155.072 34.198C155.468 33.9193 155.966 33.78 156.568 33.78C156.993 33.78 157.47 33.8533 157.998 34L157.624 35.694ZM159.122 34H160.838V31.822L162.598 31.316V34H165.59V35.54H162.598V41.634C162.598 42.3967 162.694 42.9393 162.884 43.262C163.075 43.57 163.398 43.724 163.852 43.724C164.234 43.724 164.556 43.6873 164.82 43.614C165.084 43.526 165.378 43.416 165.7 43.284L166.096 44.626C165.7 44.8167 165.268 44.9707 164.798 45.088C164.329 45.2053 163.823 45.264 163.28 45.264C162.386 45.264 161.755 45.0147 161.388 44.516C161.022 44.0027 160.838 43.152 160.838 41.964V35.54H159.122V34ZM175.823 44.12C175.383 44.472 174.826 44.7507 174.151 44.956C173.491 45.1613 172.787 45.264 172.039 45.264C171.203 45.264 170.477 45.132 169.861 44.868C169.245 44.5893 168.739 44.2007 168.343 43.702C167.947 43.1887 167.654 42.58 167.463 41.876C167.272 41.172 167.177 40.38 167.177 39.5C167.177 37.6227 167.595 36.1927 168.431 35.21C169.267 34.2273 170.462 33.736 172.017 33.736C172.516 33.736 173.014 33.7947 173.513 33.912C174.012 34.0147 174.459 34.22 174.855 34.528C175.251 34.836 175.574 35.276 175.823 35.848C176.072 36.4053 176.197 37.146 176.197 38.07C176.197 38.554 176.153 39.0893 176.065 39.676H169.003C169.003 40.3213 169.069 40.8933 169.201 41.392C169.333 41.8907 169.538 42.316 169.817 42.668C170.096 43.0053 170.455 43.2693 170.895 43.46C171.35 43.636 171.9 43.724 172.545 43.724C173.044 43.724 173.542 43.636 174.041 43.46C174.54 43.284 174.914 43.0787 175.163 42.844L175.823 44.12ZM172.039 35.276C171.174 35.276 170.477 35.5033 169.949 35.958C169.436 36.4127 169.128 37.19 169.025 38.29H174.481C174.481 37.1753 174.268 36.398 173.843 35.958C173.418 35.5033 172.816 35.276 172.039 35.276ZM184.157 35.694C183.717 35.5473 183.299 35.474 182.903 35.474C182.272 35.474 181.774 35.65 181.407 36.002C181.04 36.3393 180.813 36.772 180.725 37.3V45H178.965V34H180.197L180.527 35.342H180.615C180.894 34.8433 181.224 34.462 181.605 34.198C182.001 33.9193 182.5 33.78 183.101 33.78C183.526 33.78 184.003 33.8533 184.531 34L184.157 35.694Z" fill="#0A083B"/>
<path d="M983.397 45C986.942 45 988.994 42.8011 988.994 39.1648C988.994 35.5455 986.942 33.3636 983.516 33.3636H979.63V45H983.397ZM981.386 43.4659V34.8977H983.408C985.954 34.8977 987.266 36.4205 987.266 39.1648C987.266 41.9205 985.954 43.4659 983.3 43.4659H981.386ZM994.802 45.1761C996.705 45.1761 998.052 44.2386 998.438 42.8182L996.83 42.5284C996.523 43.3523 995.785 43.7727 994.819 43.7727C993.364 43.7727 992.387 42.8295 992.342 41.1477H998.546V40.5455C998.546 37.392 996.66 36.1591 994.683 36.1591C992.251 36.1591 990.648 38.0114 990.648 40.6932C990.648 43.4034 992.228 45.1761 994.802 45.1761ZM992.347 39.875C992.415 38.6364 993.313 37.5625 994.694 37.5625C996.012 37.5625 996.876 38.5398 996.881 39.875H992.347ZM1000.43 45H1002.13V39.6193C1002.13 38.4432 1002.95 37.625 1003.92 37.625C1004.86 37.625 1005.52 38.25 1005.52 39.1989V45H1007.21V39.4375C1007.21 38.3864 1007.85 37.625 1008.96 37.625C1009.86 37.625 1010.6 38.125 1010.6 39.3068V45H1012.29V39.1477C1012.29 37.1534 1011.18 36.1591 1009.6 36.1591C1008.35 36.1591 1007.4 36.7614 1006.98 37.6932H1006.89C1006.51 36.7386 1005.71 36.1591 1004.54 36.1591C1003.39 36.1591 1002.53 36.733 1002.17 37.6932H1002.06V36.2727H1000.43V45ZM1018.25 45.1761C1020.71 45.1761 1022.32 43.375 1022.32 40.6761C1022.32 37.9602 1020.71 36.1591 1018.25 36.1591C1015.79 36.1591 1014.18 37.9602 1014.18 40.6761C1014.18 43.375 1015.79 45.1761 1018.25 45.1761ZM1018.25 43.75C1016.65 43.75 1015.9 42.3466 1015.9 40.6705C1015.9 39 1016.65 37.5795 1018.25 37.5795C1019.85 37.5795 1020.6 39 1020.6 40.6705C1020.6 42.3466 1019.85 43.75 1018.25 43.75ZM1030.75 38.4034C1030.4 37.0455 1029.34 36.1591 1027.45 36.1591C1025.48 36.1591 1024.08 37.1989 1024.08 38.7443C1024.08 39.983 1024.83 40.8068 1026.47 41.1705L1027.95 41.4943C1028.79 41.6818 1029.18 42.0568 1029.18 42.6023C1029.18 43.2784 1028.46 43.8068 1027.34 43.8068C1026.33 43.8068 1025.67 43.3693 1025.47 42.5114L1023.83 42.7614C1024.11 44.3068 1025.39 45.1761 1027.35 45.1761C1029.46 45.1761 1030.92 44.0568 1030.92 42.4773C1030.92 41.2443 1030.14 40.483 1028.54 40.1136L1027.15 39.7955C1026.19 39.5682 1025.77 39.2443 1025.78 38.6534C1025.77 37.983 1026.5 37.5057 1027.47 37.5057C1028.52 37.5057 1029.01 38.0909 1029.21 38.6761L1030.75 38.4034Z" fill="#0A083B"/>
<path d="M1176.61 45H1178.02V40.75H1180.57C1183.28 40.75 1184.5 39.1023 1184.5 37.0455C1184.5 34.9886 1183.28 33.3636 1180.54 33.3636H1176.61V45ZM1178.02 39.5V34.6136H1180.5C1182.39 34.6136 1183.11 35.6477 1183.11 37.0455C1183.11 38.4432 1182.39 39.5 1180.52 39.5H1178.02ZM1189.15 45.2045C1190.68 45.2045 1191.47 44.3864 1191.75 43.8182H1191.81V45H1193.15V39.25C1193.15 36.4773 1191.04 36.1591 1189.93 36.1591C1188.61 36.1591 1187.11 36.6136 1186.43 38.2045L1187.7 38.6591C1188 38.0227 1188.69 37.3409 1189.97 37.3409C1191.21 37.3409 1191.81 37.9943 1191.81 39.1136V39.1591C1191.81 39.8068 1191.15 39.75 1189.56 39.9545C1187.94 40.1648 1186.18 40.5227 1186.18 42.5227C1186.18 44.2273 1187.5 45.2045 1189.15 45.2045ZM1189.36 44C1188.29 44 1187.52 43.5227 1187.52 42.5909C1187.52 41.5682 1188.45 41.25 1189.5 41.1136C1190.06 41.0455 1191.59 40.8864 1191.81 40.6136V41.8409C1191.81 42.9318 1190.95 44 1189.36 44ZM1199.13 48.4545C1201.22 48.4545 1202.9 47.5 1202.9 45.25V36.2727H1201.6V37.6591H1201.47C1201.17 37.2045 1200.63 36.1591 1198.92 36.1591C1196.72 36.1591 1195.19 37.9091 1195.19 40.5909C1195.19 43.3182 1196.78 44.8636 1198.9 44.8636C1200.6 44.8636 1201.15 43.8636 1201.44 43.3864H1201.56V45.1591C1201.56 46.6136 1200.53 47.2727 1199.13 47.2727C1197.54 47.2727 1196.98 46.4375 1196.63 45.9545L1195.56 46.7045C1196.1 47.6193 1197.18 48.4545 1199.13 48.4545ZM1199.08 43.6591C1197.4 43.6591 1196.53 42.3864 1196.53 40.5682C1196.53 38.7955 1197.38 37.3636 1199.08 37.3636C1200.72 37.3636 1201.58 38.6818 1201.58 40.5682C1201.58 42.5 1200.69 43.6591 1199.08 43.6591ZM1209.01 45.1818C1210.78 45.1818 1212.08 44.2955 1212.49 42.9773L1211.19 42.6136C1210.85 43.5227 1210.06 43.9773 1209.01 43.9773C1207.44 43.9773 1206.35 42.9602 1206.29 41.0909H1212.62V40.5227C1212.62 37.2727 1210.69 36.1591 1208.87 36.1591C1206.51 36.1591 1204.94 38.0227 1204.94 40.7045C1204.94 43.3864 1206.49 45.1818 1209.01 45.1818ZM1206.29 39.9318C1206.38 38.5739 1207.34 37.3636 1208.87 37.3636C1210.33 37.3636 1211.26 38.4545 1211.26 39.9318H1206.29ZM1220.85 38.2273C1220.43 36.9886 1219.48 36.1591 1217.76 36.1591C1215.91 36.1591 1214.55 37.2045 1214.55 38.6818C1214.55 39.8864 1215.27 40.6932 1216.87 41.0682L1218.32 41.4091C1219.2 41.6136 1219.62 42.0341 1219.62 42.6364C1219.62 43.3864 1218.82 44 1217.57 44C1216.48 44 1215.79 43.5284 1215.55 42.5909L1214.28 42.9091C1214.59 44.392 1215.81 45.1818 1217.6 45.1818C1219.62 45.1818 1221.01 44.0739 1221.01 42.5682C1221.01 41.3523 1220.24 40.5852 1218.69 40.2045L1217.39 39.8864C1216.36 39.6307 1215.89 39.2841 1215.89 38.6136C1215.89 37.8636 1216.69 37.3182 1217.76 37.3182C1218.93 37.3182 1219.41 37.9659 1219.64 38.5682L1220.85 38.2273Z" fill="#57586E"/>
<path d="M1226.94 36.7267L1230 39.78L1233.06 36.7267L1234 37.6667L1230 41.6667L1226 37.6667L1226.94 36.7267Z" fill="#57586E"/>
<path d="M1083.04 37C1082.61 34.6136 1080.7 33.2045 1078.36 33.2045C1075.38 33.2045 1073.22 35.5 1073.22 39.1818C1073.22 42.8636 1075.38 45.1591 1078.36 45.1591C1080.7 45.1591 1082.61 43.75 1083.04 41.3636H1081.63C1081.29 42.9773 1079.9 43.8409 1078.36 43.8409C1076.24 43.8409 1074.58 42.2045 1074.58 39.1818C1074.58 36.1591 1076.24 34.5227 1078.36 34.5227C1079.9 34.5227 1081.29 35.3864 1081.63 37H1083.04ZM1088.68 45.1818C1091.04 45.1818 1092.63 43.3864 1092.63 40.6818C1092.63 37.9545 1091.04 36.1591 1088.68 36.1591C1086.32 36.1591 1084.72 37.9545 1084.72 40.6818C1084.72 43.3864 1086.32 45.1818 1088.68 45.1818ZM1088.68 43.9773C1086.88 43.9773 1086.07 42.4318 1086.07 40.6818C1086.07 38.9318 1086.88 37.3636 1088.68 37.3636C1090.47 37.3636 1091.29 38.9318 1091.29 40.6818C1091.29 42.4318 1090.47 43.9773 1088.68 43.9773ZM1100.18 41.4318C1100.18 43.0682 1098.93 43.8182 1097.93 43.8182C1096.82 43.8182 1096.02 43 1096.02 41.7273V36.2727H1094.68V41.8182C1094.68 44.0455 1095.86 45.1136 1097.5 45.1136C1098.82 45.1136 1099.68 44.4091 1100.09 43.5227H1100.18V45H1101.52V36.2727H1100.18V41.4318ZM1103.98 45H1105.32V39.4773C1105.32 38.2955 1106.25 37.4318 1107.52 37.4318C1107.88 37.4318 1108.25 37.5 1108.34 37.5227V36.1591C1108.19 36.1477 1107.84 36.1364 1107.64 36.1364C1106.59 36.1364 1105.68 36.7273 1105.36 37.5909H1105.27V36.2727H1103.98V45ZM1116.11 38.2273C1115.69 36.9886 1114.75 36.1591 1113.02 36.1591C1111.18 36.1591 1109.82 37.2045 1109.82 38.6818C1109.82 39.8864 1110.53 40.6932 1112.13 41.0682L1113.59 41.4091C1114.47 41.6136 1114.88 42.0341 1114.88 42.6364C1114.88 43.3864 1114.09 44 1112.84 44C1111.74 44 1111.06 43.5284 1110.82 42.5909L1109.54 42.9091C1109.86 44.392 1111.08 45.1818 1112.86 45.1818C1114.89 45.1818 1116.27 44.0739 1116.27 42.5682C1116.27 41.3523 1115.51 40.5852 1113.95 40.2045L1112.66 39.8864C1111.62 39.6307 1111.16 39.2841 1111.16 38.6136C1111.16 37.8636 1111.95 37.3182 1113.02 37.3182C1114.19 37.3182 1114.67 37.9659 1114.91 38.5682L1116.11 38.2273ZM1121.95 45.1818C1123.72 45.1818 1125.02 44.2955 1125.43 42.9773L1124.13 42.6136C1123.79 43.5227 1123 43.9773 1121.95 43.9773C1120.37 43.9773 1119.29 42.9602 1119.23 41.0909H1125.56V40.5227C1125.56 37.2727 1123.63 36.1591 1121.81 36.1591C1119.45 36.1591 1117.88 38.0227 1117.88 40.7045C1117.88 43.3864 1119.43 45.1818 1121.95 45.1818ZM1119.23 39.9318C1119.32 38.5739 1120.28 37.3636 1121.81 37.3636C1123.27 37.3636 1124.2 38.4545 1124.2 39.9318H1119.23ZM1133.78 38.2273C1133.36 36.9886 1132.42 36.1591 1130.69 36.1591C1128.85 36.1591 1127.49 37.2045 1127.49 38.6818C1127.49 39.8864 1128.2 40.6932 1129.81 41.0682L1131.26 41.4091C1132.14 41.6136 1132.56 42.0341 1132.56 42.6364C1132.56 43.3864 1131.76 44 1130.51 44C1129.41 44 1128.73 43.5284 1128.49 42.5909L1127.22 42.9091C1127.53 44.392 1128.75 45.1818 1130.53 45.1818C1132.56 45.1818 1133.94 44.0739 1133.94 42.5682C1133.94 41.3523 1133.18 40.5852 1131.62 40.2045L1130.33 39.8864C1129.3 39.6307 1128.83 39.2841 1128.83 38.6136C1128.83 37.8636 1129.62 37.3182 1130.69 37.3182C1131.86 37.3182 1132.35 37.9659 1132.58 38.5682L1133.78 38.2273Z" fill="#57586E"/>
<line x1="980" y1="56" x2="1006" y2="56" stroke="#175CFF" stroke-width="2" stroke-linecap="round" stroke-linejoin="round"/>
<rect x="1277" y="25" width="112" height="32" rx="16" fill="#1950D1"/>
<path d="M1298.02 45H1304.68V43.4538H1299.86V40.6747H1304.3V39.1286H1299.86V36.3643H1304.64V34.8182H1298.02V45ZM1308.24 40.5256C1308.24 39.4219 1308.91 38.7855 1309.86 38.7855C1310.79 38.7855 1311.35 39.397 1311.35 40.4162V45H1313.15V40.1378C1313.15 38.3082 1312.11 37.2642 1310.53 37.2642C1309.39 37.2642 1308.6 37.8111 1308.25 38.6612H1308.16V37.3636H1306.44V45H1308.24V40.5256ZM1314.98 45H1316.78V40.5107C1316.78 39.5412 1317.51 38.8551 1318.5 38.8551C1318.8 38.8551 1319.18 38.9098 1319.33 38.9595V37.304C1319.17 37.2741 1318.88 37.2543 1318.68 37.2543C1317.81 37.2543 1317.08 37.7514 1316.8 38.6364H1316.72V37.3636H1314.98V45ZM1323.54 45.1491C1325.78 45.1491 1327.2 43.5732 1327.2 41.2116C1327.2 38.8452 1325.78 37.2642 1323.54 37.2642C1321.31 37.2642 1319.88 38.8452 1319.88 41.2116C1319.88 43.5732 1321.31 45.1491 1323.54 45.1491ZM1323.55 43.7074C1322.31 43.7074 1321.71 42.6037 1321.71 41.2067C1321.71 39.8097 1322.31 38.6911 1323.55 38.6911C1324.77 38.6911 1325.38 39.8097 1325.38 41.2067C1325.38 42.6037 1324.77 43.7074 1323.55 43.7074ZM1330.53 34.8182H1328.73V45H1330.53V34.8182ZM1334.18 34.8182H1332.38V45H1334.18V34.8182ZM1347.95 34.8182H1346.12V41.7585H1346.03L1341.23 34.8182H1339.58V45H1341.43V38.0646H1341.51L1346.31 45H1347.95V34.8182ZM1353.21 45.1491C1355.45 45.1491 1356.87 43.5732 1356.87 41.2116C1356.87 38.8452 1355.45 37.2642 1353.21 37.2642C1350.97 37.2642 1349.55 38.8452 1349.55 41.2116C1349.55 43.5732 1350.97 45.1491 1353.21 45.1491ZM1353.22 43.7074C1351.98 43.7074 1351.38 42.6037 1351.38 41.2067C1351.38 39.8097 1351.98 38.6911 1353.22 38.6911C1354.44 38.6911 1355.05 39.8097 1355.05 41.2067C1355.05 42.6037 1354.44 43.7074 1353.22 43.7074ZM1359.77 45H1361.65L1363.08 39.8395H1363.18L1364.62 45H1366.49L1368.65 37.3636H1366.81L1365.49 42.7031H1365.42L1364.04 37.3636H1362.23L1360.86 42.733H1360.79L1359.45 37.3636H1357.61L1359.77 45Z" fill="white"/>
<defs>
<clipPath id="clip0">
<rect width="20.0727" height="19.2363" fill="white" transform="translate(45 29.7635)"/>
</clipPath>
</defs>
</svg>
