<svg width="1100" height="90" viewBox="0 0 1100 90" fill="none" xmlns="http://www.w3.org/2000/svg">
<g filter="url(#filter0_d)">
<rect x="10" y="6" width="1080" height="70" fill="white"/>
</g>
<rect x="885" y="6" width="205" height="70" fill="#1500FF"/>
<path d="M944.445 48V33.7812H949.318C950.926 33.7812 952.15 34.1035 952.99 34.748C953.83 35.3926 954.25 36.3529 954.25 37.6289C954.25 38.2799 954.074 38.8659 953.723 39.3867C953.371 39.9076 952.857 40.3112 952.18 40.5977C952.948 40.806 953.54 41.1999 953.957 41.7793C954.38 42.3522 954.592 43.0423 954.592 43.8496C954.592 45.1842 954.162 46.2096 953.303 46.9258C952.45 47.6419 951.226 48 949.631 48H944.445ZM946.916 41.584V46.0273H949.66C950.435 46.0273 951.04 45.8353 951.477 45.4512C951.913 45.0671 952.131 44.5332 952.131 43.8496C952.131 42.3717 951.376 41.6165 949.865 41.584H946.916ZM946.916 39.7676H949.338C950.106 39.7676 950.705 39.5951 951.135 39.25C951.571 38.8984 951.789 38.4036 951.789 37.7656C951.789 37.0625 951.587 36.5547 951.184 36.2422C950.786 35.9297 950.165 35.7734 949.318 35.7734H946.916V39.7676ZM967.463 33.7812V43.2832C967.463 44.7936 966.978 45.9915 966.008 46.877C965.044 47.7559 963.758 48.1953 962.15 48.1953C960.523 48.1953 959.23 47.7624 958.273 46.8965C957.316 46.0241 956.838 44.8164 956.838 43.2734V33.7812H959.299V43.293C959.299 44.2435 959.54 44.9694 960.021 45.4707C960.503 45.972 961.213 46.2227 962.15 46.2227C964.051 46.2227 965.002 45.2201 965.002 43.2148V33.7812H967.463ZM974.748 40.5195L978.02 33.7812H980.754L975.988 42.7656V48H973.508V42.7656L968.732 33.7812H971.477L974.748 40.5195ZM998.557 48H996.086L989.748 37.9121V48H987.277V33.7812H989.748L996.105 43.9082V33.7812H998.557V48ZM1012.82 41.2617C1012.82 42.6549 1012.58 43.8789 1012.1 44.9336C1011.62 45.9818 1010.93 46.7891 1010.03 47.3555C1009.14 47.9154 1008.11 48.1953 1006.95 48.1953C1005.79 48.1953 1004.76 47.9154 1003.86 47.3555C1002.96 46.7891 1002.26 45.985 1001.77 44.9434C1001.28 43.9017 1001.03 42.7005 1001.03 41.3398V40.5391C1001.03 39.1523 1001.27 37.9284 1001.76 36.8672C1002.25 35.806 1002.95 34.9954 1003.84 34.4355C1004.74 33.8691 1005.77 33.5859 1006.93 33.5859C1008.08 33.5859 1009.11 33.8659 1010 34.4258C1010.9 34.9792 1011.59 35.7799 1012.08 36.8281C1012.57 37.8698 1012.82 39.084 1012.82 40.4707V41.2617ZM1010.35 40.5195C1010.35 38.944 1010.05 37.7363 1009.46 36.8965C1008.86 36.0566 1008.02 35.6367 1006.93 35.6367C1005.86 35.6367 1005.02 36.0566 1004.42 36.8965C1003.82 37.7298 1003.51 38.9115 1003.5 40.4414V41.2617C1003.5 42.8242 1003.8 44.0319 1004.41 44.8848C1005.02 45.7376 1005.86 46.1641 1006.95 46.1641C1008.04 46.1641 1008.88 45.7474 1009.46 44.9141C1010.06 44.0807 1010.35 42.8633 1010.35 41.2617V40.5195ZM1026.44 44.4844L1028.62 33.7812H1031.08L1027.79 48H1025.43L1022.73 37.6191L1019.96 48H1017.59L1014.31 33.7812H1016.76L1018.97 44.4648L1021.68 33.7812H1023.75L1026.44 44.4844Z" fill="white"/>
<path d="M71.2988 48.4697H80.6299V52H66.9043V30.6719H71.2988V48.4697ZM99.7461 41.8193C99.7461 43.9189 99.375 45.7598 98.6328 47.3418C97.8906 48.9238 96.8262 50.1445 95.4395 51.0039C94.0625 51.8633 92.4805 52.293 90.6934 52.293C88.9258 52.293 87.3486 51.8682 85.9619 51.0186C84.5752 50.1689 83.501 48.958 82.7393 47.3857C81.9775 45.8037 81.5918 43.9873 81.582 41.9365V40.8818C81.582 38.7822 81.958 36.9365 82.71 35.3447C83.4717 33.7432 84.541 32.5176 85.918 31.668C87.3047 30.8086 88.8867 30.3789 90.6641 30.3789C92.4414 30.3789 94.0186 30.8086 95.3955 31.668C96.7822 32.5176 97.8516 33.7432 98.6035 35.3447C99.3652 36.9365 99.7461 38.7773 99.7461 40.8672V41.8193ZM95.293 40.8525C95.293 38.6162 94.8926 36.917 94.0918 35.7549C93.291 34.5928 92.1484 34.0117 90.6641 34.0117C89.1895 34.0117 88.0518 34.5879 87.251 35.7402C86.4502 36.8828 86.0449 38.5625 86.0352 40.7793V41.8193C86.0352 43.9971 86.4355 45.6865 87.2363 46.8877C88.0371 48.0889 89.1895 48.6895 90.6934 48.6895C92.168 48.6895 93.3008 48.1133 94.0918 46.9609C94.8828 45.7988 95.2832 44.1094 95.293 41.8926V40.8525ZM119.814 49.3047C119.023 50.252 117.905 50.9893 116.46 51.5166C115.015 52.0342 113.413 52.293 111.655 52.293C109.81 52.293 108.188 51.8926 106.792 51.0918C105.405 50.2812 104.331 49.1094 103.569 47.5762C102.817 46.043 102.432 44.2412 102.412 42.1709V40.7207C102.412 38.5918 102.769 36.751 103.481 35.1982C104.204 33.6357 105.239 32.4443 106.587 31.624C107.944 30.7939 109.531 30.3789 111.348 30.3789C113.877 30.3789 115.854 30.9844 117.28 32.1953C118.706 33.3965 119.551 35.1494 119.814 37.4541H115.537C115.342 36.2334 114.907 35.3398 114.233 34.7734C113.569 34.207 112.651 33.9238 111.479 33.9238C109.985 33.9238 108.848 34.4854 108.066 35.6084C107.285 36.7314 106.89 38.4014 106.88 40.6182V41.9805C106.88 44.2168 107.305 45.9062 108.154 47.0488C109.004 48.1914 110.249 48.7627 111.89 48.7627C113.54 48.7627 114.717 48.4111 115.42 47.708V44.0312H111.421V40.7939H119.814V49.3047ZM140.908 41.8193C140.908 43.9189 140.537 45.7598 139.795 47.3418C139.053 48.9238 137.988 50.1445 136.602 51.0039C135.225 51.8633 133.643 52.293 131.855 52.293C130.088 52.293 128.511 51.8682 127.124 51.0186C125.737 50.1689 124.663 48.958 123.901 47.3857C123.14 45.8037 122.754 43.9873 122.744 41.9365V40.8818C122.744 38.7822 123.12 36.9365 123.872 35.3447C124.634 33.7432 125.703 32.5176 127.08 31.668C128.467 30.8086 130.049 30.3789 131.826 30.3789C133.604 30.3789 135.181 30.8086 136.558 31.668C137.944 32.5176 139.014 33.7432 139.766 35.3447C140.527 36.9365 140.908 38.7773 140.908 40.8672V41.8193ZM136.455 40.8525C136.455 38.6162 136.055 36.917 135.254 35.7549C134.453 34.5928 133.311 34.0117 131.826 34.0117C130.352 34.0117 129.214 34.5879 128.413 35.7402C127.612 36.8828 127.207 38.5625 127.197 40.7793V41.8193C127.197 43.9971 127.598 45.6865 128.398 46.8877C129.199 48.0889 130.352 48.6895 131.855 48.6895C133.33 48.6895 134.463 48.1133 135.254 46.9609C136.045 45.7988 136.445 44.1094 136.455 41.8926V40.8525Z" fill="black"/>
<path d="M208.41 49H204.895V41.6875H198.039V49H194.523V31.9375H198.039V38.8516H204.895V31.9375H208.41V49ZM210.742 42.543C210.742 41.2852 210.984 40.1641 211.469 39.1797C211.953 38.1953 212.648 37.4336 213.555 36.8945C214.469 36.3555 215.527 36.0859 216.73 36.0859C218.441 36.0859 219.836 36.6094 220.914 37.6562C222 38.7031 222.605 40.125 222.73 41.9219L222.754 42.7891C222.754 44.7344 222.211 46.2969 221.125 47.4766C220.039 48.6484 218.582 49.2344 216.754 49.2344C214.926 49.2344 213.465 48.6484 212.371 47.4766C211.285 46.3047 210.742 44.7109 210.742 42.6953V42.543ZM214.129 42.7891C214.129 43.9922 214.355 44.9141 214.809 45.5547C215.262 46.1875 215.91 46.5039 216.754 46.5039C217.574 46.5039 218.215 46.1914 218.676 45.5664C219.137 44.9336 219.367 43.9258 219.367 42.543C219.367 41.3633 219.137 40.4492 218.676 39.8008C218.215 39.1523 217.566 38.8281 216.73 38.8281C215.902 38.8281 215.262 39.1523 214.809 39.8008C214.355 40.4414 214.129 41.4375 214.129 42.7891ZM228.016 36.3203L228.121 37.7383C229.02 36.6367 230.234 36.0859 231.766 36.0859C233.398 36.0859 234.52 36.7305 235.129 38.0195C236.02 36.7305 237.289 36.0859 238.938 36.0859C240.312 36.0859 241.336 36.4883 242.008 37.293C242.68 38.0898 243.016 39.293 243.016 40.9023V49H239.617V40.9141C239.617 40.1953 239.477 39.6719 239.195 39.3438C238.914 39.0078 238.418 38.8398 237.707 38.8398C236.691 38.8398 235.988 39.3242 235.598 40.293L235.609 49H232.223V40.9258C232.223 40.1914 232.078 39.6602 231.789 39.332C231.5 39.0039 231.008 38.8398 230.312 38.8398C229.352 38.8398 228.656 39.2383 228.227 40.0352V49H224.84V36.3203H228.016ZM251.465 49.2344C249.605 49.2344 248.09 48.6641 246.918 47.5234C245.754 46.3828 245.172 44.8633 245.172 42.9648V42.6367C245.172 41.3633 245.418 40.2266 245.91 39.2266C246.402 38.2188 247.098 37.4453 247.996 36.9062C248.902 36.3594 249.934 36.0859 251.09 36.0859C252.824 36.0859 254.188 36.6328 255.18 37.7266C256.18 38.8203 256.68 40.3711 256.68 42.3789V43.7617H248.605C248.715 44.5898 249.043 45.2539 249.59 45.7539C250.145 46.2539 250.844 46.5039 251.688 46.5039C252.992 46.5039 254.012 46.0312 254.746 45.0859L256.41 46.9492C255.902 47.668 255.215 48.2305 254.348 48.6367C253.48 49.0352 252.52 49.2344 251.465 49.2344ZM251.078 38.8281C250.406 38.8281 249.859 39.0547 249.438 39.5078C249.023 39.9609 248.758 40.6094 248.641 41.4531H253.352V41.1836C253.336 40.4336 253.133 39.8555 252.742 39.4492C252.352 39.0352 251.797 38.8281 251.078 38.8281ZM292.234 42.9883V49H288.719V31.9375H295.375C296.656 31.9375 297.781 32.1719 298.75 32.6406C299.727 33.1094 300.477 33.7773 301 34.6445C301.523 35.5039 301.785 36.4844 301.785 37.5859C301.785 39.2578 301.211 40.5781 300.062 41.5469C298.922 42.5078 297.34 42.9883 295.316 42.9883H292.234ZM292.234 40.1406H295.375C296.305 40.1406 297.012 39.9219 297.496 39.4844C297.988 39.0469 298.234 38.4219 298.234 37.6094C298.234 36.7734 297.988 36.0977 297.496 35.582C297.004 35.0664 296.324 34.8008 295.457 34.7852H292.234V40.1406ZM311.113 39.4961C310.652 39.4336 310.246 39.4023 309.895 39.4023C308.613 39.4023 307.773 39.8359 307.375 40.7031V49H303.988V36.3203H307.188L307.281 37.832C307.961 36.668 308.902 36.0859 310.105 36.0859C310.48 36.0859 310.832 36.1367 311.16 36.2383L311.113 39.4961ZM311.805 42.543C311.805 41.2852 312.047 40.1641 312.531 39.1797C313.016 38.1953 313.711 37.4336 314.617 36.8945C315.531 36.3555 316.59 36.0859 317.793 36.0859C319.504 36.0859 320.898 36.6094 321.977 37.6562C323.062 38.7031 323.668 40.125 323.793 41.9219L323.816 42.7891C323.816 44.7344 323.273 46.2969 322.188 47.4766C321.102 48.6484 319.645 49.2344 317.816 49.2344C315.988 49.2344 314.527 48.6484 313.434 47.4766C312.348 46.3047 311.805 44.7109 311.805 42.6953V42.543ZM315.191 42.7891C315.191 43.9922 315.418 44.9141 315.871 45.5547C316.324 46.1875 316.973 46.5039 317.816 46.5039C318.637 46.5039 319.277 46.1914 319.738 45.5664C320.199 44.9336 320.43 43.9258 320.43 42.543C320.43 41.3633 320.199 40.4492 319.738 39.8008C319.277 39.1523 318.629 38.8281 317.793 38.8281C316.965 38.8281 316.324 39.1523 315.871 39.8008C315.418 40.4414 315.191 41.4375 315.191 42.7891ZM329.488 36.3203V49.6914C329.488 51.0898 329.117 52.1758 328.375 52.9492C327.633 53.7305 326.562 54.1211 325.164 54.1211C324.578 54.1211 324.02 54.0547 323.488 53.9219V51.2383C323.895 51.3086 324.25 51.3438 324.555 51.3438C325.578 51.3438 326.09 50.8008 326.09 49.7148V36.3203H329.488ZM325.82 33.0391C325.82 32.5312 325.988 32.1133 326.324 31.7852C326.668 31.457 327.133 31.293 327.719 31.293C328.305 31.293 328.766 31.457 329.102 31.7852C329.445 32.1133 329.617 32.5312 329.617 33.0391C329.617 33.5547 329.441 33.9766 329.09 34.3047C328.746 34.6328 328.289 34.7969 327.719 34.7969C327.148 34.7969 326.688 34.6328 326.336 34.3047C325.992 33.9766 325.82 33.5547 325.82 33.0391ZM337.973 49.2344C336.113 49.2344 334.598 48.6641 333.426 47.5234C332.262 46.3828 331.68 44.8633 331.68 42.9648V42.6367C331.68 41.3633 331.926 40.2266 332.418 39.2266C332.91 38.2188 333.605 37.4453 334.504 36.9062C335.41 36.3594 336.441 36.0859 337.598 36.0859C339.332 36.0859 340.695 36.6328 341.688 37.7266C342.688 38.8203 343.188 40.3711 343.188 42.3789V43.7617H335.113C335.223 44.5898 335.551 45.2539 336.098 45.7539C336.652 46.2539 337.352 46.5039 338.195 46.5039C339.5 46.5039 340.52 46.0312 341.254 45.0859L342.918 46.9492C342.41 47.668 341.723 48.2305 340.855 48.6367C339.988 49.0352 339.027 49.2344 337.973 49.2344ZM337.586 38.8281C336.914 38.8281 336.367 39.0547 335.945 39.5078C335.531 39.9609 335.266 40.6094 335.148 41.4531H339.859V41.1836C339.844 40.4336 339.641 39.8555 339.25 39.4492C338.859 39.0352 338.305 38.8281 337.586 38.8281ZM350.395 46.5039C351.02 46.5039 351.527 46.332 351.918 45.9883C352.309 45.6445 352.512 45.1875 352.527 44.6172H355.703C355.695 45.4766 355.461 46.2656 355 46.9844C354.539 47.6953 353.906 48.25 353.102 48.6484C352.305 49.0391 351.422 49.2344 350.453 49.2344C348.641 49.2344 347.211 48.6602 346.164 47.5117C345.117 46.3555 344.594 44.7617 344.594 42.7305V42.5078C344.594 40.5547 345.113 38.9961 346.152 37.832C347.191 36.668 348.617 36.0859 350.43 36.0859C352.016 36.0859 353.285 36.5391 354.238 37.4453C355.199 38.3438 355.688 39.543 355.703 41.043H352.527C352.512 40.3867 352.309 39.8555 351.918 39.4492C351.527 39.0352 351.012 38.8281 350.371 38.8281C349.582 38.8281 348.984 39.1172 348.578 39.6953C348.18 40.2656 347.98 41.1953 347.98 42.4844V42.8359C347.98 44.1406 348.18 45.0781 348.578 45.6484C348.977 46.2188 349.582 46.5039 350.395 46.5039ZM361.691 33.2031V36.3203H363.859V38.8047H361.691V45.1328C361.691 45.6016 361.781 45.9375 361.961 46.1406C362.141 46.3438 362.484 46.4453 362.992 46.4453C363.367 46.4453 363.699 46.418 363.988 46.3633V48.9297C363.324 49.1328 362.641 49.2344 361.938 49.2344C359.562 49.2344 358.352 48.0352 358.305 45.6367V38.8047H356.453V36.3203H358.305V33.2031H361.691ZM372.613 45.4961C372.613 45.082 372.406 44.7578 371.992 44.5234C371.586 44.2812 370.93 44.0664 370.023 43.8789C367.008 43.2461 365.5 41.9648 365.5 40.0352C365.5 38.9102 365.965 37.9727 366.895 37.2227C367.832 36.4648 369.055 36.0859 370.562 36.0859C372.172 36.0859 373.457 36.4648 374.418 37.2227C375.387 37.9805 375.871 38.9648 375.871 40.1758H372.484C372.484 39.6914 372.328 39.293 372.016 38.9805C371.703 38.6602 371.215 38.5 370.551 38.5C369.98 38.5 369.539 38.6289 369.227 38.8867C368.914 39.1445 368.758 39.4727 368.758 39.8711C368.758 40.2461 368.934 40.5508 369.285 40.7852C369.645 41.0117 370.246 41.2109 371.09 41.3828C371.934 41.5469 372.645 41.7344 373.223 41.9453C375.012 42.6016 375.906 43.7383 375.906 45.3555C375.906 46.5117 375.41 47.4492 374.418 48.168C373.426 48.8789 372.145 49.2344 370.574 49.2344C369.512 49.2344 368.566 49.0469 367.738 48.6719C366.918 48.2891 366.273 47.7695 365.805 47.1133C365.336 46.4492 365.102 45.7344 365.102 44.9688H368.312C368.344 45.5703 368.566 46.0312 368.98 46.3516C369.395 46.6719 369.949 46.832 370.645 46.832C371.293 46.832 371.781 46.7109 372.109 46.4688C372.445 46.2188 372.613 45.8945 372.613 45.4961ZM417.836 45.4844H411.672L410.5 49H406.762L413.113 31.9375H416.371L422.758 49H419.02L417.836 45.4844ZM412.621 42.6367H416.887L414.742 36.25L412.621 42.6367ZM435.555 42.7773C435.555 44.8086 435.121 46.3945 434.254 47.5352C433.387 48.668 432.176 49.2344 430.621 49.2344C429.246 49.2344 428.148 48.707 427.328 47.6523L427.176 49H424.129V31H427.516V37.457C428.297 36.543 429.324 36.0859 430.598 36.0859C432.145 36.0859 433.355 36.6562 434.23 37.7969C435.113 38.9297 435.555 40.5273 435.555 42.5898V42.7773ZM432.168 42.5312C432.168 41.25 431.965 40.3164 431.559 39.7305C431.152 39.1367 430.547 38.8398 429.742 38.8398C428.664 38.8398 427.922 39.2812 427.516 40.1641V45.168C427.93 46.0586 428.68 46.5039 429.766 46.5039C430.859 46.5039 431.578 45.9648 431.922 44.8867C432.086 44.3711 432.168 43.5859 432.168 42.5312ZM437.125 42.543C437.125 41.2852 437.367 40.1641 437.852 39.1797C438.336 38.1953 439.031 37.4336 439.938 36.8945C440.852 36.3555 441.91 36.0859 443.113 36.0859C444.824 36.0859 446.219 36.6094 447.297 37.6562C448.383 38.7031 448.988 40.125 449.113 41.9219L449.137 42.7891C449.137 44.7344 448.594 46.2969 447.508 47.4766C446.422 48.6484 444.965 49.2344 443.137 49.2344C441.309 49.2344 439.848 48.6484 438.754 47.4766C437.668 46.3047 437.125 44.7109 437.125 42.6953V42.543ZM440.512 42.7891C440.512 43.9922 440.738 44.9141 441.191 45.5547C441.645 46.1875 442.293 46.5039 443.137 46.5039C443.957 46.5039 444.598 46.1914 445.059 45.5664C445.52 44.9336 445.75 43.9258 445.75 42.543C445.75 41.3633 445.52 40.4492 445.059 39.8008C444.598 39.1523 443.949 38.8281 443.113 38.8281C442.285 38.8281 441.645 39.1523 441.191 39.8008C440.738 40.4414 440.512 41.4375 440.512 42.7891ZM458.816 47.7109C457.98 48.7266 456.824 49.2344 455.348 49.2344C453.988 49.2344 452.949 48.8438 452.23 48.0625C451.52 47.2812 451.156 46.1367 451.141 44.6289V36.3203H454.527V44.5117C454.527 45.832 455.129 46.4922 456.332 46.4922C457.48 46.4922 458.27 46.0938 458.699 45.2969V36.3203H462.098V49H458.91L458.816 47.7109ZM468.707 33.2031V36.3203H470.875V38.8047H468.707V45.1328C468.707 45.6016 468.797 45.9375 468.977 46.1406C469.156 46.3438 469.5 46.4453 470.008 46.4453C470.383 46.4453 470.715 46.418 471.004 46.3633V48.9297C470.34 49.1328 469.656 49.2344 468.953 49.2344C466.578 49.2344 465.367 48.0352 465.32 45.6367V38.8047H463.469V36.3203H465.32V33.2031H468.707ZM511.715 44.5234C511.715 43.8594 511.48 43.3516 511.012 43C510.543 42.6406 509.699 42.2656 508.48 41.875C507.262 41.4766 506.297 41.0859 505.586 40.7031C503.648 39.6562 502.68 38.2461 502.68 36.4727C502.68 35.5508 502.938 34.7305 503.453 34.0117C503.977 33.2852 504.723 32.7188 505.691 32.3125C506.668 31.9062 507.762 31.7031 508.973 31.7031C510.191 31.7031 511.277 31.9258 512.23 32.3711C513.184 32.8086 513.922 33.4297 514.445 34.2344C514.977 35.0391 515.242 35.9531 515.242 36.9766H511.727C511.727 36.1953 511.48 35.5898 510.988 35.1602C510.496 34.7227 509.805 34.5039 508.914 34.5039C508.055 34.5039 507.387 34.6875 506.91 35.0547C506.434 35.4141 506.195 35.8906 506.195 36.4844C506.195 37.0391 506.473 37.5039 507.027 37.8789C507.59 38.2539 508.414 38.6055 509.5 38.9336C511.5 39.5352 512.957 40.2812 513.871 41.1719C514.785 42.0625 515.242 43.1719 515.242 44.5C515.242 45.9766 514.684 47.1367 513.566 47.9805C512.449 48.8164 510.945 49.2344 509.055 49.2344C507.742 49.2344 506.547 48.9961 505.469 48.5195C504.391 48.0352 503.566 47.375 502.996 46.5391C502.434 45.7031 502.152 44.7344 502.152 43.6328H505.68C505.68 45.5156 506.805 46.457 509.055 46.457C509.891 46.457 510.543 46.2891 511.012 45.9531C511.48 45.6094 511.715 45.1328 511.715 44.5234ZM523.246 49.2344C521.387 49.2344 519.871 48.6641 518.699 47.5234C517.535 46.3828 516.953 44.8633 516.953 42.9648V42.6367C516.953 41.3633 517.199 40.2266 517.691 39.2266C518.184 38.2188 518.879 37.4453 519.777 36.9062C520.684 36.3594 521.715 36.0859 522.871 36.0859C524.605 36.0859 525.969 36.6328 526.961 37.7266C527.961 38.8203 528.461 40.3711 528.461 42.3789V43.7617H520.387C520.496 44.5898 520.824 45.2539 521.371 45.7539C521.926 46.2539 522.625 46.5039 523.469 46.5039C524.773 46.5039 525.793 46.0312 526.527 45.0859L528.191 46.9492C527.684 47.668 526.996 48.2305 526.129 48.6367C525.262 49.0352 524.301 49.2344 523.246 49.2344ZM522.859 38.8281C522.188 38.8281 521.641 39.0547 521.219 39.5078C520.805 39.9609 520.539 40.6094 520.422 41.4531H525.133V41.1836C525.117 40.4336 524.914 39.8555 524.523 39.4492C524.133 39.0352 523.578 38.8281 522.859 38.8281ZM537.52 39.4961C537.059 39.4336 536.652 39.4023 536.301 39.4023C535.02 39.4023 534.18 39.8359 533.781 40.7031V49H530.395V36.3203H533.594L533.688 37.832C534.367 36.668 535.309 36.0859 536.512 36.0859C536.887 36.0859 537.238 36.1367 537.566 36.2383L537.52 39.4961ZM544.117 44.8633L546.473 36.3203H550.012L545.734 49H542.5L538.223 36.3203H541.762L544.117 44.8633ZM555.086 49H551.688V36.3203H555.086V49ZM551.488 33.0391C551.488 32.5312 551.656 32.1133 551.992 31.7852C552.336 31.457 552.801 31.293 553.387 31.293C553.965 31.293 554.426 31.457 554.77 31.7852C555.113 32.1133 555.285 32.5312 555.285 33.0391C555.285 33.5547 555.109 33.9766 554.758 34.3047C554.414 34.6328 553.957 34.7969 553.387 34.7969C552.816 34.7969 552.355 34.6328 552.004 34.3047C551.66 33.9766 551.488 33.5547 551.488 33.0391ZM563.16 46.5039C563.785 46.5039 564.293 46.332 564.684 45.9883C565.074 45.6445 565.277 45.1875 565.293 44.6172H568.469C568.461 45.4766 568.227 46.2656 567.766 46.9844C567.305 47.6953 566.672 48.25 565.867 48.6484C565.07 49.0391 564.188 49.2344 563.219 49.2344C561.406 49.2344 559.977 48.6602 558.93 47.5117C557.883 46.3555 557.359 44.7617 557.359 42.7305V42.5078C557.359 40.5547 557.879 38.9961 558.918 37.832C559.957 36.668 561.383 36.0859 563.195 36.0859C564.781 36.0859 566.051 36.5391 567.004 37.4453C567.965 38.3438 568.453 39.543 568.469 41.043H565.293C565.277 40.3867 565.074 39.8555 564.684 39.4492C564.293 39.0352 563.777 38.8281 563.137 38.8281C562.348 38.8281 561.75 39.1172 561.344 39.6953C560.945 40.2656 560.746 41.1953 560.746 42.4844V42.8359C560.746 44.1406 560.945 45.0781 561.344 45.6484C561.742 46.2188 562.348 46.5039 563.16 46.5039ZM576.238 49.2344C574.379 49.2344 572.863 48.6641 571.691 47.5234C570.527 46.3828 569.945 44.8633 569.945 42.9648V42.6367C569.945 41.3633 570.191 40.2266 570.684 39.2266C571.176 38.2188 571.871 37.4453 572.77 36.9062C573.676 36.3594 574.707 36.0859 575.863 36.0859C577.598 36.0859 578.961 36.6328 579.953 37.7266C580.953 38.8203 581.453 40.3711 581.453 42.3789V43.7617H573.379C573.488 44.5898 573.816 45.2539 574.363 45.7539C574.918 46.2539 575.617 46.5039 576.461 46.5039C577.766 46.5039 578.785 46.0312 579.52 45.0859L581.184 46.9492C580.676 47.668 579.988 48.2305 579.121 48.6367C578.254 49.0352 577.293 49.2344 576.238 49.2344ZM575.852 38.8281C575.18 38.8281 574.633 39.0547 574.211 39.5078C573.797 39.9609 573.531 40.6094 573.414 41.4531H578.125V41.1836C578.109 40.4336 577.906 39.8555 577.516 39.4492C577.125 39.0352 576.57 38.8281 575.852 38.8281ZM590.254 45.4961C590.254 45.082 590.047 44.7578 589.633 44.5234C589.227 44.2812 588.57 44.0664 587.664 43.8789C584.648 43.2461 583.141 41.9648 583.141 40.0352C583.141 38.9102 583.605 37.9727 584.535 37.2227C585.473 36.4648 586.695 36.0859 588.203 36.0859C589.812 36.0859 591.098 36.4648 592.059 37.2227C593.027 37.9805 593.512 38.9648 593.512 40.1758H590.125C590.125 39.6914 589.969 39.293 589.656 38.9805C589.344 38.6602 588.855 38.5 588.191 38.5C587.621 38.5 587.18 38.6289 586.867 38.8867C586.555 39.1445 586.398 39.4727 586.398 39.8711C586.398 40.2461 586.574 40.5508 586.926 40.7852C587.285 41.0117 587.887 41.2109 588.73 41.3828C589.574 41.5469 590.285 41.7344 590.863 41.9453C592.652 42.6016 593.547 43.7383 593.547 45.3555C593.547 46.5117 593.051 47.4492 592.059 48.168C591.066 48.8789 589.785 49.2344 588.215 49.2344C587.152 49.2344 586.207 49.0469 585.379 48.6719C584.559 48.2891 583.914 47.7695 583.445 47.1133C582.977 46.4492 582.742 45.7344 582.742 44.9688H585.953C585.984 45.5703 586.207 46.0312 586.621 46.3516C587.035 46.6719 587.59 46.832 588.285 46.832C588.934 46.832 589.422 46.7109 589.75 46.4688C590.086 46.2188 590.254 45.8945 590.254 45.4961ZM639.238 43.3164C639.105 45.1523 638.426 46.5977 637.199 47.6523C635.98 48.707 634.371 49.2344 632.371 49.2344C630.184 49.2344 628.461 48.5 627.203 47.0312C625.953 45.5547 625.328 43.5312 625.328 40.9609V39.918C625.328 38.2773 625.617 36.832 626.195 35.582C626.773 34.332 627.598 33.375 628.668 32.7109C629.746 32.0391 630.996 31.7031 632.418 31.7031C634.387 31.7031 635.973 32.2305 637.176 33.2852C638.379 34.3398 639.074 35.8203 639.262 37.7266H635.746C635.66 36.625 635.352 35.8281 634.82 35.3359C634.297 34.8359 633.496 34.5859 632.418 34.5859C631.246 34.5859 630.367 35.0078 629.781 35.8516C629.203 36.6875 628.906 37.9883 628.891 39.7539V41.043C628.891 42.8867 629.168 44.2344 629.723 45.0859C630.285 45.9375 631.168 46.3633 632.371 46.3633C633.457 46.3633 634.266 46.1172 634.797 45.625C635.336 45.125 635.645 44.3555 635.723 43.3164H639.238ZM640.797 42.543C640.797 41.2852 641.039 40.1641 641.523 39.1797C642.008 38.1953 642.703 37.4336 643.609 36.8945C644.523 36.3555 645.582 36.0859 646.785 36.0859C648.496 36.0859 649.891 36.6094 650.969 37.6562C652.055 38.7031 652.66 40.125 652.785 41.9219L652.809 42.7891C652.809 44.7344 652.266 46.2969 651.18 47.4766C650.094 48.6484 648.637 49.2344 646.809 49.2344C644.98 49.2344 643.52 48.6484 642.426 47.4766C641.34 46.3047 640.797 44.7109 640.797 42.6953V42.543ZM644.184 42.7891C644.184 43.9922 644.41 44.9141 644.863 45.5547C645.316 46.1875 645.965 46.5039 646.809 46.5039C647.629 46.5039 648.27 46.1914 648.73 45.5664C649.191 44.9336 649.422 43.9258 649.422 42.543C649.422 41.3633 649.191 40.4492 648.73 39.8008C648.27 39.1523 647.621 38.8281 646.785 38.8281C645.957 38.8281 645.316 39.1523 644.863 39.8008C644.41 40.4414 644.184 41.4375 644.184 42.7891ZM658.012 36.3203L658.117 37.7852C659.023 36.6523 660.238 36.0859 661.762 36.0859C663.105 36.0859 664.105 36.4805 664.762 37.2695C665.418 38.0586 665.754 39.2383 665.77 40.8086V49H662.383V40.8906C662.383 40.1719 662.227 39.6523 661.914 39.332C661.602 39.0039 661.082 38.8398 660.355 38.8398C659.402 38.8398 658.688 39.2461 658.211 40.0586V49H654.824V36.3203H658.012ZM672.402 33.2031V36.3203H674.57V38.8047H672.402V45.1328C672.402 45.6016 672.492 45.9375 672.672 46.1406C672.852 46.3438 673.195 46.4453 673.703 46.4453C674.078 46.4453 674.41 46.418 674.699 46.3633V48.9297C674.035 49.1328 673.352 49.2344 672.648 49.2344C670.273 49.2344 669.062 48.0352 669.016 45.6367V38.8047H667.164V36.3203H669.016V33.2031H672.402ZM683.805 49C683.648 48.6953 683.535 48.3164 683.465 47.8633C682.645 48.7773 681.578 49.2344 680.266 49.2344C679.023 49.2344 677.992 48.875 677.172 48.1562C676.359 47.4375 675.953 46.5312 675.953 45.4375C675.953 44.0938 676.449 43.0625 677.441 42.3438C678.441 41.625 679.883 41.2617 681.766 41.2539H683.324V40.5273C683.324 39.9414 683.172 39.4727 682.867 39.1211C682.57 38.7695 682.098 38.5938 681.449 38.5938C680.879 38.5938 680.43 38.7305 680.102 39.0039C679.781 39.2773 679.621 39.6523 679.621 40.1289H676.234C676.234 39.3945 676.461 38.7148 676.914 38.0898C677.367 37.4648 678.008 36.9766 678.836 36.625C679.664 36.2656 680.594 36.0859 681.625 36.0859C683.188 36.0859 684.426 36.4805 685.34 37.2695C686.262 38.0508 686.723 39.1523 686.723 40.5742V46.0703C686.73 47.2734 686.898 48.1836 687.227 48.8008V49H683.805ZM681.004 46.6445C681.504 46.6445 681.965 46.5352 682.387 46.3164C682.809 46.0898 683.121 45.7891 683.324 45.4141V43.2344H682.059C680.363 43.2344 679.461 43.8203 679.352 44.9922L679.34 45.1914C679.34 45.6133 679.488 45.9609 679.785 46.2344C680.082 46.5078 680.488 46.6445 681.004 46.6445ZM694.598 46.5039C695.223 46.5039 695.73 46.332 696.121 45.9883C696.512 45.6445 696.715 45.1875 696.73 44.6172H699.906C699.898 45.4766 699.664 46.2656 699.203 46.9844C698.742 47.6953 698.109 48.25 697.305 48.6484C696.508 49.0391 695.625 49.2344 694.656 49.2344C692.844 49.2344 691.414 48.6602 690.367 47.5117C689.32 46.3555 688.797 44.7617 688.797 42.7305V42.5078C688.797 40.5547 689.316 38.9961 690.355 37.832C691.395 36.668 692.82 36.0859 694.633 36.0859C696.219 36.0859 697.488 36.5391 698.441 37.4453C699.402 38.3438 699.891 39.543 699.906 41.043H696.73C696.715 40.3867 696.512 39.8555 696.121 39.4492C695.73 39.0352 695.215 38.8281 694.574 38.8281C693.785 38.8281 693.188 39.1172 692.781 39.6953C692.383 40.2656 692.184 41.1953 692.184 42.4844V42.8359C692.184 44.1406 692.383 45.0781 692.781 45.6484C693.18 46.2188 693.785 46.5039 694.598 46.5039ZM705.895 33.2031V36.3203H708.062V38.8047H705.895V45.1328C705.895 45.6016 705.984 45.9375 706.164 46.1406C706.344 46.3438 706.688 46.4453 707.195 46.4453C707.57 46.4453 707.902 46.418 708.191 46.3633V48.9297C707.527 49.1328 706.844 49.2344 706.141 49.2344C703.766 49.2344 702.555 48.0352 702.508 45.6367V38.8047H700.656V36.3203H702.508V33.2031H705.895Z" fill="black"/>
<defs>
<filter id="filter0_d" x="0" y="0" width="1100" height="90" filterUnits="userSpaceOnUse" color-interpolation-filters="sRGB">
<feFlood flood-opacity="0" result="BackgroundImageFix"/>
<feColorMatrix in="SourceAlpha" type="matrix" values="0 0 0 0 0 0 0 0 0 0 0 0 0 0 0 0 0 0 127 0"/>
<feOffset dy="4"/>
<feGaussianBlur stdDeviation="5"/>
<feColorMatrix type="matrix" values="0 0 0 0 0 0 0 0 0 0 0 0 0 0 0 0 0 0 0.02 0"/>
<feBlend mode="normal" in2="BackgroundImageFix" result="effect1_dropShadow"/>
<feBlend mode="normal" in="SourceGraphic" in2="effect1_dropShadow" result="shape"/>
</filter>
</defs>
</svg>
