<svg width="1440" height="82" viewBox="0 0 1440 82" fill="none" xmlns="http://www.w3.org/2000/svg">
<path d="M291.901 46H296.106C298.856 46 299.992 44.6591 299.992 42.9091C299.992 41.0682 298.719 40.0682 297.651 40V39.8864C298.651 39.6136 299.538 38.9545 299.538 37.4545C299.538 35.75 298.401 34.3636 295.969 34.3636H291.901V46ZM293.31 44.75V40.7045H296.174C297.697 40.7045 298.651 41.7273 298.651 42.9091C298.651 43.9318 297.947 44.75 296.106 44.75H293.31ZM293.31 39.4773V35.6136H295.969C297.515 35.6136 298.197 36.4318 298.197 37.4545C298.197 38.6818 297.197 39.4773 295.924 39.4773H293.31ZM302.126 46H303.467V40.4773C303.467 39.2955 304.398 38.4318 305.671 38.4318C306.029 38.4318 306.398 38.5 306.489 38.5227V37.1591C306.336 37.1477 305.984 37.1364 305.785 37.1364C304.739 37.1364 303.83 37.7273 303.512 38.5909H303.421V37.2727H302.126V46ZM311.359 46.1818C313.722 46.1818 315.313 44.3864 315.313 41.6818C315.313 38.9545 313.722 37.1591 311.359 37.1591C308.995 37.1591 307.404 38.9545 307.404 41.6818C307.404 44.3864 308.995 46.1818 311.359 46.1818ZM311.359 44.9773C309.563 44.9773 308.745 43.4318 308.745 41.6818C308.745 39.9318 309.563 38.3636 311.359 38.3636C313.154 38.3636 313.972 39.9318 313.972 41.6818C313.972 43.4318 313.154 44.9773 311.359 44.9773ZM319.04 46H320.359L322.268 39.2955H322.404L324.313 46H325.631L328.29 37.2727H326.881L324.995 43.9318H324.904L323.063 37.2727H321.631L319.768 43.9545H319.677L317.79 37.2727H316.381L319.04 46ZM336.245 39.2273C335.825 37.9886 334.881 37.1591 333.154 37.1591C331.313 37.1591 329.95 38.2045 329.95 39.6818C329.95 40.8864 330.665 41.6932 332.268 42.0682L333.722 42.4091C334.603 42.6136 335.018 43.0341 335.018 43.6364C335.018 44.3864 334.222 45 332.972 45C331.876 45 331.188 44.5284 330.95 43.5909L329.677 43.9091C329.989 45.392 331.211 46.1818 332.995 46.1818C335.023 46.1818 336.404 45.0739 336.404 43.5682C336.404 42.3523 335.643 41.5852 334.086 41.2045L332.79 40.8864C331.756 40.6307 331.29 40.2841 331.29 39.6136C331.29 38.8636 332.086 38.3182 333.154 38.3182C334.325 38.3182 334.808 38.9659 335.04 39.5682L336.245 39.2273ZM342.082 46.1818C343.854 46.1818 345.15 45.2955 345.559 43.9773L344.263 43.6136C343.923 44.5227 343.133 44.9773 342.082 44.9773C340.508 44.9773 339.423 43.9602 339.36 42.0909H345.695V41.5227C345.695 38.2727 343.763 37.1591 341.945 37.1591C339.582 37.1591 338.013 39.0227 338.013 41.7045C338.013 44.3864 339.559 46.1818 342.082 46.1818ZM339.36 40.9318C339.451 39.5739 340.411 38.3636 341.945 38.3636C343.4 38.3636 344.332 39.4545 344.332 40.9318H339.36Z" fill="#57586E"/>
<path d="M351.94 38.7266L355 41.7799L358.06 38.7266L359 39.6666L355 43.6666L351 39.6666L351.94 38.7266Z" fill="#57586E"/>
<path d="M638.397 46C641.942 46 643.994 43.8011 643.994 40.1648C643.994 36.5455 641.942 34.3636 638.516 34.3636H634.63V46H638.397ZM636.386 44.4659V35.8977H638.408C640.954 35.8977 642.266 37.4205 642.266 40.1648C642.266 42.9205 640.954 44.4659 638.3 44.4659H636.386ZM649.802 46.1761C651.705 46.1761 653.052 45.2386 653.438 43.8182L651.83 43.5284C651.523 44.3523 650.785 44.7727 649.819 44.7727C648.364 44.7727 647.387 43.8295 647.342 42.1477H653.546V41.5455C653.546 38.392 651.66 37.1591 649.683 37.1591C647.251 37.1591 645.648 39.0114 645.648 41.6932C645.648 44.4034 647.228 46.1761 649.802 46.1761ZM647.347 40.875C647.415 39.6364 648.313 38.5625 649.694 38.5625C651.012 38.5625 651.876 39.5398 651.881 40.875H647.347ZM655.431 46H657.13V40.6193C657.13 39.4432 657.954 38.625 658.92 38.625C659.863 38.625 660.516 39.25 660.516 40.1989V46H662.21V40.4375C662.21 39.3864 662.852 38.625 663.96 38.625C664.857 38.625 665.596 39.125 665.596 40.3068V46H667.295V40.1477C667.295 38.1534 666.181 37.1591 664.602 37.1591C663.346 37.1591 662.403 37.7614 661.982 38.6932H661.891C661.511 37.7386 660.71 37.1591 659.545 37.1591C658.391 37.1591 657.533 37.733 657.17 38.6932H657.062V37.2727H655.431V46ZM673.248 46.1761C675.708 46.1761 677.316 44.375 677.316 41.6761C677.316 38.9602 675.708 37.1591 673.248 37.1591C670.788 37.1591 669.18 38.9602 669.18 41.6761C669.18 44.375 670.788 46.1761 673.248 46.1761ZM673.254 44.75C671.646 44.75 670.896 43.3466 670.896 41.6705C670.896 40 671.646 38.5795 673.254 38.5795C674.85 38.5795 675.6 40 675.6 41.6705C675.6 43.3466 674.85 44.75 673.254 44.75ZM685.752 39.4034C685.4 38.0455 684.337 37.1591 682.451 37.1591C680.479 37.1591 679.082 38.1989 679.082 39.7443C679.082 40.983 679.832 41.8068 681.468 42.1705L682.945 42.4943C683.786 42.6818 684.178 43.0568 684.178 43.6023C684.178 44.2784 683.457 44.8068 682.343 44.8068C681.326 44.8068 680.673 44.3693 680.468 43.5114L678.826 43.7614C679.11 45.3068 680.394 46.1761 682.354 46.1761C684.462 46.1761 685.923 45.0568 685.923 43.4773C685.923 42.2443 685.138 41.483 683.536 41.1136L682.15 40.7955C681.19 40.5682 680.775 40.2443 680.781 39.6534C680.775 38.983 681.502 38.5057 682.468 38.5057C683.525 38.5057 684.013 39.0909 684.212 39.6761L685.752 39.4034Z" fill="#0A083B"/>
<path d="M828.612 46H830.021V41.75H832.567C835.277 41.75 836.498 40.1023 836.498 38.0455C836.498 35.9886 835.277 34.3636 832.544 34.3636H828.612V46ZM830.021 40.5V35.6136H832.498C834.39 35.6136 835.112 36.6477 835.112 38.0455C835.112 39.4432 834.39 40.5 832.521 40.5H830.021ZM841.155 46.2045C842.677 46.2045 843.473 45.3864 843.745 44.8182H843.814V46H845.155V40.25C845.155 37.4773 843.041 37.1591 841.927 37.1591C840.609 37.1591 839.109 37.6136 838.427 39.2045L839.7 39.6591C839.995 39.0227 840.694 38.3409 841.973 38.3409C843.206 38.3409 843.814 38.9943 843.814 40.1136V40.1591C843.814 40.8068 843.155 40.75 841.564 40.9545C839.944 41.1648 838.177 41.5227 838.177 43.5227C838.177 45.2273 839.495 46.2045 841.155 46.2045ZM841.359 45C840.291 45 839.518 44.5227 839.518 43.5909C839.518 42.5682 840.45 42.25 841.495 42.1136C842.064 42.0455 843.586 41.8864 843.814 41.6136V42.8409C843.814 43.9318 842.95 45 841.359 45ZM851.125 49.4545C853.216 49.4545 854.897 48.5 854.897 46.25V37.2727H853.602V38.6591H853.466C853.17 38.2045 852.625 37.1591 850.92 37.1591C848.716 37.1591 847.193 38.9091 847.193 41.5909C847.193 44.3182 848.784 45.8636 850.897 45.8636C852.602 45.8636 853.147 44.8636 853.443 44.3864H853.557V46.1591C853.557 47.6136 852.534 48.2727 851.125 48.2727C849.54 48.2727 848.983 47.4375 848.625 46.9545L847.557 47.7045C848.102 48.6193 849.176 49.4545 851.125 49.4545ZM851.079 44.6591C849.397 44.6591 848.534 43.3864 848.534 41.5682C848.534 39.7955 849.375 38.3636 851.079 38.3636C852.716 38.3636 853.579 39.6818 853.579 41.5682C853.579 43.5 852.693 44.6591 851.079 44.6591ZM861.011 46.1818C862.784 46.1818 864.079 45.2955 864.488 43.9773L863.193 43.6136C862.852 44.5227 862.062 44.9773 861.011 44.9773C859.437 44.9773 858.352 43.9602 858.29 42.0909H864.625V41.5227C864.625 38.2727 862.693 37.1591 860.875 37.1591C858.511 37.1591 856.943 39.0227 856.943 41.7045C856.943 44.3864 858.488 46.1818 861.011 46.1818ZM858.29 40.9318C858.38 39.5739 859.341 38.3636 860.875 38.3636C862.329 38.3636 863.261 39.4545 863.261 40.9318H858.29ZM872.846 39.2273C872.426 37.9886 871.483 37.1591 869.755 37.1591C867.915 37.1591 866.551 38.2045 866.551 39.6818C866.551 40.8864 867.267 41.6932 868.869 42.0682L870.324 42.4091C871.204 42.6136 871.619 43.0341 871.619 43.6364C871.619 44.3864 870.824 45 869.574 45C868.477 45 867.79 44.5284 867.551 43.5909L866.278 43.9091C866.591 45.392 867.812 46.1818 869.596 46.1818C871.625 46.1818 873.005 45.0739 873.005 43.5682C873.005 42.3523 872.244 41.5852 870.687 41.2045L869.392 40.8864C868.358 40.6307 867.892 40.2841 867.892 39.6136C867.892 38.8636 868.687 38.3182 869.755 38.3182C870.926 38.3182 871.409 38.9659 871.642 39.5682L872.846 39.2273Z" fill="#57586E"/>
<path d="M878.94 37.7266L882 40.7799L885.06 37.7266L886 38.6666L882 42.6666L878 38.6666L878.94 37.7266Z" fill="#57586E"/>
<path d="M731.038 38C730.607 35.6136 728.697 34.2045 726.357 34.2045C723.379 34.2045 721.22 36.5 721.22 40.1818C721.22 43.8636 723.379 46.1591 726.357 46.1591C728.697 46.1591 730.607 44.75 731.038 42.3636H729.629C729.288 43.9773 727.902 44.8409 726.357 44.8409C724.243 44.8409 722.584 43.2045 722.584 40.1818C722.584 37.1591 724.243 35.5227 726.357 35.5227C727.902 35.5227 729.288 36.3864 729.629 38H731.038ZM736.679 46.1818C739.043 46.1818 740.634 44.3864 740.634 41.6818C740.634 38.9545 739.043 37.1591 736.679 37.1591C734.315 37.1591 732.724 38.9545 732.724 41.6818C732.724 44.3864 734.315 46.1818 736.679 46.1818ZM736.679 44.9773C734.884 44.9773 734.065 43.4318 734.065 41.6818C734.065 39.9318 734.884 38.3636 736.679 38.3636C738.474 38.3636 739.293 39.9318 739.293 41.6818C739.293 43.4318 738.474 44.9773 736.679 44.9773ZM748.18 42.4318C748.18 44.0682 746.93 44.8182 745.93 44.8182C744.817 44.8182 744.021 44 744.021 42.7273V37.2727H742.68V42.8182C742.68 45.0455 743.862 46.1136 745.499 46.1136C746.817 46.1136 747.68 45.4091 748.089 44.5227H748.18V46H749.521V37.2727H748.18V42.4318ZM751.977 46H753.318V40.4773C753.318 39.2955 754.25 38.4318 755.523 38.4318C755.881 38.4318 756.25 38.5 756.341 38.5227V37.1591C756.187 37.1477 755.835 37.1364 755.636 37.1364C754.591 37.1364 753.682 37.7273 753.364 38.5909H753.273V37.2727H751.977V46ZM764.112 39.2273C763.692 37.9886 762.749 37.1591 761.021 37.1591C759.18 37.1591 757.817 38.2045 757.817 39.6818C757.817 40.8864 758.533 41.6932 760.135 42.0682L761.589 42.4091C762.47 42.6136 762.885 43.0341 762.885 43.6364C762.885 44.3864 762.089 45 760.839 45C759.743 45 759.055 44.5284 758.817 43.5909L757.544 43.9091C757.857 45.392 759.078 46.1818 760.862 46.1818C762.891 46.1818 764.271 45.0739 764.271 43.5682C764.271 42.3523 763.51 41.5852 761.953 41.2045L760.658 40.8864C759.624 40.6307 759.158 40.2841 759.158 39.6136C759.158 38.8636 759.953 38.3182 761.021 38.3182C762.192 38.3182 762.675 38.9659 762.908 39.5682L764.112 39.2273ZM769.949 46.1818C771.722 46.1818 773.017 45.2955 773.426 43.9773L772.131 43.6136C771.79 44.5227 771 44.9773 769.949 44.9773C768.375 44.9773 767.29 43.9602 767.227 42.0909H773.562V41.5227C773.562 38.2727 771.631 37.1591 769.812 37.1591C767.449 37.1591 765.881 39.0227 765.881 41.7045C765.881 44.3864 767.426 46.1818 769.949 46.1818ZM767.227 40.9318C767.318 39.5739 768.278 38.3636 769.812 38.3636C771.267 38.3636 772.199 39.4545 772.199 40.9318H767.227ZM781.784 39.2273C781.364 37.9886 780.42 37.1591 778.693 37.1591C776.852 37.1591 775.489 38.2045 775.489 39.6818C775.489 40.8864 776.205 41.6932 777.807 42.0682L779.261 42.4091C780.142 42.6136 780.557 43.0341 780.557 43.6364C780.557 44.3864 779.761 45 778.511 45C777.415 45 776.727 44.5284 776.489 43.5909L775.216 43.9091C775.528 45.392 776.75 46.1818 778.534 46.1818C780.562 46.1818 781.943 45.0739 781.943 43.5682C781.943 42.3523 781.182 41.5852 779.625 41.2045L778.33 40.8864C777.295 40.6307 776.83 40.2841 776.83 39.6136C776.83 38.8636 777.625 38.3182 778.693 38.3182C779.864 38.3182 780.347 38.9659 780.58 39.5682L781.784 39.2273Z" fill="#57586E"/>
<line opacity="0.1" x1="928.5" y1="29" x2="928.5" y2="53" stroke="#57586E"/>
<path d="M1031.71 46H1038.53V44.75H1033.12V34.3636H1031.71V46ZM1044.08 46.1818C1046.44 46.1818 1048.03 44.3864 1048.03 41.6818C1048.03 38.9545 1046.44 37.1591 1044.08 37.1591C1041.71 37.1591 1040.12 38.9545 1040.12 41.6818C1040.12 44.3864 1041.71 46.1818 1044.08 46.1818ZM1044.08 44.9773C1042.28 44.9773 1041.46 43.4318 1041.46 41.6818C1041.46 39.9318 1042.28 38.3636 1044.08 38.3636C1045.87 38.3636 1046.69 39.9318 1046.69 41.6818C1046.69 43.4318 1045.87 44.9773 1044.08 44.9773ZM1053.6 49.4545C1055.69 49.4545 1057.37 48.5 1057.37 46.25V37.2727H1056.08V38.6591H1055.94C1055.65 38.2045 1055.1 37.1591 1053.4 37.1591C1051.19 37.1591 1049.67 38.9091 1049.67 41.5909C1049.67 44.3182 1051.26 45.8636 1053.37 45.8636C1055.08 45.8636 1055.62 44.8636 1055.92 44.3864H1056.03V46.1591C1056.03 47.6136 1055.01 48.2727 1053.6 48.2727C1052.02 48.2727 1051.46 47.4375 1051.1 46.9545L1050.03 47.7045C1050.58 48.6193 1051.65 49.4545 1053.6 49.4545ZM1053.56 44.6591C1051.87 44.6591 1051.01 43.3864 1051.01 41.5682C1051.01 39.7955 1051.85 38.3636 1053.56 38.3636C1055.19 38.3636 1056.06 39.6818 1056.06 41.5682C1056.06 43.5 1055.17 44.6591 1053.56 44.6591ZM1065.92 34.3636H1064.51V46H1065.92V34.3636ZM1069.9 40.75C1069.9 39.2273 1070.85 38.3636 1072.13 38.3636C1073.38 38.3636 1074.13 39.1761 1074.13 40.5455V46H1075.47V40.4545C1075.47 38.2273 1074.28 37.1591 1072.52 37.1591C1071.2 37.1591 1070.38 37.75 1069.97 38.6364H1069.86V37.2727H1068.56V46H1069.9V40.75Z" fill="#57586E"/>
<path d="M974 48C972.9 48 972.01 48.9 972.01 50C972.01 51.1 972.9 52 974 52C975.1 52 976 51.1 976 50C976 48.9 975.1 48 974 48ZM968 32V34H970L973.6 41.59L972.25 44.04C972.09 44.32 972 44.65 972 45C972 46.1 972.9 47 974 47H986V45H974.42C974.28 45 974.17 44.89 974.17 44.75L974.2 44.63L975.1 43H982.55C983.3 43 983.96 42.59 984.3 41.97L987.88 35.48C987.96 35.34 988 35.17 988 35C988 34.45 987.55 34 987 34H972.21L971.27 32H968ZM984 48C982.9 48 982.01 48.9 982.01 50C982.01 51.1 982.9 52 984 52C985.1 52 986 51.1 986 50C986 48.9 985.1 48 984 48Z" fill="#175CFF"/>
<rect x="1115.7" y="20.7" width="158.6" height="40.6" rx="20.3" stroke="#175CFF" stroke-width="1.4"/>
<path d="M1159.84 38.0795H1161.98C1161.63 35.7955 1159.65 34.2045 1157.07 34.2045C1154.03 34.2045 1151.74 36.4432 1151.74 40.1932C1151.74 43.875 1153.93 46.1591 1157.14 46.1591C1160.02 46.1591 1162.08 44.3068 1162.08 41.3068V39.9091H1157.36V41.5568H1160.04C1160.01 43.2159 1158.9 44.267 1157.15 44.267C1155.2 44.267 1153.86 42.8068 1153.86 40.1705C1153.86 37.5511 1155.22 36.0966 1157.1 36.0966C1158.51 36.0966 1159.46 36.8466 1159.84 38.0795ZM1167.89 46.1705C1169.92 46.1705 1171.32 45.1761 1171.69 43.6591L1169.77 43.4432C1169.49 44.1818 1168.81 44.5682 1167.92 44.5682C1166.59 44.5682 1165.71 43.6932 1165.69 42.1989H1171.77V41.5682C1171.77 38.5057 1169.93 37.1591 1167.78 37.1591C1165.28 37.1591 1163.65 38.9943 1163.65 41.6875C1163.65 44.4261 1165.26 46.1705 1167.89 46.1705ZM1165.7 40.8125C1165.76 39.6989 1166.58 38.7614 1167.81 38.7614C1168.99 38.7614 1169.79 39.625 1169.8 40.8125H1165.7ZM1177.87 37.2727H1176.15V35.1818H1174.09V37.2727H1172.85V38.8636H1174.09V43.7159C1174.08 45.358 1175.27 46.1648 1176.82 46.1193C1177.4 46.1023 1177.81 45.9886 1178.03 45.9148L1177.68 44.3068C1177.57 44.3352 1177.34 44.3864 1177.08 44.3864C1176.56 44.3864 1176.15 44.2045 1176.15 43.375V38.8636H1177.87V37.2727ZM1190.46 39.5795C1190.17 38.1023 1188.99 37.1591 1186.94 37.1591C1184.84 37.1591 1183.41 38.1932 1183.42 39.8068C1183.41 41.0795 1184.19 41.9205 1185.87 42.267L1187.36 42.5795C1188.16 42.7557 1188.54 43.0795 1188.54 43.5739C1188.54 44.1705 1187.89 44.6193 1186.91 44.6193C1185.97 44.6193 1185.35 44.2102 1185.18 43.4261L1183.17 43.6193C1183.43 45.2216 1184.77 46.1705 1186.92 46.1705C1189.1 46.1705 1190.64 45.0398 1190.64 43.3864C1190.64 42.142 1189.84 41.3807 1188.19 41.0227L1186.7 40.7045C1185.81 40.5057 1185.46 40.1989 1185.47 39.6932C1185.46 39.1023 1186.12 38.6932 1186.97 38.6932C1187.92 38.6932 1188.42 39.2102 1188.58 39.7841L1190.46 39.5795ZM1196.7 37.2727H1194.98V35.1818H1192.92V37.2727H1191.68V38.8636H1192.92V43.7159C1192.91 45.358 1194.1 46.1648 1195.65 46.1193C1196.23 46.1023 1196.63 45.9886 1196.86 45.9148L1196.51 44.3068C1196.4 44.3352 1196.16 44.3864 1195.91 44.3864C1195.39 44.3864 1194.98 44.2045 1194.98 43.375V38.8636H1196.7V37.2727ZM1200.93 46.1761C1202.3 46.1761 1203.12 45.5341 1203.49 44.8011H1203.56V46H1205.54V40.1591C1205.54 37.8523 1203.66 37.1591 1201.99 37.1591C1200.16 37.1591 1198.75 37.9773 1198.29 39.5682L1200.21 39.8409C1200.42 39.2443 1201 38.733 1202 38.733C1202.96 38.733 1203.48 39.2216 1203.48 40.0795V40.1136C1203.48 40.7045 1202.86 40.733 1201.32 40.8977C1199.63 41.0795 1198.01 41.5852 1198.01 43.5511C1198.01 45.267 1199.26 46.1761 1200.93 46.1761ZM1201.46 44.6648C1200.61 44.6648 1199.99 44.2727 1199.99 43.517C1199.99 42.7273 1200.68 42.3977 1201.6 42.267C1202.14 42.1932 1203.22 42.0568 1203.49 41.8409V42.8693C1203.49 43.8409 1202.7 44.6648 1201.46 44.6648ZM1207.61 46H1209.66V40.8693C1209.66 39.7614 1210.5 38.9773 1211.63 38.9773C1211.97 38.9773 1212.41 39.0398 1212.58 39.0966V37.2045C1212.39 37.1705 1212.07 37.1477 1211.84 37.1477C1210.84 37.1477 1210.01 37.7159 1209.69 38.7273H1209.6V37.2727H1207.61V46ZM1218.78 37.2727H1217.05V35.1818H1215V37.2727H1213.76V38.8636H1215V43.7159C1214.99 45.358 1216.18 46.1648 1217.72 46.1193C1218.31 46.1023 1218.71 45.9886 1218.93 45.9148L1218.59 44.3068C1218.47 44.3352 1218.24 44.3864 1217.99 44.3864C1217.47 44.3864 1217.05 44.2045 1217.05 43.375V38.8636H1218.78V37.2727ZM1224.27 46.1705C1226.3 46.1705 1227.7 45.1761 1228.06 43.6591L1226.14 43.4432C1225.86 44.1818 1225.18 44.5682 1224.29 44.5682C1222.96 44.5682 1222.08 43.6932 1222.07 42.1989H1228.15V41.5682C1228.15 38.5057 1226.31 37.1591 1224.16 37.1591C1221.66 37.1591 1220.03 38.9943 1220.03 41.6875C1220.03 44.4261 1221.63 46.1705 1224.27 46.1705ZM1222.07 40.8125C1222.13 39.6989 1222.96 38.7614 1224.19 38.7614C1225.37 38.7614 1226.16 39.625 1226.17 40.8125H1222.07ZM1233.13 46.1534C1234.63 46.1534 1235.3 45.2614 1235.63 44.625H1235.75V46H1237.77V34.3636H1235.71V38.7159H1235.63C1235.31 38.0852 1234.67 37.1591 1233.13 37.1591C1231.11 37.1591 1229.53 38.7386 1229.53 41.6477C1229.53 44.5227 1231.07 46.1534 1233.13 46.1534ZM1233.7 44.4659C1232.34 44.4659 1231.63 43.2727 1231.63 41.6364C1231.63 40.0114 1232.33 38.8466 1233.7 38.8466C1235.02 38.8466 1235.75 39.9432 1235.75 41.6364C1235.75 43.3295 1235.01 44.4659 1233.7 44.4659Z" fill="#175CFF"/>
<g clip-path="url(#clip0)">
<path d="M176.242 45.5432C176.31 45.9115 176.565 46.2515 176.938 46.2844C177.468 46.3312 177.736 46.0446 177.842 45.2042C178.497 39.9726 182.848 36.3803 187.83 36.8143C188.626 36.8866 188.977 37.1036 188.977 38.0197C189 40.8164 188.953 43.5648 187.713 46.1445C185.304 51.2074 180.228 54.0281 175.152 53.1361C169.936 52.244 165.749 47.6874 165.14 42.1665C165 40.8164 165.094 39.4422 165 38.0679C164.953 37.1518 165.351 36.9107 166.146 36.8384C170.942 36.4044 175.269 39.8279 176.088 44.7461C176.141 45.0181 176.193 45.2823 176.242 45.5432ZM185.023 42.1424C185.07 41.1298 184.322 40.2619 183.363 40.1895C182.38 40.1172 181.538 40.8646 181.444 41.8772C181.351 42.9621 182.123 43.8541 183.152 43.8782C184.135 43.9264 184.953 43.1549 185.023 42.1424ZM170.801 43.9023C171.784 43.9023 172.579 43.0826 172.602 42.07C172.626 41.0092 171.76 40.1654 170.731 40.2136C169.749 40.2619 169 41.0816 169.023 42.1183C169.023 43.1308 169.795 43.9264 170.801 43.9023Z" fill="#175CFF"/>
<path d="M177.023 42.0699C174.474 37.007 170.591 34.789 165.164 35.3194C165.164 33.7041 165.164 32.137 165.164 30.377C173.047 33.1496 180.907 33.1496 188.836 30.3047C188.836 32.0164 188.836 33.5835 188.836 35.2953C186.333 35.0059 183.994 35.3435 181.819 36.573C179.643 37.8026 178.123 39.659 177.023 42.0699Z" fill="#0B3DB4"/>
</g>
<path d="M197.13 35H198.924V32.556L202.304 31.594V35H205.476V37.86H202.304V42.852C202.304 43.7533 202.391 44.4033 202.564 44.802C202.755 45.1833 203.101 45.374 203.604 45.374C203.951 45.374 204.245 45.3393 204.488 45.27C204.748 45.2007 205.034 45.0967 205.346 44.958L205.944 47.558C205.476 47.7833 204.93 47.974 204.306 48.13C203.682 48.286 203.049 48.364 202.408 48.364C201.212 48.364 200.328 48.0607 199.756 47.454C199.201 46.83 198.924 45.816 198.924 44.412V37.86H197.13V35ZM210.796 35V42.384C210.796 43.4413 210.918 44.204 211.16 44.672C211.42 45.14 211.914 45.374 212.642 45.374C213.284 45.374 213.812 45.1833 214.228 44.802C214.662 44.4207 214.982 43.9527 215.19 43.398V35H218.57V44.048C218.57 44.7587 218.605 45.4607 218.674 46.154C218.744 46.83 218.848 47.4453 218.986 48H216.438L215.84 46.076H215.736C215.338 46.7347 214.783 47.2807 214.072 47.714C213.362 48.1473 212.521 48.364 211.55 48.364C210.892 48.364 210.302 48.2773 209.782 48.104C209.262 47.9307 208.829 47.6447 208.482 47.246C208.136 46.8473 207.867 46.31 207.676 45.634C207.503 44.958 207.416 44.1087 207.416 43.086V35H210.796ZM220.185 35H221.979V32.556L225.359 31.594V35H228.531V37.86H225.359V42.852C225.359 43.7533 225.445 44.4033 225.619 44.802C225.809 45.1833 226.156 45.374 226.659 45.374C227.005 45.374 227.3 45.3393 227.543 45.27C227.803 45.2007 228.089 45.0967 228.401 44.958L228.999 47.558C228.531 47.7833 227.985 47.974 227.361 48.13C226.737 48.286 226.104 48.364 225.463 48.364C224.267 48.364 223.383 48.0607 222.811 47.454C222.256 46.83 221.979 45.816 221.979 44.412V37.86H220.185V35ZM229.85 41.5C229.85 39.2987 230.388 37.6087 231.462 36.43C232.537 35.234 234.045 34.636 235.986 34.636C237.026 34.636 237.928 34.8007 238.69 35.13C239.453 35.4593 240.086 35.9273 240.588 36.534C241.091 37.1233 241.464 37.8427 241.706 38.692C241.966 39.5413 242.096 40.4773 242.096 41.5C242.096 43.7013 241.559 45.4 240.484 46.596C239.427 47.7747 237.928 48.364 235.986 48.364C234.946 48.364 234.045 48.1993 233.282 47.87C232.52 47.5407 231.878 47.0813 231.358 46.492C230.856 45.8853 230.474 45.1573 230.214 44.308C229.972 43.4587 229.85 42.5227 229.85 41.5ZM233.334 41.5C233.334 42.072 233.386 42.6007 233.49 43.086C233.594 43.5713 233.75 43.996 233.958 44.36C234.166 44.724 234.435 45.01 234.764 45.218C235.111 45.4087 235.518 45.504 235.986 45.504C236.87 45.504 237.529 45.1833 237.962 44.542C238.396 43.9007 238.612 42.8867 238.612 41.5C238.612 40.304 238.413 39.342 238.014 38.614C237.616 37.8687 236.94 37.496 235.986 37.496C235.154 37.496 234.504 37.808 234.036 38.432C233.568 39.056 233.334 40.0787 233.334 41.5ZM251.615 38.172C251.078 37.9813 250.592 37.886 250.159 37.886C249.552 37.886 249.041 38.0507 248.625 38.38C248.226 38.692 247.958 39.0993 247.819 39.602V48H244.439V35H247.065L247.455 36.716H247.559C247.854 36.0747 248.252 35.5807 248.755 35.234C249.258 34.8873 249.847 34.714 250.523 34.714C250.974 34.714 251.485 34.8093 252.057 35L251.615 38.172Z" fill="#0A083B"/>
<defs>
<clipPath id="clip0">
<rect width="24" height="23" fill="white" transform="translate(165 30.3047)"/>
</clipPath>
</defs>
</svg>
