<svg width="24" height="24" viewBox="0 0 24 24" fill="none" xmlns="http://www.w3.org/2000/svg">
<path d="M23.5769 0.408281C23.7161 0.540801 23.8256 0.701249 23.8984 0.879099C23.9712 1.05695 24.0056 1.24818 23.9993 1.44024V22.5595C24.0042 22.75 23.9692 22.9394 23.8964 23.1155C23.8237 23.2916 23.7148 23.4504 23.5769 23.5819C23.4442 23.7165 23.2857 23.8229 23.1108 23.8947C22.9359 23.9664 22.7484 24.0021 22.5594 23.9995H1.44065C1.25012 24.0048 1.06051 23.9711 0.883413 23.9006C0.706321 23.8302 0.545467 23.7243 0.410689 23.5895C0.27591 23.4547 0.17004 23.2939 0.0995524 23.1168C0.0290645 22.9397 -0.00455978 22.75 0.000735862 22.5595V1.44024C-0.00557729 1.24818 0.0287896 1.05695 0.101582 0.879099C0.174374 0.701249 0.283946 0.540801 0.42311 0.408281C0.556923 0.275831 0.715888 0.1715 0.890641 0.101432C1.06539 0.0313646 1.2524 -0.00302312 1.44065 0.000294874H22.5594C22.7477 -0.00356867 22.9348 0.0305686 23.1097 0.100667C23.2845 0.170766 23.4434 0.275387 23.5769 0.408281ZM19.2572 13.0078C19.521 12.7387 19.6688 12.3768 19.6688 11.9999C19.6688 11.623 19.521 11.2611 19.2572 10.9919C19.1333 10.8566 18.9828 10.7484 18.8152 10.674C18.6475 10.5997 18.4662 10.5608 18.2828 10.5599H13.4399V5.76009C13.4445 5.57039 13.4093 5.38183 13.3365 5.20657C13.2638 5.0313 13.1551 4.87323 13.0175 4.74253C12.7484 4.47869 12.3865 4.33091 12.0096 4.33091C11.6327 4.33091 11.2708 4.47869 11.0017 4.74253C10.8606 4.87152 10.7484 5.02884 10.6723 5.20418C10.5962 5.37953 10.558 5.56896 10.5601 5.76009V10.5599H5.76038C5.57068 10.5553 5.38213 10.5906 5.20687 10.6633C5.03161 10.7361 4.87354 10.8447 4.74285 10.9823C4.47901 11.2515 4.33124 11.6134 4.33124 11.9903C4.33124 12.3672 4.47901 12.7291 4.74285 12.9982C4.87184 13.1393 5.02914 13.2515 5.20449 13.3276C5.37983 13.4037 5.56925 13.442 5.76038 13.4398H10.5601V18.2829C10.5571 18.4688 10.5931 18.6533 10.6659 18.8244C10.7386 18.9956 10.8465 19.1496 10.9825 19.2764C11.2516 19.5403 11.6135 19.688 11.9904 19.688C12.3673 19.688 12.7292 19.5403 12.9983 19.2764C13.1378 19.1513 13.2492 18.9981 13.3253 18.8268C13.4014 18.6556 13.4405 18.4702 13.4399 18.2829V13.4398H18.2828C18.4695 13.4416 18.6544 13.4041 18.8256 13.3296C18.9968 13.2552 19.1503 13.1456 19.2764 13.0078H19.2572Z" fill="white"/>
</svg>
