<svg width="1100" height="90" viewBox="0 0 1100 90" fill="none" xmlns="http://www.w3.org/2000/svg">
<g filter="url(#filter0_d)">
<rect x="10" y="6" width="1080" height="70" fill="white"/>
</g>
<path d="M517.299 48.4697H526.63V52H512.904V30.6719H517.299V48.4697ZM545.746 41.8193C545.746 43.9189 545.375 45.7598 544.633 47.3418C543.891 48.9238 542.826 50.1445 541.439 51.0039C540.062 51.8633 538.48 52.293 536.693 52.293C534.926 52.293 533.349 51.8682 531.962 51.0186C530.575 50.1689 529.501 48.958 528.739 47.3857C527.978 45.8037 527.592 43.9873 527.582 41.9365V40.8818C527.582 38.7822 527.958 36.9365 528.71 35.3447C529.472 33.7432 530.541 32.5176 531.918 31.668C533.305 30.8086 534.887 30.3789 536.664 30.3789C538.441 30.3789 540.019 30.8086 541.396 31.668C542.782 32.5176 543.852 33.7432 544.604 35.3447C545.365 36.9365 545.746 38.7773 545.746 40.8672V41.8193ZM541.293 40.8525C541.293 38.6162 540.893 36.917 540.092 35.7549C539.291 34.5928 538.148 34.0117 536.664 34.0117C535.189 34.0117 534.052 34.5879 533.251 35.7402C532.45 36.8828 532.045 38.5625 532.035 40.7793V41.8193C532.035 43.9971 532.436 45.6865 533.236 46.8877C534.037 48.0889 535.189 48.6895 536.693 48.6895C538.168 48.6895 539.301 48.1133 540.092 46.9609C540.883 45.7988 541.283 44.1094 541.293 41.8926V40.8525ZM565.814 49.3047C565.023 50.252 563.905 50.9893 562.46 51.5166C561.015 52.0342 559.413 52.293 557.655 52.293C555.81 52.293 554.188 51.8926 552.792 51.0918C551.405 50.2812 550.331 49.1094 549.569 47.5762C548.817 46.043 548.432 44.2412 548.412 42.1709V40.7207C548.412 38.5918 548.769 36.751 549.481 35.1982C550.204 33.6357 551.239 32.4443 552.587 31.624C553.944 30.7939 555.531 30.3789 557.348 30.3789C559.877 30.3789 561.854 30.9844 563.28 32.1953C564.706 33.3965 565.551 35.1494 565.814 37.4541H561.537C561.342 36.2334 560.907 35.3398 560.233 34.7734C559.569 34.207 558.651 33.9238 557.479 33.9238C555.985 33.9238 554.848 34.4854 554.066 35.6084C553.285 36.7314 552.89 38.4014 552.88 40.6182V41.9805C552.88 44.2168 553.305 45.9062 554.154 47.0488C555.004 48.1914 556.249 48.7627 557.89 48.7627C559.54 48.7627 560.717 48.4111 561.42 47.708V44.0312H557.421V40.7939H565.814V49.3047ZM586.908 41.8193C586.908 43.9189 586.537 45.7598 585.795 47.3418C585.053 48.9238 583.988 50.1445 582.602 51.0039C581.225 51.8633 579.643 52.293 577.855 52.293C576.088 52.293 574.511 51.8682 573.124 51.0186C571.737 50.1689 570.663 48.958 569.901 47.3857C569.14 45.8037 568.754 43.9873 568.744 41.9365V40.8818C568.744 38.7822 569.12 36.9365 569.872 35.3447C570.634 33.7432 571.703 32.5176 573.08 31.668C574.467 30.8086 576.049 30.3789 577.826 30.3789C579.604 30.3789 581.181 30.8086 582.558 31.668C583.944 32.5176 585.014 33.7432 585.766 35.3447C586.527 36.9365 586.908 38.7773 586.908 40.8672V41.8193ZM582.455 40.8525C582.455 38.6162 582.055 36.917 581.254 35.7549C580.453 34.5928 579.311 34.0117 577.826 34.0117C576.352 34.0117 575.214 34.5879 574.413 35.7402C573.612 36.8828 573.207 38.5625 573.197 40.7793V41.8193C573.197 43.9971 573.598 45.6865 574.398 46.8877C575.199 48.0889 576.352 48.6895 577.855 48.6895C579.33 48.6895 580.463 48.1133 581.254 46.9609C582.045 45.7988 582.445 44.1094 582.455 41.8926V40.8525Z" fill="black"/>
<circle cx="1025.76" cy="36.756" r="9.75604" stroke="black" stroke-width="3"/>
<line x1="1031.95" y1="43.4828" x2="1042.88" y2="54.4132" stroke="black" stroke-width="3"/>
<rect x="63.5" y="25.5" width="42" height="31" rx="3.5" stroke="black" stroke-width="3"/>
<line x1="65" y1="35.5" x2="104" y2="35.5" stroke="black" stroke-width="3"/>
<line x1="65" y1="46.5" x2="104" y2="46.5" stroke="black" stroke-width="3"/>
<defs>
<filter id="filter0_d" x="0" y="0" width="1100" height="90" filterUnits="userSpaceOnUse" color-interpolation-filters="sRGB">
<feFlood flood-opacity="0" result="BackgroundImageFix"/>
<feColorMatrix in="SourceAlpha" type="matrix" values="0 0 0 0 0 0 0 0 0 0 0 0 0 0 0 0 0 0 127 0"/>
<feOffset dy="4"/>
<feGaussianBlur stdDeviation="5"/>
<feColorMatrix type="matrix" values="0 0 0 0 0 0 0 0 0 0 0 0 0 0 0 0 0 0 0.02 0"/>
<feBlend mode="normal" in2="BackgroundImageFix" result="effect1_dropShadow"/>
<feBlend mode="normal" in="SourceGraphic" in2="effect1_dropShadow" result="shape"/>
</filter>
</defs>
</svg>
