<svg width="1440" height="82" viewBox="0 0 1440 82" fill="none" xmlns="http://www.w3.org/2000/svg">
<rect width="1440" height="82" fill="white"/>
<path d="M687.246 46.2385C687.314 46.6068 687.568 46.9468 687.942 46.9797C688.472 47.0265 688.74 46.7399 688.846 45.8995C689.501 40.6679 693.852 37.0756 698.834 37.5096C699.63 37.5819 699.98 37.7989 699.98 38.715C700.004 41.5117 699.957 44.2601 698.717 46.8398C696.308 51.9027 691.232 54.7234 686.156 53.8314C680.939 52.9393 676.752 48.3827 676.144 42.8618C676.004 41.5117 676.097 40.1375 676.004 38.7632C675.957 37.8471 676.355 37.606 677.15 37.5337C681.945 37.0997 686.273 40.5232 687.092 45.4414C687.144 45.7134 687.197 45.9776 687.246 46.2385ZM696.027 42.8377C696.074 41.8251 695.325 40.9572 694.366 40.8848C693.384 40.8125 692.542 41.5599 692.448 42.5725C692.355 43.6574 693.127 44.5494 694.156 44.5735C695.138 44.6217 695.957 43.8502 696.027 42.8377ZM681.805 44.5976C682.787 44.5976 683.583 43.7779 683.606 42.7653C683.63 41.7045 682.764 40.8607 681.735 40.9089C680.752 40.9572 680.004 41.7769 680.027 42.8136C680.027 43.8261 680.799 44.6217 681.805 44.5976Z" fill="#175CFF"/>
<path d="M688.028 42.7652C685.478 37.7023 681.595 35.4843 676.168 36.0147C676.168 34.3994 676.168 32.8323 676.168 31.0723C684.051 33.8449 691.911 33.8449 699.841 31C699.841 32.7117 699.841 34.2788 699.841 35.9906C697.338 35.7012 694.998 36.0388 692.823 37.2683C690.648 38.4979 689.127 40.3543 688.028 42.7652Z" fill="#0B3DB4"/>
<path d="M708.134 35.6953H709.928V33.2513L713.308 32.2893V35.6953H716.48V38.5553H713.308V43.5473C713.308 44.4486 713.395 45.0986 713.568 45.4973C713.759 45.8786 714.105 46.0693 714.608 46.0693C714.955 46.0693 715.249 46.0346 715.492 45.9653C715.752 45.896 716.038 45.792 716.35 45.6533L716.948 48.2533C716.48 48.4786 715.934 48.6693 715.31 48.8253C714.686 48.9813 714.053 49.0593 713.412 49.0593C712.216 49.0593 711.332 48.756 710.76 48.1493C710.205 47.5253 709.928 46.5113 709.928 45.1073V38.5553H708.134V35.6953ZM721.8 35.6953V43.0793C721.8 44.1366 721.922 44.8993 722.164 45.3673C722.424 45.8353 722.918 46.0693 723.646 46.0693C724.288 46.0693 724.816 45.8786 725.232 45.4973C725.666 45.116 725.986 44.648 726.194 44.0933V35.6953H729.574V44.7433C729.574 45.454 729.609 46.156 729.678 46.8493C729.748 47.5253 729.852 48.1406 729.99 48.6953H727.442L726.844 46.7713H726.74C726.342 47.43 725.787 47.976 725.076 48.4093C724.366 48.8426 723.525 49.0593 722.554 49.0593C721.896 49.0593 721.306 48.9726 720.786 48.7993C720.266 48.626 719.833 48.34 719.486 47.9413C719.14 47.5426 718.871 47.0053 718.68 46.3293C718.507 45.6533 718.42 44.804 718.42 43.7813V35.6953H721.8ZM731.189 35.6953H732.983V33.2513L736.363 32.2893V35.6953H739.535V38.5553H736.363V43.5473C736.363 44.4486 736.449 45.0986 736.623 45.4973C736.813 45.8786 737.16 46.0693 737.663 46.0693C738.009 46.0693 738.304 46.0346 738.547 45.9653C738.807 45.896 739.093 45.792 739.405 45.6533L740.003 48.2533C739.535 48.4786 738.989 48.6693 738.365 48.8253C737.741 48.9813 737.108 49.0593 736.467 49.0593C735.271 49.0593 734.387 48.756 733.815 48.1493C733.26 47.5253 732.983 46.5113 732.983 45.1073V38.5553H731.189V35.6953ZM740.854 42.1953C740.854 39.994 741.392 38.304 742.466 37.1253C743.541 35.9293 745.049 35.3313 746.99 35.3313C748.03 35.3313 748.932 35.496 749.694 35.8253C750.457 36.1546 751.09 36.6226 751.592 37.2293C752.095 37.8186 752.468 38.538 752.71 39.3873C752.97 40.2366 753.1 41.1726 753.1 42.1953C753.1 44.3966 752.563 46.0953 751.488 47.2913C750.431 48.47 748.932 49.0593 746.99 49.0593C745.95 49.0593 745.049 48.8946 744.286 48.5653C743.524 48.236 742.882 47.7766 742.362 47.1873C741.86 46.5806 741.478 45.8526 741.218 45.0033C740.976 44.154 740.854 43.218 740.854 42.1953ZM744.338 42.1953C744.338 42.7673 744.39 43.296 744.494 43.7813C744.598 44.2666 744.754 44.6913 744.962 45.0553C745.17 45.4193 745.439 45.7053 745.768 45.9133C746.115 46.104 746.522 46.1993 746.99 46.1993C747.874 46.1993 748.533 45.8786 748.966 45.2373C749.4 44.596 749.616 43.582 749.616 42.1953C749.616 40.9993 749.417 40.0373 749.018 39.3093C748.62 38.564 747.944 38.1913 746.99 38.1913C746.158 38.1913 745.508 38.5033 745.04 39.1273C744.572 39.7513 744.338 40.774 744.338 42.1953ZM762.619 38.8673C762.082 38.6766 761.596 38.5813 761.163 38.5813C760.556 38.5813 760.045 38.746 759.629 39.0753C759.23 39.3873 758.962 39.7946 758.823 40.2973V48.6953H755.443V35.6953H758.069L758.459 37.4113H758.563C758.858 36.77 759.256 36.276 759.759 35.9293C760.262 35.5826 760.851 35.4093 761.527 35.4093C761.978 35.4093 762.489 35.5046 763.061 35.6953L762.619 38.8673Z" fill="#0A083B"/>
<circle cx="1191.76" cy="39.756" r="9.75604" stroke="#175CFF" stroke-width="3"/>
<line x1="1197.95" y1="46.4828" x2="1208.88" y2="57.4132" stroke="#175CFF" stroke-width="3"/>
<rect x="188" y="28" width="37" height="5" fill="#57586E"/>
<rect x="188" y="37" width="37" height="5" fill="#57586E"/>
<rect x="188" y="46" width="37" height="5" fill="#57586E"/>
</svg>
