<svg width="26" height="26" viewBox="0 0 26 26" fill="none" xmlns="http://www.w3.org/2000/svg">
<path d="M25.1117 14.6798C25.1056 14.6798 25.1025 14.6725 25.1067 14.6681C25.5393 14.2207 25.7813 13.6226 25.7813 12.9999C25.7813 12.3717 25.535 11.7685 25.0953 11.3199C24.8889 11.0944 24.6381 10.914 24.3586 10.7901C24.0792 10.6662 23.7771 10.6015 23.4714 10.6C19.0533 10.6 15.3999 7.01836 15.3999 2.60024C15.4075 2.28406 15.3488 1.96979 15.2276 1.67769C15.1063 1.38559 14.9252 1.12213 14.6959 0.904295C14.2473 0.464566 13.6442 0.218262 13.016 0.218262C12.3879 0.218262 11.7847 0.464566 11.3361 0.904295C11.101 1.11929 10.914 1.38147 10.7872 1.67372C10.6603 1.96596 10.5966 2.28168 10.6002 2.60024C10.6002 7.01824 7.01867 10.6 2.60066 10.6C2.28449 10.5923 1.97023 10.651 1.67814 10.7723C1.38604 10.8935 1.12259 11.0746 0.904765 11.3039C0.465047 11.7525 0.21875 12.3557 0.21875 12.9839C0.21875 13.6121 0.465047 14.2152 0.904765 14.6638C1.11975 14.8989 1.38193 15.086 1.67417 15.2128C1.9664 15.3396 2.28212 15.4033 2.60066 15.3998C7.01867 15.3998 10.6002 19.0535 10.6002 23.4715C10.5952 23.7814 10.6553 24.0889 10.7765 24.3741C10.8978 24.6594 11.0775 24.916 11.3041 25.1275C11.7527 25.5672 12.3559 25.8135 12.984 25.8135C13.6122 25.8135 14.2153 25.5672 14.6639 25.1275C14.8964 24.9189 15.0821 24.6635 15.2089 24.3782C15.3357 24.0928 15.4008 23.7838 15.3999 23.4715C15.3999 19.0137 19.0136 15.3998 23.4714 15.3998C23.7825 15.4028 24.0907 15.3402 24.376 15.2161C24.6565 15.0942 24.9087 14.9154 25.1167 14.6913C25.1208 14.6869 25.1176 14.6798 25.1117 14.6798Z" fill="white"/>
</svg>