<svg width="34" height="34" viewBox="0 0 34 34" fill="none" xmlns="http://www.w3.org/2000/svg">
<circle cx="17" cy="17" r="17" fill="white"/>
<path d="M17.4034 16.6161C20.2517 16.6161 22.5819 14.2858 22.5819 11.4375V11.1785C22.5819 8.33025 20.2517 6 17.4034 6C14.5551 6 12.2249 8.33025 12.2249 11.1785V11.4375C12.2249 14.2856 14.5551 16.6161 17.4034 16.6161Z" fill="#E55E41"/>
<path d="M17.3257 28C20.9766 28 24.2391 26.2652 26.3364 23.5983C27.2685 22.3813 26.8542 20.6207 25.5077 19.9215C24.9122 19.6367 24.2649 19.4556 23.5657 19.4556H11.6551C10.5935 19.4556 9.63547 19.8439 8.85869 20.4654C7.82308 21.3198 7.71937 22.8733 8.57386 23.8833C10.6455 26.3945 13.8042 28 17.3261 28H17.3257Z" fill="#BB4A67"/>
</svg>
