<svg width="30" height="30" viewBox="0 0 30 30" fill="none" xmlns="http://www.w3.org/2000/svg">
<g clip-path="url(#clip0_150_6211)">
<path d="M27 30H2.25C1.65326 30 1.08097 29.7629 0.65901 29.341C0.237053 28.919 0 28.3467 0 27.75V7.5C0 6.90326 0.237053 6.33097 0.65901 5.90901C1.08097 5.48705 1.65326 5.25 2.25 5.25H27C27.5967 5.25 28.169 5.48705 28.591 5.90901C29.0129 6.33097 29.25 6.90326 29.25 7.5V27.75C29.25 28.3467 29.0129 28.919 28.591 29.341C28.169 29.7629 27.5967 30 27 30ZM7.5 13.125C7.5 12.8266 7.38147 12.5405 7.1705 12.3295C6.95952 12.1185 6.67337 12 6.375 12H4.875C4.57663 12 4.29048 12.1185 4.0795 12.3295C3.86853 12.5405 3.75 12.8266 3.75 13.125V25.125C3.75 25.4234 3.86853 25.7095 4.0795 25.9205C4.29048 26.1315 4.57663 26.25 4.875 26.25H6.375C6.67337 26.25 6.95952 26.1315 7.1705 25.9205C7.38147 25.7095 7.5 25.4234 7.5 25.125V13.125ZM19.5 17.625C19.5 17.3266 19.3815 17.0405 19.1705 16.8295C18.9595 16.6185 18.6734 16.5 18.375 16.5H16.875C16.5766 16.5 16.2905 16.6185 16.0795 16.8295C15.8685 17.0405 15.75 17.3266 15.75 17.625V25.125C15.75 25.4234 15.8685 25.7095 16.0795 25.9205C16.2905 26.1315 16.5766 26.25 16.875 26.25H18.375C18.6734 26.25 18.9595 26.1315 19.1705 25.9205C19.3815 25.7095 19.5 25.4234 19.5 25.125V17.625ZM25.5 10.875C25.5 10.5766 25.3815 10.2905 25.1705 10.0795C24.9595 9.86853 24.6734 9.75 24.375 9.75H22.875C22.5766 9.75 22.2905 9.86853 22.0795 10.0795C21.8685 10.2905 21.75 10.5766 21.75 10.875V25.125C21.75 25.4234 21.8685 25.7095 22.0795 25.9205C22.2905 26.1315 22.5766 26.25 22.875 26.25H24.375C24.6734 26.25 24.9595 26.1315 25.1705 25.9205C25.3815 25.7095 25.5 25.4234 25.5 25.125V10.875Z" fill="white"/>
<path d="M10.875 0H12.375C12.6734 0 12.9595 0.118526 13.1705 0.329505C13.3815 0.540483 13.5 0.826631 13.5 1.125V25.125C13.5 25.4234 13.3815 25.7095 13.1705 25.9205C12.9595 26.1315 12.6734 26.25 12.375 26.25H10.875C10.5766 26.25 10.2905 26.1315 10.0795 25.9205C9.86853 25.7095 9.75 25.4234 9.75 25.125V1.125C9.75 0.826631 9.86853 0.540483 10.0795 0.329505C10.2905 0.118526 10.5766 0 10.875 0Z" fill="#6967DE"/>
</g>
<defs>
<clipPath id="clip0_150_6211">
<rect width="29.25" height="30" fill="white"/>
</clipPath>
</defs>
</svg>
